<svg width="503" height="726" viewBox="0 0 503 726" fill="none" xmlns="http://www.w3.org/2000/svg">
<g clip-path="url(#clip0_121_14009)">
<g opacity="0.2">
<path d="M-67.492 287.323C-62.6146 287.323 -58.1583 287.698 -54.1932 288.472C-26.0167 293.919 -28.894 315.331 -31.0344 330.946C-31.2449 332.62 -31.4906 334.244 -31.666 335.768C-32.9994 347.436 -32.1572 368.173 -11.7705 376.018C-7.62997 377.617 -2.71755 378.616 2.05457 379.591C10.7918 381.365 19.8097 383.213 24.7923 388.835C27.1082 391.458 28.3714 394.831 28.582 399.128C29.5294 416.643 15.8446 434.082 -13.2443 452.47C-40.719 469.86 -65.2814 479.429 -90.5455 482.602C-96.3352 483.326 -102.3 483.701 -108.265 483.701C-130.582 483.701 -152.653 478.629 -170.408 469.435C-179.567 464.688 -195.322 454.544 -197.708 440.153C-200.234 424.937 -187.497 411.945 -175.18 399.403C-169.636 393.782 -163.917 387.96 -159.671 382.014C-152.302 371.72 -148.828 360.078 -145.46 348.81C-144.162 344.437 -142.828 339.915 -141.249 335.543C-133.986 315.081 -122.266 301.639 -105.318 294.468C-94.9667 290.071 -80.4398 287.348 -67.4569 287.348L-67.492 287.323ZM-108.265 481.202C-102.511 481.202 -96.7212 480.853 -91.142 480.153C-66.5797 477.08 -42.5436 467.686 -15.5601 450.621C12.6866 432.758 25.9853 415.943 25.1081 399.228C24.8976 395.381 23.8449 392.433 21.8448 390.184C17.5639 385.387 9.56367 383.738 1.1072 382.014C-3.84036 381.015 -8.92829 379.965 -13.3846 378.241C-35.5258 369.722 -36.4732 347.86 -35.1047 335.593C-34.9293 334.044 -34.7187 332.42 -34.4731 330.721C-32.3678 315.156 -29.7712 295.793 -55.0704 290.896C-58.7197 290.196 -62.8953 289.846 -67.4569 289.846C-79.6679 289.846 -93.8088 292.495 -103.528 296.617C-119.599 303.438 -130.828 316.355 -137.846 336.143C-139.389 340.49 -140.723 344.987 -142.021 349.334C-145.425 360.752 -148.934 372.57 -156.513 383.163C-160.899 389.26 -166.654 395.156 -172.268 400.852C-184.76 413.594 -196.585 425.612 -194.199 439.878C-191.953 453.345 -177.005 462.914 -168.303 467.436C-151.144 476.33 -129.81 481.227 -108.23 481.227L-108.265 481.202Z" fill="#BB9F73"/>
<path d="M-70.2982 270.609C-59.9469 270.609 -47.9815 271.083 -37.7004 274.581C-14.296 282.576 -8.71684 299.716 -4.26053 313.507C-3.83946 314.831 -3.41841 316.13 -2.96225 317.405C-1.97976 320.303 -0.997243 322.976 0.0203401 325.35C4.89772 337.042 14.1612 353.532 38.1972 361.452C41.7763 362.626 45.7063 363.626 49.3906 364.525C61.4964 367.498 73.7775 370.547 78.7602 378.592C80.8655 381.989 81.3217 386.137 80.1638 390.859C79.3216 394.232 77.7777 397.68 75.4969 401.078C71.1108 407.698 64.7596 413.42 58.0576 419.466C47.8116 428.71 35.0743 440.203 22.5475 450.397C1.31861 467.636 -31.7704 491.047 -74.0878 495.244C-93.9482 497.193 -115.774 494.769 -138.511 488.073C-153.249 483.751 -167.074 477.605 -179.566 469.86C-194.689 460.466 -203.286 450.597 -205.075 440.553C-207.953 424.438 -195.321 410.372 -183.074 396.755C-178.899 392.108 -174.583 387.311 -171.004 382.539L-170.092 381.34C-168.828 379.666 -167.635 378.092 -166.653 376.418C-164.547 372.795 -163.635 368.997 -162.688 364.975C-162.442 364.001 -162.196 363.001 -161.951 362.027C-158.968 350.634 -153.459 339.491 -148.091 328.722C-146.827 326.149 -145.529 323.576 -144.301 320.977C-143.319 318.904 -142.301 316.68 -141.213 314.356C-132.827 295.918 -121.318 270.684 -93.071 270.684L-92.1236 270.684C-88.1234 270.784 -83.8777 270.709 -79.5266 270.634C-76.4739 270.584 -73.3158 270.534 -70.1929 270.534L-70.2982 270.609ZM-87.7725 493.22C-83.3513 493.22 -78.9301 493.02 -74.6843 492.596C-33.6301 488.523 -1.20784 465.562 19.6 448.648C32.0566 438.529 44.794 427.061 55.0049 417.842C61.5665 411.921 67.7773 406.324 71.988 399.978C74.0933 396.78 75.5671 393.582 76.339 390.434C77.3917 386.237 77.0057 382.639 75.2162 379.716C70.9353 372.745 59.4261 369.897 48.3029 367.174C44.3378 366.199 40.3025 365.175 36.548 363.951C11.1435 355.556 1.42389 338.367 -3.66402 326.149C-4.68161 323.726 -5.69919 321.002 -6.68168 318.079C-7.10275 316.805 -7.55895 315.481 -7.98002 314.157C-12.5065 300.24 -17.6295 284.475 -39.3847 277.055C-48.964 273.782 -60.403 273.332 -70.3332 273.332C-73.4562 273.332 -76.544 273.382 -79.5968 273.432C-84.018 273.507 -88.3339 273.557 -92.3692 273.482L-93.2113 273.482C-118.686 273.482 -129.704 297.642 -137.739 315.281C-138.792 317.629 -139.845 319.853 -140.827 321.927C-142.09 324.5 -143.354 327.099 -144.652 329.672C-149.95 340.365 -155.424 351.383 -158.337 362.576C-158.582 363.551 -158.828 364.525 -159.074 365.5C-160.021 369.472 -161.039 373.595 -163.284 377.492C-164.337 379.291 -165.635 381.015 -166.898 382.664L-167.811 383.863C-171.46 388.735 -175.811 393.557 -180.022 398.254C-191.882 411.471 -204.163 425.113 -201.461 440.253C-199.777 449.622 -191.636 458.917 -177.215 467.861C-165.039 475.431 -151.564 481.403 -137.213 485.625C-120.019 490.672 -103.387 493.22 -87.8427 493.22L-87.7725 493.22Z" fill="#BB9F73"/>
<path d="M-85.2114 250.346C-83.6324 250.346 -82.0182 250.396 -80.3691 250.521C-56.4734 252.27 -36.7534 256.817 -21.7352 264.012C-2.71697 273.107 6.93254 286.973 15.4592 299.19C18.3365 303.288 21.0032 307.16 23.9507 310.733C26.021 313.257 28.3018 315.73 30.8984 318.254C46.4779 333.344 64.4786 343.488 87.6023 350.209C90.62 351.083 93.7078 351.908 96.8307 352.732L100.62 353.732C114.551 357.454 127.99 362.201 132.13 371.695C133.99 375.943 133.639 380.74 131.078 385.912C129.288 389.634 126.446 393.357 122.691 396.93C117.954 401.427 112.375 405.275 106.48 409.322C103.638 411.296 100.691 413.295 97.8132 415.418C85.918 424.213 75.1457 434.706 64.7593 444.85C62.4083 447.174 60.0574 449.447 57.7064 451.721C33.3546 475.156 -5.17324 506.836 -58.1928 511.284C-82.8253 513.307 -109.282 509.285 -139.143 498.991C-157.705 492.595 -174.583 484.101 -189.321 473.707C-203.391 463.788 -211.181 454.219 -213.041 444.375C-216.374 426.911 -203.426 411.296 -190.865 396.23C-188.198 393.032 -185.461 389.734 -182.97 386.511C-182.443 385.812 -181.882 385.137 -181.32 384.437C-179.812 382.564 -178.373 380.79 -177.285 378.891C-174.899 374.669 -174.338 370.221 -173.706 365.499C-173.495 363.875 -173.285 362.251 -173.004 360.652C-170.583 347.011 -162.688 334.144 -155.004 321.726C-152.617 317.854 -150.161 313.831 -147.88 309.884C-145.88 306.336 -143.88 302.264 -141.775 297.916C-131.529 276.729 -118.721 250.371 -85.1412 250.371L-85.2114 250.346ZM-70.5091 508.81C-66.5089 508.81 -62.5087 508.66 -58.6489 508.335C-7.20836 504.038 30.5475 472.957 54.4431 449.947C56.7941 447.698 59.145 445.4 61.496 443.101C71.9876 432.857 82.7951 422.289 94.9008 413.37C97.8132 411.221 100.761 409.197 103.673 407.198C109.463 403.226 114.902 399.478 119.463 395.156C122.972 391.833 125.604 388.385 127.253 384.937C129.499 380.34 129.85 376.168 128.271 372.52C124.656 364.225 112.165 359.878 99.2168 356.43L95.4622 355.431C92.3042 354.606 89.1813 353.757 86.1286 352.882C62.268 345.936 43.7059 335.468 27.6702 319.953C24.9683 317.354 22.6173 314.806 20.4769 312.182C17.4592 308.535 14.7574 304.612 11.845 300.465C3.14292 287.997 -5.87499 275.105 -23.9809 266.411C-38.4376 259.49 -57.5612 255.118 -80.755 253.394C-82.2639 253.294 -83.7376 253.219 -85.1763 253.219C-115.844 253.219 -128.09 278.478 -137.915 298.791C-140.021 303.163 -142.021 307.285 -144.091 310.908C-146.372 314.906 -148.863 318.928 -151.249 322.826C-158.793 335.068 -166.583 347.71 -168.934 360.952C-169.215 362.526 -169.425 364.125 -169.636 365.699C-170.232 370.421 -170.864 375.318 -173.495 379.915C-174.689 382.014 -176.232 383.938 -177.776 385.812C-178.338 386.486 -178.864 387.161 -179.39 387.835C-181.917 391.108 -184.689 394.431 -187.356 397.629C-199.532 412.295 -212.129 427.436 -208.971 443.901C-207.216 453.07 -199.847 462.089 -186.408 471.533C-171.987 481.677 -155.46 489.997 -137.319 496.268C-112.932 504.688 -91.0713 508.76 -70.474 508.76L-70.5091 508.81Z" fill="#BB9F73"/>
<path d="M-82.1943 229.483C-77.8432 229.483 -73.2115 229.933 -68.4744 230.858C-45.1402 235.28 -23.5254 243.275 -5.94574 253.968C8.75658 262.913 19.1079 273.781 29.1433 284.324C36.1962 291.745 42.8983 298.765 50.6529 304.612C53.9162 307.06 57.4953 309.384 61.6007 311.732C79.812 322.101 102.339 330.396 136.972 339.44L139.849 340.19C143.814 341.214 147.815 342.263 151.78 343.388C171.64 349.009 182.623 356.155 185.43 365.224C187.009 370.296 185.851 375.743 181.956 381.389C179.149 385.536 175.044 389.509 169.815 393.157C164.447 396.904 158.587 400.027 152.376 403.35C147.429 405.974 142.341 408.697 137.498 411.77C121.463 421.964 109.006 435.63 96.9705 448.847L92.7598 453.469C50.1617 499.89 5.94943 524.175 -42.4033 527.723C-71.5623 529.822 -103.318 524.175 -139.846 510.309C-162.829 501.589 -182.795 490.696 -199.146 477.979C-211.919 468.035 -219.112 458.441 -221.112 448.647C-225.182 428.685 -210.129 409.821 -196.83 393.157L-195.041 390.908C-194.339 390.009 -193.602 389.134 -192.865 388.26C-191.041 386.086 -189.286 384.037 -188.058 381.814C-185.286 376.867 -185.005 371.595 -184.725 366.024C-184.619 363.9 -184.479 361.776 -184.233 359.678C-182.233 343.263 -171.671 328.197 -161.496 313.656C-158.197 308.934 -154.758 304.062 -151.706 299.24C-148.688 294.493 -145.846 288.497 -142.793 282.126C-131.6 258.69 -117.634 229.533 -82.2645 229.533L-82.1943 229.483ZM-54.2985 525C-50.4387 525 -46.5789 524.875 -42.8244 524.6C4.12481 521.152 47.2844 497.342 89.1105 451.745L93.3213 447.123C105.497 433.732 118.094 419.89 134.586 409.397C139.569 406.249 144.727 403.475 149.744 400.802C155.815 397.554 161.57 394.506 166.728 390.883C171.605 387.485 175.395 383.813 177.991 379.965C181.43 374.968 182.447 370.221 181.114 365.849C178.658 357.879 168.517 351.483 150.13 346.261C146.2 345.137 142.235 344.112 138.341 343.113L135.463 342.363C100.374 333.169 77.461 324.749 58.8638 314.156C54.5829 311.732 50.8635 309.309 47.4598 306.735C39.4595 300.689 32.6873 293.569 25.4941 286.048C15.6341 275.705 5.45824 264.986 -8.82302 256.317C-25.9114 245.923 -46.9298 238.153 -69.6324 233.856C-74.0185 233.031 -78.2643 232.606 -82.2293 232.606C-114.476 232.606 -127.845 260.589 -138.618 283.1C-141.705 289.521 -144.583 295.617 -147.671 300.489C-150.758 305.361 -154.197 310.283 -157.531 315.03C-167.566 329.321 -177.917 344.112 -179.847 359.927C-180.093 361.976 -180.198 364.05 -180.338 366.123C-180.654 371.72 -180.97 377.516 -183.988 382.938C-185.356 385.412 -187.286 387.66 -189.111 389.834C-189.812 390.683 -190.549 391.533 -191.251 392.407L-193.041 394.656C-206.62 411.67 -220.656 429.259 -216.796 448.148C-214.901 457.317 -208.094 466.361 -195.918 475.83C-179.882 488.298 -160.338 498.941 -137.775 507.511C-106.792 519.278 -79.4924 525 -54.3336 525L-54.2985 525Z" fill="#BB9F73"/>
<path d="M-78.195 208.321C-71.493 208.321 -64.2647 209.37 -56.7205 211.444C-33.4565 217.815 -11.7012 228.508 9.73818 244.174C20.1596 251.769 29.1775 260.114 37.9147 268.184C50.4415 279.777 62.2665 290.72 77.2847 298.84C81.7761 301.263 86.6534 303.487 92.2326 305.586C111.111 312.781 132.269 317.253 154.726 321.975C164.937 324.124 175.464 326.348 186.236 328.921C192.938 330.52 198.026 331.869 202.833 333.293C217.606 337.691 235.782 345.711 238.624 358.977C239.852 364.799 237.852 371.045 232.764 377.041C228.975 381.538 223.466 385.886 216.904 389.558C210.763 393.006 203.991 395.904 197.43 398.728C190.622 401.651 183.605 404.674 177.183 408.322C157.709 419.365 144.27 435.58 131.322 451.245L127.813 455.467C81.7409 510.758 29.8091 540.689 -26.544 544.387C-60.3698 546.586 -97.3888 539.29 -140.478 521.851C-168.479 510.508 -191.533 497.266 -208.937 482.451C-220.201 472.882 -227.008 463.013 -229.148 453.094C-233.815 431.782 -219.815 411.095 -207.077 395.48C-206.235 394.43 -205.323 393.406 -204.446 392.382C-202.27 389.858 -200.2 387.485 -198.761 384.911C-195.603 379.215 -195.568 373.119 -195.568 366.623C-195.568 364.074 -195.568 361.451 -195.357 358.877C-193.743 339.614 -180.515 322.275 -167.707 305.486C-163.532 300.014 -159.216 294.368 -155.391 288.746C-151.531 283.05 -147.882 275.354 -144.022 267.184C-131.601 240.926 -116.126 208.246 -78.16 208.246L-78.195 208.321ZM-38.4742 541.489C-34.6495 541.489 -30.7897 541.364 -27.0352 541.114C27.7389 537.516 78.4777 508.135 123.743 453.818L127.251 449.596C140.445 433.656 154.095 417.191 174.236 405.748C180.903 401.976 188.061 398.878 194.973 395.904C201.711 393.006 208.062 390.283 213.957 386.96C220.097 383.537 225.185 379.515 228.694 375.342C233.256 369.921 235.045 364.599 233.957 359.477C231.466 347.734 214.658 340.414 201.009 336.366C196.342 334.967 191.324 333.643 184.727 332.094C174.06 329.546 163.534 327.322 153.358 325.173C130.69 320.376 109.286 315.879 89.9869 308.509C84.1972 306.31 79.1093 304.012 74.4424 301.463C58.9682 293.093 46.9326 281.975 34.1953 270.183C25.5634 262.188 16.6157 253.918 6.36965 246.447C-14.6136 231.157 -35.8074 220.688 -58.4399 214.492C-65.4577 212.568 -72.1246 211.594 -78.2652 211.594C-112.898 211.594 -127.776 243.024 -139.706 268.259C-143.601 276.529 -147.321 284.324 -151.321 290.195C-155.18 295.867 -159.532 301.563 -163.742 307.06C-176.304 323.524 -189.287 340.539 -190.831 359.052C-191.042 361.551 -191.042 364.124 -191.042 366.598C-191.042 373.094 -191.042 379.814 -194.55 386.086C-196.165 388.959 -198.41 391.557 -200.621 394.106C-201.498 395.105 -202.34 396.104 -203.182 397.104C-215.534 412.244 -229.113 432.232 -224.692 452.519C-222.657 461.813 -216.2 471.158 -205.498 480.252C-188.445 494.768 -165.848 507.76 -138.303 518.903C-100.898 534.044 -68.2648 541.389 -38.5795 541.389L-38.4742 541.489Z" fill="#BB9F73"/>
<path d="M-73.5265 187.01C-64.7192 187.01 -55.1048 188.759 -44.964 192.181C-15.2085 202.225 7.35381 219.215 25.4598 234.53C31.5653 239.677 37.4953 245.049 43.2148 250.245C61.777 267.11 79.3215 283.025 103.989 293.269C109.744 295.667 115.919 297.766 122.937 299.665C141.71 304.761 161.605 307.36 182.659 310.108C199.993 312.382 217.923 314.705 235.538 318.578C242.31 320.077 248.31 321.626 253.89 323.35C276.276 330.271 290.102 341.039 291.786 352.882C292.698 359.527 289.821 366.423 283.505 372.869C278.663 377.791 271.925 382.388 263.96 386.136C256.977 389.434 249.398 392.157 242.065 394.781C233.538 397.854 224.696 401.002 216.8 405.099C194.098 416.842 179.852 435.38 166.132 453.319L162.763 457.692C112.761 522.501 54.3731 557.355 -10.8224 561.302C-14.7875 561.552 -18.8227 561.652 -22.8579 561.652C-58.5084 561.652 -96.124 552.757 -141.249 533.619C-175.215 519.228 -200.619 504.013 -218.866 487.148C-228.55 478.179 -234.936 468.035 -237.322 457.791C-241.498 439.778 -235.077 419.365 -219.252 400.302C-218.269 399.128 -217.251 397.979 -216.234 396.829C-213.672 393.956 -211.251 391.233 -209.602 388.235C-206.023 381.764 -206.304 374.793 -206.549 367.398C-206.655 364.424 -206.76 361.326 -206.619 358.303C-205.391 336.167 -189.461 316.504 -174.022 297.466C-169.004 291.27 -163.811 284.874 -159.249 278.528C-154.547 272.007 -150.161 262.663 -145.529 252.794C-131.739 223.462 -114.581 186.96 -73.5616 186.96L-73.5265 187.01ZM-22.8229 558.104C-18.928 558.104 -15.0331 557.979 -11.2084 557.754C52.1976 553.932 109.288 519.703 158.412 455.968L161.781 451.595C175.781 433.307 190.273 414.393 213.888 402.201C222.099 397.954 231.117 394.731 239.819 391.608C247.012 389.034 254.451 386.361 261.223 383.188C268.662 379.69 274.978 375.418 279.434 370.845C285.154 365.024 287.645 359.103 286.838 353.231C284.698 338.266 261.715 329.621 251.925 326.598C246.521 324.924 240.661 323.4 234.064 321.951C216.765 318.128 198.975 315.805 181.782 313.556C160.483 310.783 140.376 308.159 121.183 302.938C113.919 300.964 107.463 298.79 101.498 296.292C76.0582 285.723 58.2329 269.533 39.355 252.394C33.6706 247.222 27.7756 241.876 21.7403 236.779C3.95013 221.763 -18.1209 205.098 -47.0343 195.354C-56.5083 192.156 -65.421 190.532 -73.4915 190.532C-110.932 190.532 -127.458 225.686 -140.722 253.943C-145.424 263.937 -149.88 273.381 -154.723 280.152C-159.354 286.573 -164.583 293.019 -169.636 299.24C-184.759 317.903 -200.409 337.166 -201.567 358.428C-201.707 361.351 -201.602 364.374 -201.496 367.298C-201.216 374.718 -200.935 382.388 -204.865 389.509C-206.69 392.807 -209.356 395.805 -211.918 398.703C-212.9 399.827 -213.918 400.952 -214.865 402.076C-230.129 420.415 -236.305 439.977 -232.305 457.167C-230.059 466.836 -223.989 476.43 -214.795 484.95C-196.935 501.464 -172.022 516.38 -138.582 530.546C-94.2642 549.335 -57.4558 558.079 -22.7527 558.079L-22.8229 558.104Z" fill="#BB9F73"/>
<path d="M-68.4039 165.624C-57.6316 165.624 -45.8066 168.097 -33.1745 172.969C0.651354 186.061 23.74 208.172 46.0917 229.559C69.6365 252.095 93.9532 275.381 130.762 287.773C157.71 296.842 188.483 298.891 218.204 300.865C247.503 302.814 277.82 304.837 305.049 313.482C329.015 321.102 343.963 333.594 345.051 346.861C346.138 360.228 333.436 373.645 311.155 382.739C303.26 385.962 294.803 388.56 286.592 391.059C276.381 394.182 265.82 397.43 256.556 401.852C230.695 414.219 215.712 435.056 201.256 455.194L197.852 459.916C160.868 511.009 97.3919 573.021 5.07251 578.192C1.03726 578.417 -3.10325 578.542 -7.20867 578.542C-47.4909 578.542 -90.2645 568.024 -141.81 545.413C-169.461 533.295 -204.269 516.256 -228.586 491.846C-252.446 467.911 -253.534 431.434 -231.217 405.125C-230.13 403.851 -229.007 402.602 -227.884 401.352C-224.936 398.079 -222.164 395.006 -220.27 391.583C-216.269 384.338 -216.796 376.493 -217.357 368.198C-217.568 364.775 -217.813 361.227 -217.708 357.779C-216.901 332.745 -198.198 310.734 -180.128 289.447C-174.268 282.551 -168.232 275.431 -162.934 268.36C-157.46 261.039 -152.337 250.146 -146.933 238.603C-131.67 206.074 -112.686 165.574 -68.4391 165.574L-68.4039 165.624ZM-7.20867 574.82C-3.2436 574.82 0.75657 574.72 4.65146 574.495C94.5497 569.473 156.763 508.511 193.15 458.242L196.554 453.52C211.326 432.958 226.59 411.696 253.608 398.779C263.293 394.157 274.065 390.834 284.487 387.636C292.522 385.162 300.838 382.614 308.488 379.491C324.348 373.02 340.875 361.102 339.752 347.086C338.805 335.243 325.015 323.95 302.874 316.905C276.452 308.485 246.591 306.511 217.677 304.587C187.466 302.589 156.271 300.515 128.481 291.146C90.4794 278.354 65.7416 254.668 41.8459 231.783C19.8451 210.721 -2.89265 188.934 -35.7009 176.242C-47.526 171.67 -58.5439 169.346 -68.4039 169.346C-108.897 169.346 -127.213 208.422 -141.916 239.803C-147.389 251.495 -152.583 262.539 -158.267 270.134C-163.636 277.304 -169.741 284.475 -175.601 291.396C-193.321 312.258 -211.638 333.844 -212.41 357.854C-212.515 361.202 -212.304 364.675 -212.059 368.023C-211.497 376.343 -210.936 384.962 -215.322 392.958C-217.392 396.73 -220.445 400.103 -223.428 403.376C-224.515 404.6 -225.638 405.825 -226.691 407.049C-247.639 431.733 -246.586 467.236 -224.27 489.647C-200.514 513.483 -166.232 530.247 -139.038 542.19C-88.3697 564.401 -46.4733 574.77 -7.17354 574.77L-7.20867 574.82Z" fill="#BB9F73"/>
<path d="M-139.81 -0.098902C-118.581 -0.0989001 -92.7554 2.54945 -70.7897 6.99669C-30.332 15.1916 -12.4717 28.7831 14.5118 49.3703C36.3373 66.01 68.4438 75.9788 100.375 76.0788L100.831 76.0788C106.586 76.0788 112.551 75.8039 118.305 75.5291C124.165 75.2543 130.236 74.9544 136.131 74.9544C148.061 74.9544 157.359 76.1787 165.395 78.8271C183.852 84.8983 194.343 97.7903 204.519 110.283C206.028 112.156 207.537 114.005 209.046 115.804C236.661 148.684 278.873 175.492 327.892 191.232L331.647 192.432C341.788 195.63 352.244 198.927 359.753 204.999C367.438 211.22 369.929 218.815 372.28 226.186C374.666 233.606 376.947 240.602 384.281 245.923C391.333 251.045 400.386 254.968 409.931 259.14C413.51 260.689 417.124 262.263 420.633 263.912C428.563 267.61 434.177 270.833 438.949 274.331C475.723 301.414 498.917 338.316 502.776 375.493C505.338 400.377 498.671 421.914 483.512 437.804C468.564 453.444 445.721 463.688 423.615 473.582C408.632 480.303 393.158 487.248 380.28 495.793C361.999 507.96 348.7 523.476 335.858 538.491C319.471 557.63 304.172 577.967 312.313 597.83C315.05 604.475 320.173 610.347 325.612 616.543C327.612 618.842 329.647 621.115 331.507 623.464C347.753 643.601 351.016 670.41 339.823 691.721C331.612 707.337 316.839 718.18 297.049 723.077C289.084 725.051 280.803 726 271.715 726C250.135 726 228.239 720.503 207.081 715.182C202.273 713.982 197.501 712.783 192.764 711.659C151.008 701.74 104.971 696.918 51.9869 696.918C46.513 696.918 41.0391 696.968 35.5652 697.068C29.6352 697.168 23.5297 697.343 17.2838 697.518C5.42373 697.842 -6.85744 698.167 -19.279 698.167C-55.9821 698.167 -102.159 695.444 -133.81 674.257C-143.354 667.861 -151.424 660.716 -159.214 653.82C-169.706 644.526 -180.548 634.907 -194.97 627.286C-211.918 618.317 -230.796 611.046 -249.077 604.001C-278.693 592.583 -309.325 580.765 -332.344 561.452C-362.45 536.193 -383.749 505.787 -393.96 473.482L-394.662 471.233C-396.171 466.361 -397.715 461.314 -400.873 456.917C-402.031 455.293 -403.399 453.744 -404.838 452.095C-407.224 449.397 -409.68 446.623 -411.119 443.45C-414.487 436.055 -411.856 427.086 -403.996 419.44C-397.153 412.77 -387.784 407.948 -378.696 403.275C-367.608 397.579 -357.327 396.804 -346.379 395.98C-340.204 395.505 -333.817 395.031 -327.115 393.581C-308.238 389.459 -293.605 384.287 -283.535 378.191C-253.288 359.827 -245.744 329.746 -243.954 313.456C-240.726 284.174 -246.34 266.885 -267.113 242.275C-288.482 216.941 -282.412 182.138 -252.937 161.301C-250.832 159.802 -248.586 158.378 -246.375 156.954C-241.744 153.98 -237.393 151.182 -233.954 147.784C-222.55 136.491 -223.918 121.351 -225.217 106.735L-225.497 103.662C-226.936 86.5972 -226.304 69.3079 -223.568 52.3185C-221.392 38.652 -217.111 23.2865 -202.198 13.0679C-189.426 4.32332 -168.407 -0.0989045 -139.705 -0.098902L-139.81 -0.098902ZM100.866 79.8264L100.41 79.8264C67.0402 79.7515 33.495 69.308 10.7222 51.9437C-15.6648 31.8063 -33.1391 18.5145 -72.1582 10.6194C-80.2286 8.9954 -108.967 3.64877 -139.74 3.64877C-166.618 3.64877 -186.97 7.84612 -198.584 15.7912C-212.304 25.1853 -216.304 39.7513 -218.374 52.7682C-221.076 69.5328 -221.708 86.5972 -220.269 103.462L-219.988 106.51C-218.69 121.101 -217.216 137.616 -229.708 149.983C-233.463 153.706 -238.27 156.779 -242.867 159.752C-245.042 161.151 -247.183 162.525 -249.253 163.974C-276.587 183.287 -282.482 216.841 -262.622 240.352C-241.463 265.436 -235.428 283.95 -238.726 313.756C-240.586 330.621 -248.481 361.826 -280.166 381.039C-290.904 387.56 -305.781 392.832 -325.607 397.179C-332.765 398.753 -339.432 399.253 -345.853 399.728C-356.064 400.502 -365.713 401.227 -375.644 406.324C-384.381 410.821 -393.399 415.443 -399.75 421.664C-406.592 428.335 -408.943 436.055 -406.101 442.301C-404.838 445.024 -402.662 447.498 -400.381 450.096C-398.943 451.745 -397.434 453.419 -396.171 455.218C-392.732 460.04 -391.118 465.312 -389.539 470.434L-388.837 472.657C-378.802 504.363 -357.853 534.244 -328.308 559.029C-305.922 577.792 -277.078 588.935 -246.551 600.703C-228.129 607.798 -209.076 615.144 -191.812 624.288C-176.864 632.208 -165.776 642.002 -155.074 651.471C-147.389 658.292 -139.424 665.313 -130.16 671.534C-99.8435 691.821 -54.9646 694.42 -19.2439 694.42C-6.89255 694.42 5.31843 694.095 17.1435 693.77C23.4244 693.595 29.565 693.445 35.495 693.32C41.004 693.22 46.513 693.17 52.0571 693.17C105.603 693.17 152.201 698.067 194.519 708.111C199.291 709.235 204.063 710.46 208.905 711.659C229.643 716.881 251.117 722.252 271.785 722.252C280.276 722.252 288.031 721.378 295.4 719.529C318.453 713.833 329.647 700.541 334.98 690.397C345.647 670.085 342.524 644.526 327.015 625.313C325.155 623.014 323.19 620.765 321.225 618.517C315.822 612.371 310.243 606.025 307.33 598.879C298.593 577.542 315.19 555.531 331.436 536.543C344.489 521.302 357.964 505.562 376.771 493.045C390 484.25 405.72 477.205 420.914 470.384C443.546 460.24 464.915 450.671 479.232 435.655C497.548 416.492 499.338 392.482 497.618 375.743C493.864 339.415 471.196 303.388 435.405 276.879C430.949 273.581 425.58 270.533 418.001 266.985C414.527 265.361 410.948 263.812 407.439 262.263C398.035 258.166 388.281 253.918 380.772 248.497C372.385 242.425 369.824 234.555 367.368 226.96C365.017 219.74 362.806 212.919 355.999 207.422C349.262 201.976 339.296 198.853 329.717 195.804L325.927 194.605C275.89 178.54 232.871 151.232 204.73 117.678C203.186 115.854 201.677 113.98 200.133 112.106C190.378 100.139 180.308 87.7465 163.36 82.175C156.026 79.7765 147.429 78.6522 136.271 78.6522C130.516 78.6522 124.551 78.927 118.797 79.2018C112.937 79.4767 106.866 79.7764 100.971 79.7764L100.866 79.8264Z" fill="#BB9F73"/>
<path d="M-113.702 33.2313C-101.246 33.2313 -87.9119 34.0058 -76.1922 35.4049C-39.3837 39.8272 -20.4708 51.4949 6.3022 70.1832C28.5487 85.6986 58.0235 95.8923 87.2176 98.1409C92.4809 98.5407 97.9548 98.7155 103.253 98.8904C117.745 99.3651 132.728 99.8399 146.237 105.037C162.624 111.333 172.8 123.1 182.625 134.493C184.344 136.467 186.028 138.466 187.783 140.39C201.889 156.18 219.117 170.096 238.978 181.714C258.452 193.132 280.488 202.451 304.489 209.397L308.454 210.521C318.069 213.244 327.999 216.068 335.508 221.114C343.227 226.311 346.631 232.732 349.894 238.953C353.228 245.275 356.386 251.271 363.86 255.893C370.737 260.14 379.088 263.513 387.931 267.061C391.791 268.61 395.756 270.209 399.616 271.908C404.142 273.882 407.967 275.756 411.3 277.579C413.511 278.804 415.616 280.078 417.476 281.377C435.652 293.769 449.863 308.31 458.565 323.401C467.232 338.417 471.057 355.306 470.636 376.543C470.355 391.234 467.969 412.72 450.775 429.66C437.336 442.902 417.441 451.721 398.177 460.266C384.808 466.187 370.983 472.333 359.403 479.879C342.912 490.672 330.56 504.688 319.683 517.056C305.717 532.921 291.331 551.334 297.436 568.898C299.471 574.745 303.507 579.892 307.787 585.363C309.366 587.362 310.945 589.386 312.419 591.434C324.806 608.624 326.806 630.685 317.612 649.024C310.454 663.29 297.576 673.658 280.278 679.03C267.961 682.853 254.382 684.726 238.837 684.726C223.293 684.726 208.205 682.978 193.257 681.279C190.064 680.929 186.906 680.554 183.748 680.204C157.606 677.381 128.377 676.057 91.7791 676.057C71.0765 676.057 50.0933 676.482 30.4785 676.931C26.1625 677.031 21.7764 677.156 17.285 677.281C6.09161 677.606 -5.4527 677.931 -17.2075 677.931C-50.1211 677.931 -91.6665 675.582 -120.931 657.169C-129.703 651.647 -137.247 645.451 -144.511 639.455C-154.16 631.509 -164.125 623.315 -177.038 616.719C-192.302 608.899 -209.004 602.353 -225.145 596.007C-251.462 585.663 -278.656 574.995 -300.306 558.58C-315.394 547.137 -332.553 533.246 -345.396 516.931C-358.975 499.616 -363.712 479.504 -366.554 462.115C-367.431 456.743 -369.221 451.971 -371.853 447.924C-372.765 446.524 -373.853 445.175 -375.011 443.751C-376.906 441.428 -378.871 439.029 -379.993 436.281C-382.59 429.935 -380.169 422.215 -373.502 415.644C-367.818 410.022 -360.028 405.825 -352.519 401.777L-351.992 401.502C-342.588 396.431 -333.535 395.331 -324.763 394.282C-319.57 393.657 -314.166 393.008 -308.552 391.534C-292.587 387.361 -280.691 382.564 -272.2 376.893C-261.848 369.972 -253.638 360.653 -247.813 349.135C-243.216 340.041 -240.234 329.922 -238.935 319.079C-235.918 293.37 -240.409 277.454 -256.726 256.018C-273.638 233.782 -267.287 203.101 -242.023 184.687C-240.163 183.338 -238.234 182.064 -236.304 180.765C-232.268 178.091 -228.479 175.568 -225.461 172.545C-215.391 162.476 -215.952 149.209 -216.513 136.392L-216.619 133.594C-217.215 117.904 -216.022 102.713 -213.145 88.4969C-210.724 76.6293 -206.267 61.6886 -192.898 51.1951C-174.021 36.4043 -139.423 33.2812 -113.702 33.2812L-113.702 33.2313ZM238.802 681.578C253.75 681.578 266.733 679.804 278.488 676.157C298.875 669.811 308.735 657.318 313.437 647.949C322.209 630.41 320.314 609.298 308.489 592.834C307.051 590.835 305.507 588.836 303.928 586.862C299.682 581.466 295.296 575.869 293.155 569.623C286.664 550.885 301.506 531.796 315.963 515.382C326.981 502.839 339.508 488.623 356.421 477.555C368.281 469.81 382.282 463.589 395.826 457.568C415.581 448.798 434.248 440.528 447.196 427.786C459.723 415.444 465.793 399.129 466.215 376.468C466.601 355.656 462.881 339.166 454.46 324.55C446.003 309.859 432.143 295.693 414.388 283.601C412.598 282.401 410.633 281.177 408.528 280.003C405.335 278.229 401.651 276.455 397.265 274.531C393.475 272.882 389.51 271.283 385.685 269.734C376.632 266.087 368.106 262.664 360.912 258.191C352.596 253.045 349.122 246.424 345.719 240.003C342.491 233.857 339.403 228.06 332.42 223.338C325.542 218.691 315.998 215.993 306.77 213.369L302.77 212.22C278.348 205.149 255.926 195.68 236.1 184.038C215.889 172.195 198.345 158.054 183.993 141.964C182.239 140.015 180.519 138.016 178.8 136.017C169.291 124.999 159.431 113.581 144.062 107.685C131.43 102.838 117.605 102.388 102.973 101.914C97.6039 101.739 92.0949 101.564 86.6561 101.139C56.5146 98.8155 26.0574 88.322 3.14421 72.3069C-25.4183 52.3693 -42.647 42.5005 -77.0343 38.3781C-88.5085 37.0039 -101.562 36.2294 -113.808 36.2294C-134.124 36.2294 -171.003 38.428 -189.74 53.1189C-202.302 62.9627 -206.583 77.3288 -208.899 88.7467C-211.741 102.813 -212.899 117.804 -212.338 133.319L-212.233 136.117C-211.671 149.459 -211.11 163.25 -222.022 174.169C-225.321 177.467 -229.461 180.215 -233.461 182.863C-235.356 184.112 -237.251 185.362 -239.041 186.686C-263.041 204.175 -269.042 233.257 -253.041 254.344C-236.269 276.405 -231.672 292.745 -234.76 319.154C-236.058 330.272 -239.146 340.64 -243.883 350.009C-249.953 361.977 -258.515 371.746 -269.393 378.991C-278.305 384.963 -290.692 389.96 -307.219 394.307C-313.219 395.881 -318.798 396.555 -324.202 397.205C-332.834 398.254 -340.974 399.229 -349.536 403.851L-350.062 404.126C-357.326 408.048 -364.835 412.096 -370.133 417.343C-376.028 423.139 -378.204 429.835 -375.993 435.281C-375.011 437.655 -373.291 439.779 -371.432 442.052C-370.274 443.476 -369.081 444.925 -368.063 446.474C-365.221 450.822 -363.326 455.919 -362.379 461.615C-359.607 478.704 -354.975 498.442 -341.746 515.282C-329.149 531.297 -312.201 545.013 -297.288 556.306C-276.13 572.346 -249.216 582.915 -223.215 593.133C-206.969 599.529 -190.162 606.125 -174.652 614.045C-161.353 620.866 -151.213 629.211 -141.388 637.281C-134.194 643.202 -126.756 649.298 -118.194 654.695C-90.0524 672.409 -49.5246 674.683 -17.383 674.683C-5.73342 674.683 5.77579 674.358 16.9341 674.058C21.4255 673.933 25.8467 673.808 30.1627 673.708C49.8126 673.259 70.866 672.834 91.6036 672.834C128.447 672.834 157.887 674.158 184.239 677.031C187.432 677.381 190.59 677.731 193.783 678.106C208.555 679.779 223.819 681.503 238.662 681.503L238.802 681.578Z" fill="#BB9F73"/>
<path d="M-86.7211 63.8117C-84.9666 63.8117 -83.2473 63.8117 -81.5981 63.8617C-49.1056 64.5862 -30.0171 73.2059 -1.91074 91.0198C20.8972 105.486 47.8456 115.854 73.9869 120.227C78.6187 121.001 83.3557 121.601 87.9524 122.2C101.076 123.899 114.655 125.648 126.936 131.22C141.253 137.691 151.007 148.309 160.411 158.553C162.411 160.702 164.376 162.85 166.376 164.949C180.763 179.99 197.781 192.882 217.01 203.225C235.677 213.319 257.187 221.514 280.942 227.585L285.223 228.659C294.276 230.933 303.68 233.256 311.119 237.304C318.874 241.526 323.189 246.773 327.33 251.845C331.611 257.067 335.646 262.014 343.225 265.936C349.752 269.309 357.296 272.082 365.296 275.006C369.612 276.58 374.069 278.229 378.385 279.977C382.701 281.726 386.42 283.4 389.718 285.074C391.894 286.174 393.929 287.348 395.789 288.497C414.702 300.265 428.351 313.981 435.299 328.173C443.37 344.637 441.369 360.952 438.387 377.592C435.65 392.907 431.825 408.922 417.965 421.515C406.07 432.333 389.122 439.753 372.735 446.899C360.945 452.046 348.734 457.392 338.453 463.963C324.839 472.658 314.558 483.451 303.469 495.643C291.223 509.085 278.486 524.725 282.521 539.966C283.855 544.988 286.802 549.46 289.925 554.182C291.083 555.906 292.206 557.63 293.258 559.379C300.908 571.996 302.417 587.362 297.399 601.503C292.03 616.618 279.96 628.486 263.398 634.957C233.502 646.575 203.571 647.649 174.587 648.698C154.06 649.423 132.726 650.822 110.129 652.321C82.7591 654.12 54.4773 655.969 25.2832 656.793L17.5987 657.018C6.96672 657.343 -4.01621 657.668 -15.2096 657.668C-44.3336 657.668 -81.2472 655.669 -108.125 640.054C-116.161 635.382 -123.214 630.11 -129.986 625.038C-138.758 618.467 -147.811 611.696 -159.145 606.125C-172.549 599.554 -186.971 593.832 -200.936 588.286C-224.235 579.042 -248.377 569.473 -268.342 555.656C-287.536 542.389 -307.361 528.673 -321.643 511.708C-336.941 493.495 -338.661 470.709 -339.082 450.746C-339.152 447.049 -340.415 443.051 -342.801 438.854C-343.468 437.654 -344.31 436.53 -345.152 435.331C-346.591 433.357 -348.029 431.333 -348.837 429.035C-350.661 423.763 -348.451 417.292 -342.942 411.771C-338.38 407.223 -332.31 403.701 -326.415 400.303L-325.186 399.603C-317.467 395.131 -310.133 393.782 -303.08 392.458C-298.835 391.658 -294.448 390.859 -289.852 389.359C-277.044 385.187 -267.535 380.615 -260.763 375.443C-252.552 369.197 -245.99 360.902 -241.288 350.808C-237.569 342.838 -235.078 334.019 -233.885 324.575C-231.078 302.064 -234.2 288.197 -246.271 269.634C-258.938 250.171 -252.517 224.212 -231.042 207.922C-229.463 206.723 -227.814 205.574 -226.165 204.424C-222.726 202.051 -219.498 199.777 -216.866 197.104C-208.164 188.259 -207.919 176.866 -207.673 165.873L-207.603 163.35C-207.217 148.934 -205.568 136.242 -202.585 124.474C-199.813 113.606 -195.111 99.7394 -183.391 89.096C-162.864 70.3826 -119.95 63.7118 -86.6509 63.7118L-86.7211 63.8117ZM-15.1745 655.169C-4.05126 655.169 6.89655 654.845 17.4934 654.52L25.178 654.295C54.3019 653.495 82.5486 651.622 109.848 649.823C132.48 648.324 153.85 646.924 174.447 646.2C203.009 645.176 232.554 644.126 261.748 632.783C296.171 619.392 304.312 583.889 290.065 560.403C289.013 558.679 287.89 556.98 286.767 555.281C283.679 550.609 280.486 545.787 279.082 540.441C274.837 524.276 287.925 508.136 300.557 494.294C311.786 481.952 322.207 471.034 336.137 462.114C346.629 455.393 358.98 449.997 370.911 444.8C387.788 437.43 403.719 430.459 415.228 419.99C428.562 407.873 432.141 392.882 434.948 377.292C437.861 360.952 439.826 344.962 432.001 328.997C425.264 315.206 411.93 301.864 393.473 290.371C391.683 289.272 389.753 288.172 387.648 287.098C384.455 285.474 380.841 283.85 376.63 282.126C372.384 280.402 367.963 278.778 363.682 277.204C355.577 274.231 347.927 271.433 341.155 267.935C332.979 263.713 328.558 258.316 324.277 253.094C320.102 247.997 316.172 243.2 308.943 239.278C301.961 235.48 292.837 233.207 284.03 231.008L279.714 229.934C255.608 223.787 233.783 215.468 214.834 205.224C195.325 194.705 177.991 181.639 163.429 166.373C161.394 164.274 159.429 162.101 157.429 159.927C148.235 149.908 138.691 139.515 125.006 133.344C113.287 128.047 100.655 126.423 87.2506 124.674C82.6188 124.074 77.8116 123.45 73.1097 122.675C46.4069 118.228 18.9321 107.659 -4.29682 92.9186C-31.7365 75.5044 -50.3337 67.0847 -81.7384 66.3851C-83.3525 66.3601 -85.0368 66.3352 -86.7562 66.3352C-119.214 66.3352 -160.97 72.7561 -180.725 90.745C-191.953 100.964 -196.515 114.43 -199.217 125.024C-202.199 136.641 -203.813 149.209 -204.199 163.475L-204.269 165.998C-204.515 177.391 -204.761 189.159 -214.094 198.628C-216.902 201.501 -220.41 203.925 -223.814 206.298C-225.428 207.422 -227.042 208.547 -228.586 209.696C-249.148 225.286 -255.289 250.071 -243.183 268.659C-230.972 287.423 -227.639 302.139 -230.481 324.875C-231.709 334.519 -234.271 343.538 -238.06 351.683C-242.938 362.151 -249.745 370.746 -258.307 377.242C-265.395 382.664 -275.255 387.411 -288.518 391.733C-293.361 393.307 -297.922 394.156 -302.308 394.981C-309.326 396.28 -315.993 397.529 -323.116 401.652L-324.344 402.351C-330.029 405.649 -335.959 409.047 -340.205 413.32C-345.152 418.266 -347.152 423.938 -345.538 428.535C-344.836 430.534 -343.538 432.358 -342.135 434.282C-341.257 435.481 -340.38 436.705 -339.643 438.004C-337.082 442.476 -335.748 446.774 -335.643 450.796C-335.222 470.409 -333.538 492.82 -318.695 510.509C-304.659 527.174 -284.974 540.79 -265.956 553.932C-246.306 567.524 -222.411 576.993 -199.287 586.162C-185.251 591.734 -170.759 597.48 -157.215 604.126C-145.601 609.848 -136.407 616.718 -127.495 623.364C-120.758 628.386 -113.81 633.608 -105.95 638.18C-79.9139 653.296 -43.8072 655.244 -15.2447 655.244L-15.1745 655.169Z" fill="#BB9F73"/>
<path d="M-74.4387 91.7194C-53.5256 91.7194 -35.4898 97.3659 -10.0853 111.882C13.8805 125.573 38.3727 136.117 60.6542 142.313C64.514 143.387 68.4089 144.362 72.2687 145.336C84.1289 148.309 96.41 151.382 107.639 157.404C119.814 163.925 128.973 173.269 137.815 182.288C140.201 184.737 142.587 187.185 145.043 189.559C159.676 203.825 176.553 215.667 195.151 224.762C213.222 233.656 233.643 240.527 257.539 245.774C259.153 246.124 260.732 246.473 262.346 246.823C270.803 248.622 279.54 250.496 286.873 253.544C294.698 256.817 299.927 260.939 305.015 264.887C309.997 268.784 315.155 272.832 322.805 276.005C328.735 278.478 335.191 280.577 342.034 282.826C347.051 284.475 352.244 286.174 357.297 288.047C361.438 289.572 365.052 291.071 368.315 292.595C370.421 293.569 372.421 294.593 374.28 295.643C387.86 303.263 405.439 315.905 412.212 332.945C418.317 348.31 412.457 363.076 407.334 376.118L406.352 378.641C405.861 379.89 405.404 381.115 404.913 382.389C400.808 393.182 396.527 404.35 385.404 413.42C375.123 421.814 361.157 427.786 347.648 433.582C337.367 437.979 326.77 442.526 317.752 448.123C305.786 455.543 296.593 464.738 287.505 474.282C276.241 486.099 266.031 498.742 267.82 511.109C268.417 515.331 270.311 519.129 272.276 523.126C272.978 524.551 273.68 525.975 274.312 527.424C283.365 547.586 275.505 576.893 246.661 590.984C222.134 603.002 197.852 610.822 165.5 617.193C118.2 626.512 71.4616 635.007 20.3018 636.706L19.2491 636.706C8.86273 637.081 -1.90961 637.43 -12.9276 637.43C-38.2268 637.43 -70.4386 635.781 -95.1062 622.964C-102.475 619.117 -109.072 614.769 -115.458 610.572C-123.283 605.4 -131.388 600.079 -141.073 595.556C-152.337 590.335 -164.302 585.588 -175.846 581.015C-196.514 572.82 -217.918 564.326 -236.234 552.733L-240.866 549.81C-261.428 536.843 -282.692 523.426 -297.746 506.512C-314.378 487.773 -319.782 461.49 -311.501 439.528L-311.676 438.304C-312.062 435.456 -312.448 432.508 -313.641 429.884C-314.097 428.91 -314.659 427.96 -315.22 427.011C-316.167 425.412 -317.15 423.763 -317.606 421.914C-318.694 417.617 -316.764 412.57 -312.343 408.023C-308.904 404.525 -304.448 401.702 -300.132 398.978L-298.377 397.854C-292.377 394.032 -286.833 392.433 -281.464 390.859C-278.131 389.884 -274.692 388.885 -271.148 387.361C-261.569 383.213 -254.411 378.916 -249.288 374.169C-243.217 368.572 -238.305 361.327 -234.726 352.632C-231.919 345.837 -229.918 338.291 -228.796 330.196C-226.199 311.083 -228.024 298.841 -235.778 283.4C-244.13 266.811 -237.638 245.399 -220.023 231.308C-218.725 230.258 -217.357 229.259 -215.988 228.235C-213.286 226.236 -210.514 224.162 -208.268 221.864C-200.9 214.243 -199.882 204.724 -198.865 195.505L-198.619 193.281C-197.18 180.389 -195.075 170.021 -192.057 160.652C-188.829 150.658 -183.846 137.841 -173.916 127.172C-155.214 107.035 -116.721 95.1673 -86.8603 92.319C-82.4741 91.8943 -78.4038 91.6944 -74.4036 91.6944L-74.4387 91.7194ZM-12.9978 635.557C-2.04999 635.557 8.68729 635.207 19.0386 634.857L20.0912 634.857C70.9704 633.133 117.534 624.663 164.693 615.369C196.73 609.048 220.766 601.303 245.082 589.41C269.575 577.418 281.54 549.86 271.715 527.948C271.083 526.524 270.382 525.1 269.68 523.701C267.75 519.754 265.715 515.681 265.083 511.234C263.223 498.267 273.645 485.275 285.189 473.157C294.383 463.513 303.681 454.219 315.892 446.649C325.085 440.952 335.788 436.355 346.174 431.933C360.104 425.962 373.298 420.34 383.298 412.145C394.036 403.401 398.211 392.433 402.246 381.864C402.738 380.615 403.194 379.366 403.685 378.117L404.668 375.593C409.966 362.176 415.475 348.285 409.545 333.444C402.983 316.905 385.79 304.562 372.526 297.117C370.736 296.117 368.806 295.118 366.771 294.169C363.578 292.695 360.069 291.22 355.999 289.721C351.016 287.873 345.858 286.174 340.876 284.55C333.963 282.301 327.436 280.152 321.401 277.654C313.436 274.331 308.137 270.184 303.014 266.186C297.856 262.139 292.979 258.316 285.505 255.193C278.452 252.245 269.855 250.421 261.574 248.647C259.96 248.297 258.346 247.947 256.732 247.598C232.591 242.301 211.923 235.33 193.642 226.336C174.799 217.117 157.746 205.124 142.903 190.683C140.447 188.309 138.061 185.861 135.64 183.387C126.902 174.468 117.885 165.249 106.024 158.928C95.1117 153.106 83.6025 150.208 71.3564 147.135C67.4615 146.161 63.5666 145.186 59.6718 144.087C37.1446 137.816 12.4419 127.197 -11.7696 113.381C-36.6477 99.1648 -54.2274 93.6182 -74.4738 93.6182C-78.3336 93.6182 -82.2987 93.8181 -86.5795 94.2178C-115.844 97.0161 -153.565 108.609 -171.811 128.247C-181.495 138.665 -186.408 151.282 -189.601 161.126C-192.619 170.396 -194.689 180.689 -196.128 193.481L-196.373 195.68C-197.391 205.149 -198.444 214.918 -206.233 222.963C-208.584 225.386 -211.462 227.51 -214.234 229.584C-215.567 230.583 -216.9 231.558 -218.199 232.607C-235.217 246.198 -241.463 266.861 -233.427 282.826C-225.532 298.541 -223.673 311.008 -226.304 330.421C-227.462 338.616 -229.497 346.261 -232.34 353.182C-236.024 362.101 -241.077 369.547 -247.323 375.343C-252.656 380.265 -260.06 384.712 -269.885 388.985C-273.604 390.584 -277.148 391.633 -280.587 392.632C-285.991 394.206 -291.079 395.681 -296.728 399.278L-298.518 400.403C-302.728 403.051 -307.044 405.799 -310.307 409.122C-314.343 413.245 -316.132 417.792 -315.15 421.614C-314.729 423.263 -313.851 424.737 -312.939 426.336C-312.343 427.336 -311.781 428.335 -311.29 429.36C-309.992 432.183 -309.606 435.231 -309.185 438.179L-308.974 439.728L-309.044 439.903C-317.22 461.44 -311.957 487.199 -295.675 505.562C-280.833 522.252 -259.709 535.594 -239.287 548.461L-234.655 551.384C-216.55 562.827 -195.321 571.271 -174.758 579.416C-163.179 584.014 -151.179 588.761 -139.845 594.032C-129.985 598.629 -121.809 604.026 -113.879 609.223C-107.563 613.395 -101.001 617.718 -93.7377 621.49C-69.7017 634.008 -38.0163 635.607 -13.103 635.607L-12.9978 635.557Z" fill="#BB9F73"/>
<path d="M-70.1242 118.078C-54.2289 118.078 -38.2283 122.6 -18.2626 132.794L-12.2974 135.842C7.42262 145.911 27.8444 156.304 47.1785 164.449C49.9506 165.623 52.7226 166.748 55.4946 167.872C66.4424 172.319 77.7411 176.916 88.2328 183.612C98.0577 189.883 106.304 197.754 114.269 205.374C117.322 208.297 120.515 211.345 123.673 214.218C138.796 227.835 155.007 238.328 173.218 246.348C190.412 253.944 210.308 259.74 234.028 264.012C235.958 264.362 237.923 264.712 239.888 265.037C247.572 266.361 255.537 267.76 262.59 269.859C270.661 272.257 276.977 275.28 283.082 278.204C288.837 280.952 294.802 283.8 302.276 286.174C306.978 287.673 311.82 289.022 316.943 290.471C323.259 292.245 329.786 294.069 336.102 296.192C340.067 297.517 343.541 298.816 346.769 300.165C348.804 301.014 350.769 301.914 352.629 302.838C372.244 312.657 385.121 325.024 388.911 337.717C393.297 352.357 384.069 365.449 375.928 376.967L374.068 379.616C372.84 381.389 371.647 383.213 370.454 385.062C365.893 392.083 361.191 399.328 352.594 405.275C344.032 411.246 333.154 415.743 322.628 420.09C313.785 423.738 304.662 427.536 296.802 432.208C286.416 438.354 278.17 446.099 271.257 452.845C262.345 461.565 253.186 471.883 252.836 482.127C252.695 485.575 253.502 488.698 254.309 492.021C254.59 493.12 254.871 494.244 255.081 495.369C259.046 513.532 248.344 535.244 229.642 546.987C202.237 564.201 181.394 576.043 155.99 585.662C104.9 605.025 60.1264 614.844 15.1422 616.618C8.0191 616.893 -1.3848 617.218 -10.8238 617.218C-42.1583 617.218 -64.8609 613.62 -82.3002 605.875C-89.2128 602.827 -95.5288 599.329 -101.669 595.931C-108.371 592.208 -115.319 588.386 -123.179 585.013C-131.741 581.365 -140.653 577.867 -149.25 574.494C-167.953 567.174 -187.322 559.604 -204.27 549.835L-209.217 546.986C-232.692 533.52 -256.974 519.578 -273.957 501.34C-292.835 481.002 -296.835 451.721 -283.957 428.385L-283.957 427.336C-283.957 425.187 -283.992 422.964 -284.554 420.94C-284.764 420.165 -285.045 419.441 -285.326 418.691C-285.782 417.442 -286.273 416.168 -286.413 414.769C-286.764 411.546 -285.045 407.723 -281.746 404.225C-279.396 401.752 -276.483 399.628 -273.641 397.604C-272.939 397.105 -272.237 396.58 -271.536 396.08C-267.395 393.032 -263.711 391.233 -260.132 389.509C-257.5 388.235 -255.009 387.011 -252.377 385.337C-246.096 381.339 -241.184 377.142 -237.78 372.87C-233.85 367.948 -230.692 361.926 -228.165 354.456C-226.236 348.735 -224.762 342.489 -223.709 335.868C-221.218 320.027 -221.639 309.559 -225.253 297.242C-229.288 283.45 -222.902 266.761 -209.007 254.718C-207.954 253.819 -206.901 252.944 -205.814 252.07C-203.708 250.346 -201.498 248.572 -199.673 246.648C-193.638 240.252 -191.848 232.607 -190.094 225.186L-189.638 223.288C-187.602 214.868 -185.216 205.823 -181.532 196.904C-177.462 187.085 -172.444 175.742 -164.374 165.249C-148.969 145.211 -120.582 127.822 -92.0198 120.901C-84.3353 119.027 -77.1421 118.128 -70.0892 118.128L-70.1242 118.078ZM-10.8588 615.944C-1.45496 615.944 7.87871 615.619 15.0018 615.344C59.7404 613.595 104.268 603.801 155.148 584.538C180.412 574.969 201.184 563.176 228.484 546.037C246.765 534.569 257.222 513.332 253.362 495.543C253.116 494.419 252.836 493.32 252.59 492.221C251.783 488.973 250.976 485.625 251.081 482.077C251.467 471.458 260.766 460.965 269.854 452.07C276.801 445.25 285.118 437.455 295.679 431.208C303.645 426.461 312.873 422.664 321.75 418.991C332.172 414.669 342.944 410.222 351.366 404.35C359.717 398.554 364.349 391.408 368.84 384.488C370.033 382.639 371.226 380.79 372.489 378.991L374.349 376.343C382.349 365 391.437 352.133 387.192 337.916C383.507 325.549 370.875 313.432 351.646 303.813C349.822 302.913 347.927 302.014 345.927 301.189C342.734 299.865 339.295 298.566 335.4 297.267C329.154 295.168 322.628 293.344 316.347 291.595C311.189 290.146 306.346 288.797 301.609 287.298C293.995 284.874 287.995 282.001 282.17 279.228C275.854 276.205 269.889 273.357 261.959 271.008C255.046 268.959 247.151 267.585 239.537 266.261C237.572 265.911 235.607 265.586 233.677 265.237C209.781 260.914 189.71 255.093 172.376 247.423C153.99 239.328 137.603 228.709 122.374 214.993C119.181 212.095 115.988 209.071 112.935 206.123C105.005 198.553 96.8296 190.708 87.145 184.537C76.8288 177.941 66.0916 173.569 54.7227 168.971C51.9507 167.847 49.1786 166.723 46.3715 165.549C26.9672 157.404 6.51029 146.96 -13.2449 136.891L-19.21 133.843C-38.8599 123.824 -54.5447 119.377 -70.0541 119.377C-76.9315 119.377 -83.9143 120.252 -91.4233 122.075C-114.512 127.647 -145.531 143.362 -162.795 165.823C-170.795 176.217 -175.777 187.485 -179.813 197.229C-183.497 206.098 -185.848 215.093 -187.883 223.487L-188.339 225.386C-190.129 232.932 -191.954 240.727 -198.199 247.323C-200.094 249.321 -202.305 251.12 -204.48 252.894C-205.533 253.769 -206.621 254.618 -207.638 255.518C-221.218 267.26 -227.464 283.55 -223.534 296.992C-219.884 309.459 -219.463 320.027 -221.955 336.018C-223.007 342.688 -224.516 348.984 -226.446 354.756C-229.008 362.351 -232.201 368.472 -236.236 373.494C-239.745 377.892 -244.798 382.189 -251.184 386.286C-253.886 388.01 -256.553 389.309 -259.114 390.559C-262.623 392.258 -266.237 394.007 -270.237 396.98C-270.939 397.504 -271.641 398.004 -272.378 398.529C-275.15 400.527 -278.027 402.601 -280.273 404.975C-283.361 408.223 -284.94 411.77 -284.624 414.719C-284.483 415.993 -284.062 417.167 -283.571 418.391C-283.29 419.166 -283.01 419.915 -282.764 420.715C-282.203 422.839 -282.168 425.112 -282.168 427.336L-282.168 428.61L-282.203 428.735C-294.975 451.721 -291.045 480.628 -272.413 500.665C-255.605 518.754 -231.429 532.62 -208.024 546.037L-203.077 548.885C-186.234 558.579 -166.935 566.125 -148.303 573.42C-139.671 576.793 -130.758 580.291 -122.161 583.964C-114.196 587.386 -107.213 591.234 -100.476 594.982C-94.3709 598.355 -88.0899 601.827 -81.2827 604.851C-64.1241 612.471 -41.7022 615.994 -10.7185 615.994L-10.8588 615.944Z" fill="#BB9F73"/>
<path d="M-68.58 143.287C-55.8076 143.287 -42.0176 146.685 -26.3679 153.681C-3.84066 163.774 16.932 176.342 33.6344 186.46C45.284 193.506 57.3196 200.801 68.8288 209.696C75.5659 214.893 81.882 220.639 88.0225 226.186C92.6543 230.383 97.4615 234.73 102.374 238.803C117.743 251.52 133.814 261.014 151.429 267.885C167.92 274.331 186.763 278.878 210.694 282.201C213.501 282.601 216.343 282.95 219.186 283.325C225.607 284.15 232.274 285.024 238.485 286.148C247.853 287.847 255.854 289.871 264.31 292.02C269.889 293.444 275.679 294.893 281.925 296.267C283.504 296.617 285.083 296.967 286.662 297.291C296.031 299.34 305.715 301.439 315.014 304.212C318.733 305.312 322.137 306.436 325.365 307.635C327.33 308.36 329.26 309.134 331.12 309.959C342.664 315.03 362.524 325.974 365.682 342.339C368.525 357.104 355.507 369.222 341.892 380.415C340.313 381.714 338.769 383.038 337.155 384.437C332.137 388.81 326.909 393.307 319.891 397.055C313.4 400.527 305.926 403.426 298.697 406.249C290.943 409.272 282.942 412.395 275.889 416.268C267.293 420.99 260.24 426.836 255.082 431.383C245.502 439.803 240.064 446.724 237.888 453.12C236.976 455.868 236.59 458.441 236.204 461.165C236.098 461.864 235.993 462.564 235.888 463.263C233.747 477.13 224.624 492.745 212.589 503.014C209.711 505.487 206.869 507.936 204.027 510.384C185.5 526.349 168.026 541.44 146.341 554.132C101.988 580.091 56.1265 594.332 9.98439 596.456C3.28237 596.755 -2.85824 596.93 -8.7883 596.93C-33.4559 596.93 -53.3164 594.232 -69.4924 588.71C-76.6155 586.287 -83.0718 583.539 -89.9142 580.64C-94.8267 578.567 -99.9146 576.393 -105.283 574.369C-108.652 573.095 -112.02 571.846 -115.424 570.572C-134.688 563.376 -154.583 555.956 -172.374 546.811C-199.217 533.02 -229.639 517.38 -250.236 496.043C-276.097 469.21 -263.219 431.958 -256.482 417.192C-255.745 415.568 -255.605 413.844 -255.5 412.17L-255.5 411.945C-255.429 411.396 -255.429 410.871 -255.429 410.346C-255.429 409.472 -255.429 408.572 -255.254 407.623C-254.763 404.825 -252.798 402.151 -251.219 400.402C-249.92 398.928 -248.412 397.604 -246.973 396.28C-246.201 395.58 -245.464 394.906 -244.727 394.206C-243.324 392.882 -242.06 391.708 -240.903 390.608C-238.201 388.11 -235.85 385.936 -233.569 383.188C-230.481 379.465 -228.025 375.493 -226.27 371.395C-224.095 366.399 -222.726 360.877 -221.674 356.13C-220.691 351.658 -219.709 346.836 -218.691 341.389C-216.656 330.396 -215.077 321.177 -214.761 310.958C-214.41 300.19 -208.164 287.847 -198.059 277.953C-197.287 277.204 -196.48 276.454 -195.673 275.705C-194.129 274.281 -192.55 272.807 -191.181 271.258C-186.514 266.086 -183.918 260.264 -181.427 254.618L-180.655 252.919C-177.742 246.373 -174.689 239.602 -171.11 233.006C-169.707 230.408 -168.233 227.56 -166.689 224.537C-163.321 217.966 -159.496 210.545 -154.899 203.1C-139.53 178.116 -118.442 158.503 -97.1074 149.308C-87.6685 145.236 -78.3348 143.262 -68.6151 143.262L-68.58 143.287ZM-8.7883 596.306C-2.89333 596.306 3.24727 596.156 9.91419 595.856C55.8458 593.732 101.567 579.516 145.779 553.657C167.394 541.015 184.868 525.924 203.36 509.984C206.203 507.536 209.045 505.062 211.957 502.614C223.852 492.42 232.94 476.955 235.046 463.188C235.151 462.489 235.256 461.789 235.362 461.115C235.748 458.491 236.134 455.768 237.081 452.97C239.292 446.474 244.801 439.503 254.45 431.008C259.643 426.436 266.731 420.565 275.398 415.793C282.486 411.895 290.522 408.747 298.311 405.724C305.505 402.926 312.944 400.028 319.365 396.58C326.312 392.882 331.471 388.41 336.488 384.063C338.032 382.713 339.646 381.339 341.225 380.015C354.7 368.947 367.612 356.929 364.805 342.438C361.682 326.323 342.067 315.505 330.664 310.508C328.839 309.709 326.944 308.934 324.979 308.21C321.751 307.01 318.382 305.911 314.698 304.812C305.434 302.064 295.75 299.965 286.416 297.916C284.837 297.566 283.258 297.217 281.679 296.892C275.398 295.518 269.644 294.044 264.029 292.619C255.573 290.471 247.608 288.447 238.274 286.748C232.063 285.624 225.431 284.774 219.01 283.925C216.168 283.55 213.326 283.175 210.519 282.8C186.483 279.453 167.569 274.88 151.007 268.434C133.287 261.539 117.182 251.995 101.742 239.228C96.7948 235.155 91.9876 230.808 87.3558 226.585C81.2153 221.039 74.8992 215.317 68.1972 210.121C56.7582 201.276 44.7226 193.981 33.1081 186.96C16.4408 176.866 -4.33195 164.274 -26.789 154.23C-42.2632 147.285 -55.948 143.912 -68.5449 143.912C-78.1243 143.912 -87.2825 145.861 -96.5811 149.858C-117.775 159.002 -138.688 178.49 -154.022 203.375C-158.584 210.795 -162.408 218.241 -165.777 224.786C-167.321 227.81 -168.794 230.658 -170.198 233.256C-173.777 239.827 -176.795 246.598 -179.707 253.144L-180.444 254.843C-182.97 260.514 -185.567 266.386 -190.304 271.632C-191.708 273.206 -193.322 274.681 -194.866 276.13C-195.673 276.879 -196.445 277.629 -197.217 278.378C-207.252 288.172 -213.428 300.365 -213.779 311.008C-214.094 321.277 -215.673 330.496 -217.709 341.514C-218.726 346.961 -219.709 351.783 -220.691 356.255C-221.744 361.027 -223.147 366.573 -225.323 371.595C-227.112 375.718 -229.604 379.74 -232.727 383.513C-235.043 386.286 -237.394 388.46 -240.131 390.983C-241.324 392.083 -242.587 393.232 -243.955 394.556C-244.692 395.256 -245.464 395.955 -246.236 396.63C-247.675 397.929 -249.148 399.253 -250.447 400.702C-251.956 402.401 -253.85 404.975 -254.342 407.673C-254.517 408.572 -254.517 409.472 -254.517 410.321C-254.517 410.871 -254.517 411.396 -254.552 411.97L-254.552 412.195C-254.693 413.819 -254.833 415.668 -255.605 417.367C-262.307 432.058 -275.114 469.085 -249.464 495.668C-228.937 516.93 -198.585 532.52 -171.812 546.287C-154.092 555.406 -134.197 562.826 -114.968 569.997C-111.564 571.271 -108.196 572.52 -104.827 573.795C-99.4584 575.843 -94.3354 577.992 -89.423 580.066C-82.6157 582.964 -76.1593 585.687 -69.0713 588.086C-53.0005 593.582 -33.2454 596.256 -8.7181 596.256L-8.7883 596.306Z" fill="#BB9F73"/>
</g>
</g>
<defs>
<clipPath id="clip0_121_14009">
<rect width="503" height="726" fill="white"/>
</clipPath>
</defs>
</svg>
