<svg width="205" height="482" viewBox="0 0 205 482" fill="none" xmlns="http://www.w3.org/2000/svg">
<g clip-path="url(#clip0_121_14099)">
<path d="M-16.887 275.996C-20.448 277.01 -23.7795 277.663 -26.8354 277.921C-48.5393 279.8 -50.8885 263.57 -52.5711 251.724C-52.7653 250.458 -52.9234 249.221 -53.1121 248.072C-54.5634 239.276 -59.4881 224.311 -76.0031 222.82C-79.3584 222.513 -83.1527 222.804 -86.8394 223.085C-93.5872 223.605 -100.555 224.13 -105.362 221.061C-107.598 219.627 -109.221 217.427 -110.268 214.333C-114.599 201.743 -108.232 186.166 -90.816 166.695C-74.3704 148.289 -58.426 136.198 -40.6398 128.631C-36.5633 126.898 -32.286 125.385 -27.9308 124.145C-11.6372 119.507 5.53113 118.623 20.4051 121.646C28.0782 123.209 41.6892 127.34 46.4222 137.351C51.429 147.935 44.8294 160.068 38.4438 171.785C35.5643 177.041 32.5983 182.48 30.7342 187.704C27.4936 196.751 27.377 205.974 27.2594 214.9C27.2202 218.363 27.1865 221.941 26.9423 225.462C25.8919 241.911 20.1287 254.161 9.24506 262.918C2.60138 268.28 -7.43884 273.287 -16.9178 275.986L-16.887 275.996ZM-27.4116 125.969C-31.6131 127.165 -35.7675 128.624 -39.6955 130.294C-56.99 137.643 -72.5865 149.497 -88.741 167.564C-105.652 186.477 -111.867 201.517 -107.752 213.538C-106.799 216.304 -105.418 218.237 -103.49 219.463C-99.3676 222.076 -93.1838 221.617 -86.6514 221.118C-82.8314 220.82 -78.8986 220.529 -75.2867 220.861C-57.3506 222.48 -52.1155 238.244 -50.5651 247.485C-50.3712 248.653 -50.1875 249.882 -50.0137 251.173C-48.3159 262.975 -46.1875 277.652 -26.6986 275.97C-23.8888 275.722 -20.7675 275.109 -17.4371 274.161C-8.5217 271.624 1.2523 266.751 7.49196 261.721C17.8079 253.401 23.3214 241.637 24.3327 225.731C24.5564 222.236 24.5953 218.676 24.6397 215.232C24.7518 206.188 24.8576 196.831 28.1897 187.521C30.1251 182.159 33.1011 176.658 36.0163 171.332C42.4884 159.433 48.6244 148.201 43.9174 138.281C39.479 128.916 26.5767 125.036 19.2834 123.543C4.90721 120.615 -11.6868 121.474 -27.4424 125.958L-27.4116 125.969Z" fill="#BB9F73"/>
<path d="M-11.3646 287.616C-18.9222 289.768 -27.7569 291.908 -35.9901 291.491C-54.7395 290.517 -62.3749 279.163 -68.4948 270.02C-69.0774 269.141 -69.6548 268.28 -70.2527 267.444C-71.5724 265.533 -72.8453 263.785 -74.0815 262.264C-80.0726 254.74 -90.263 244.626 -109.458 243.839C-112.315 243.725 -115.392 243.813 -118.269 243.922C-127.725 244.267 -137.326 244.594 -142.635 239.756C-144.879 237.712 -146.074 234.779 -146.21 231.091C-146.296 228.453 -145.885 225.615 -144.926 222.66C-143.1 216.915 -139.652 211.417 -136.015 205.61C-130.456 196.731 -123.545 185.693 -116.517 175.647C-104.601 158.649 -85.3074 134.68 -55.2834 122.82C-41.1881 117.27 -24.7495 114.503 -6.75689 114.667C4.90132 114.759 16.2725 116.374 27.0025 119.432C39.9966 123.148 48.3242 128.567 51.7182 135.528C57.1681 146.696 50.8686 159.591 44.7576 172.077C42.6747 176.338 40.5206 180.737 38.8992 184.965L38.4824 186.031C37.908 187.515 37.364 188.912 36.9946 190.339C36.2104 193.421 36.3336 196.384 36.4779 199.517C36.501 200.28 36.5294 201.061 36.5525 201.823C36.7427 210.761 35.0364 220.042 33.3547 229.019C32.9672 231.161 32.5542 233.309 32.1975 235.462C31.9112 237.18 31.6303 239.015 31.319 240.937C29.0282 256.143 25.8696 276.958 5.24647 282.829L4.55475 283.026C1.61343 283.784 -1.47086 284.721 -4.63202 285.68C-6.85047 286.351 -9.1458 287.044 -11.4259 287.693L-11.3646 287.616ZM-44.8714 121.454C-48.0994 122.373 -51.2858 123.437 -54.2974 124.63C-83.4251 136.136 -102.325 159.638 -114.002 176.311C-120.993 186.288 -127.91 197.308 -133.449 206.161C-137.009 211.848 -140.38 217.225 -142.136 222.733C-143.008 225.506 -143.42 228.147 -143.329 230.606C-143.225 233.889 -142.196 236.436 -140.282 238.198C-135.707 242.398 -126.712 242.085 -118.025 241.762C-114.928 241.649 -111.769 241.559 -108.773 241.672C-88.4804 242.521 -77.8116 253.051 -71.5577 260.914C-70.3111 262.472 -69.0022 264.249 -67.6773 266.179C-67.1051 267.022 -66.4968 267.894 -65.9142 268.773C-59.7171 277.993 -52.7003 288.438 -35.2745 289.335C-27.6003 289.733 -19.1551 287.684 -11.905 285.621C-9.6249 284.972 -7.38082 284.293 -5.16237 283.623C-1.94997 282.649 1.19076 281.715 4.15251 280.932L4.76738 280.757C23.3667 275.462 26.3899 255.533 28.5907 240.984C28.8712 239.051 29.1776 237.209 29.464 235.491C29.8514 233.349 30.2337 231.189 30.6467 229.041C32.2928 220.132 33.9994 210.95 33.7996 202.173C33.7764 201.41 33.7532 200.648 33.7301 199.885C33.5962 196.788 33.4823 193.567 34.3119 190.254C34.7066 188.722 35.2963 187.194 35.8758 185.727L36.2927 184.662C37.9445 180.347 40.1191 175.922 42.2172 171.617C48.1295 159.503 54.261 146.991 49.1417 136.498C45.9649 130.007 38.0897 124.913 25.7014 121.38C15.2383 118.384 4.15968 116.824 -7.19596 116.724C-20.7981 116.613 -33.471 118.209 -44.8202 121.439L-44.8714 121.454Z" fill="#BB9F73"/>
<path d="M3.73587 299.311C2.58302 299.639 1.39416 299.938 0.164113 300.19C-17.6458 303.879 -32.9886 304.657 -45.4489 302.525C-61.2244 299.838 -71.1514 291.719 -79.9159 284.571C-82.8682 282.178 -85.6201 279.905 -88.5146 277.909C-90.5506 276.496 -92.7298 275.165 -95.1501 273.862C-109.661 266.082 -124.912 262.417 -143.191 262.316C-145.576 262.304 -148.002 262.344 -150.454 262.391L-153.428 262.449C-164.372 262.626 -175.171 261.954 -180.167 255.882C-182.408 253.168 -183.148 249.593 -182.353 245.284C-181.82 242.194 -180.519 238.886 -178.52 235.497C-175.996 231.229 -172.722 227.26 -169.26 223.08C-167.595 221.048 -165.858 218.976 -164.199 216.828C-157.342 207.935 -151.658 198.035 -146.183 188.47C-144.949 186.285 -143.705 184.136 -142.461 181.988C-129.552 159.816 -108.007 128.679 -70.2209 114.413C-52.6571 107.816 -32.5045 105.255 -8.56353 106.564C6.31812 107.376 20.4062 110.071 33.3262 114.596C45.6608 118.914 53.3369 124.281 56.7405 131.082C62.8039 143.14 56.5958 157.232 50.5553 170.842C49.2729 173.731 47.9601 176.708 46.811 179.579C46.5721 180.199 46.3024 180.808 46.0379 181.435C45.3257 183.117 44.644 184.711 44.2444 186.324C43.3799 189.902 43.8942 193.266 44.4145 196.845C44.5983 198.074 44.7821 199.304 44.9095 200.529C45.9768 210.992 42.8867 222.028 39.8569 232.691C38.9196 236.014 37.9623 239.461 37.1175 242.817C36.3945 245.823 35.7806 249.212 35.147 252.824C32.0695 270.422 28.1967 292.328 3.67943 299.307L3.73587 299.311ZM-60.7146 113.659C-63.6352 114.491 -66.5246 115.432 -69.2752 116.471C-105.939 130.299 -127.046 160.838 -139.71 182.605C-140.959 184.735 -142.198 186.902 -143.437 189.069C-148.968 198.728 -154.662 208.69 -161.647 217.718C-163.326 219.892 -165.058 221.983 -166.769 224.047C-170.17 228.151 -173.362 232.017 -175.795 236.121C-177.666 239.276 -178.871 242.341 -179.358 245.201C-180.042 249.024 -179.431 252.143 -177.52 254.478C-173.158 259.783 -163.134 260.361 -152.964 260.187L-150.015 260.137C-147.538 260.082 -145.082 260.054 -142.671 260.058C-123.807 260.17 -108.079 263.955 -93.1462 271.95C-90.6336 273.286 -88.3875 274.658 -86.2795 276.129C-83.3182 278.165 -80.5303 280.467 -77.542 282.89C-68.5975 290.184 -59.3341 297.722 -44.3078 300.307C-32.3145 302.356 -17.4436 301.573 -0.151218 298.012C0.971163 297.771 2.06276 297.52 3.11313 297.221C25.504 290.847 29.1954 269.86 32.1472 252.988C32.7756 249.358 33.3791 245.932 34.1377 242.857C34.9722 239.464 35.9551 236.01 36.8871 232.668C39.8509 222.162 42.9109 211.313 41.8753 201.156C41.7532 199.949 41.5746 198.738 41.4011 197.545C40.8553 193.973 40.2987 190.267 41.2647 186.363C41.6996 184.583 42.427 182.858 43.1648 181.169C43.4345 180.559 43.6786 179.957 43.9226 179.356C45.087 176.441 46.4203 173.439 47.7027 170.55C53.5444 157.311 59.595 143.639 53.8674 132.274C50.6808 125.944 43.4264 120.891 31.6516 116.788C19.0141 112.38 5.21856 109.74 -9.3297 108.932C-28.8847 107.853 -45.6916 109.422 -60.7299 113.703L-60.7146 113.659Z" fill="#BB9F73"/>
<path d="M5.86816 315.17C2.69142 316.074 -0.78374 316.708 -4.43441 317.018C-22.39 318.639 -39.8328 317.294 -54.8902 313.14C-67.4834 309.665 -77.2997 303.881 -86.8179 298.269C-93.5095 294.317 -99.8618 290.584 -106.739 287.927C-109.63 286.818 -112.726 285.865 -116.212 285.004C-131.663 281.218 -149.834 279.844 -176.999 280.438L-179.256 280.489C-182.364 280.565 -185.502 280.63 -188.631 280.634C-204.299 280.657 -213.803 277.722 -217.738 271.684C-219.944 268.309 -220.231 264.092 -218.561 259.16C-217.373 255.549 -215.201 251.795 -212.142 248.045C-209.002 244.193 -205.372 240.695 -201.528 236.978C-198.461 234.035 -195.313 230.989 -192.416 227.739C-182.827 216.964 -176.572 204.397 -170.532 192.246L-168.418 187.996C-146.964 145.25 -119.732 118.331 -85.1662 105.692C-64.3131 98.0996 -39.9546 95.6225 -10.4036 98.1549C8.18896 99.7446 25.03 103.548 39.6114 109.435C51.0033 114.041 58.249 119.55 61.7447 126.285C68.8653 140.014 61.7952 156.915 55.549 171.846L54.7098 173.859C54.3843 174.662 54.028 175.454 53.6718 176.245C52.7914 178.211 51.9362 180.072 51.5017 181.951C50.5059 186.138 51.3966 190.046 52.3495 194.172C52.7141 195.744 53.0529 197.324 53.3098 198.907C55.261 211.308 50.6808 224.502 46.2733 237.233C44.8465 241.367 43.3484 245.638 42.1217 249.793C40.905 253.886 40.0761 258.855 39.1714 264.141C35.8695 283.578 31.7328 307.768 5.90902 315.119L5.86816 315.17ZM-75.9155 105.208C-78.7335 106.01 -81.5257 106.904 -84.2098 107.885C-117.771 120.159 -144.334 146.513 -165.395 188.496L-167.509 192.746C-173.616 205.054 -179.936 217.778 -189.796 228.867C-192.78 232.201 -195.969 235.297 -199.077 238.292C-202.834 241.925 -206.402 245.346 -209.415 249.063C-212.27 252.558 -214.274 256.027 -215.37 259.376C-216.842 263.739 -216.598 267.416 -214.716 270.331C-211.267 275.64 -202.533 278.202 -188.024 278.193C-184.921 278.197 -181.813 278.121 -178.762 278.041L-176.505 277.991C-148.976 277.411 -130.497 278.796 -114.717 282.666C-111.088 283.545 -107.868 284.542 -104.849 285.713C-97.751 288.465 -91.3267 292.256 -84.5119 296.252C-75.1633 301.755 -65.5063 307.465 -53.2776 310.827C-38.6411 314.864 -21.6806 316.169 -4.21208 314.588C-0.838367 314.279 2.34978 313.706 5.24471 312.882C28.7884 306.18 32.7337 282.972 35.9202 264.297C36.8402 258.968 37.674 253.919 38.9159 249.72C40.1578 245.521 41.6456 241.213 43.0928 237.054C47.4497 224.535 51.9333 211.584 50.0555 199.636C49.809 198.09 49.4549 196.554 49.1264 195.01C48.1939 190.859 47.2198 186.561 48.2962 181.976C48.7813 179.885 49.723 177.842 50.6035 175.876C50.9393 175.11 51.3007 174.337 51.6314 173.553L52.4706 171.539C58.849 156.294 65.4411 140.535 58.6975 127.547C55.4084 121.246 48.5587 116.058 37.701 111.675C23.4022 105.905 6.92044 102.196 -11.3335 100.628C-36.4006 98.4758 -57.5211 99.9721 -75.8899 105.201L-75.9155 105.208Z" fill="#BB9F73"/>
<path d="M7.34694 331.452C2.45374 332.845 -3.04182 333.581 -8.98085 333.635C-27.2902 333.819 -45.3963 330.533 -64.3051 323.551C-73.4924 320.172 -81.8108 315.953 -89.8671 311.877C-101.422 306.016 -112.33 300.484 -124.983 297.677C-128.765 296.841 -132.789 296.231 -137.298 295.858C-152.577 294.528 -168.954 295.66 -186.332 296.88C-194.233 297.433 -202.381 297.998 -210.781 298.358C-216.006 298.583 -220.002 298.655 -223.807 298.615C-235.507 298.474 -250.444 296.396 -255.276 287.301C-257.383 283.306 -257.221 278.33 -254.752 272.894C-252.92 268.823 -249.801 264.504 -245.774 260.459C-242.007 256.666 -237.665 253.142 -233.461 249.717C-229.099 246.168 -224.603 242.503 -220.673 238.505C-208.75 226.395 -202.307 211.763 -196.11 197.635L-194.425 193.823C-172.279 143.88 -140.583 111.233 -100.208 96.822C-75.9684 88.1868 -47.4243 85.8197 -12.34 89.597C10.4612 92.0592 30.0448 96.9359 45.8309 104.136C56.0433 108.782 63.0643 114.572 66.6885 121.369C74.525 135.959 68.6025 153.973 62.5481 168.021C62.1513 168.962 61.6981 169.899 61.2706 170.83C60.2066 173.124 59.1884 175.287 58.6729 177.465C57.5511 182.281 58.7924 186.739 60.1424 191.482C60.6721 193.342 61.2173 195.258 61.5984 197.18C64.4233 211.58 58.3686 226.989 52.5071 241.909C50.5956 246.771 48.618 251.791 46.9938 256.69C45.3596 261.651 44.2945 268.028 43.1744 274.795C39.5626 296.548 35.0565 323.624 7.33691 331.514L7.34694 331.452ZM-90.8954 96.4586C-93.6878 97.2534 -96.4799 98.1468 -99.1692 99.1095C-138.413 113.12 -169.351 145.117 -191.111 194.181L-192.795 197.993C-199.115 212.373 -205.659 227.231 -217.986 239.771C-222.07 243.911 -226.652 247.661 -231.081 251.268C-235.398 254.784 -239.469 258.093 -243.082 261.744C-246.854 265.519 -249.733 269.513 -251.427 273.289C-253.631 278.195 -253.832 282.453 -251.973 285.966C-247.714 294.022 -233.921 295.873 -223.114 295.992C-219.416 296.043 -215.477 295.967 -210.339 295.727C-202.021 295.371 -193.873 294.807 -185.997 294.261C-168.45 293.052 -151.888 291.887 -136.266 293.257C-131.582 293.659 -127.39 294.28 -123.453 295.171C-110.415 298.066 -99.3174 303.682 -87.5669 309.645C-79.603 313.688 -71.3515 317.866 -62.3183 321.191C-43.8204 327.994 -26.1709 331.232 -8.35904 331.053C-2.83544 330.999 2.23467 330.324 6.71797 329.048C32.0038 321.851 36.334 295.811 39.8 274.908C40.925 268.06 42.0205 261.596 43.7209 256.478C45.3602 251.535 47.3531 246.472 49.285 241.583C55.0347 226.952 60.9776 211.831 58.2572 197.993C57.8917 196.125 57.3569 194.246 56.8428 192.441C55.4928 187.698 54.096 182.791 55.3546 177.483C55.9359 175.05 57.0355 172.686 58.1198 170.366C58.5526 169.454 58.9598 168.549 59.3669 167.645C65.2381 154.023 70.9986 136.608 63.5543 122.715C60.1368 116.352 53.481 110.872 43.7772 106.456C28.3096 99.4018 9.11097 94.6126 -13.3157 92.2016C-43.772 88.9211 -69.1242 90.3402 -90.7977 96.5096L-90.8954 96.4586Z" fill="#BB9F73"/>
<path d="M8.3679 347.981C1.93756 349.812 -5.44548 350.533 -13.5607 350.141C-37.3729 348.992 -57.3767 341.277 -73.779 333.858C-79.3064 331.369 -84.7523 328.68 -90.0082 326.074C-107.066 317.619 -123.183 309.646 -143.322 307.293C-148.022 306.738 -152.967 306.489 -158.485 306.561C-173.25 306.742 -188.316 308.979 -204.259 311.348C-217.387 313.291 -230.961 315.321 -244.627 316.154C-249.883 316.467 -254.585 316.583 -259.017 316.484C-276.8 316.084 -289.132 311.095 -292.823 302.799C-294.87 298.136 -294.203 292.504 -290.931 286.485C-288.418 281.885 -284.455 277.128 -279.418 272.737C-275.006 268.877 -270.038 265.314 -265.229 261.874C-259.642 257.859 -253.84 253.723 -248.928 249.09C-234.793 235.798 -228.244 219.303 -221.956 203.354L-220.405 199.462C-197.367 141.752 -161.981 104.17 -115.202 87.7385C-112.359 86.7321 -109.433 85.8204 -106.487 84.9818C-80.4582 77.5726 -51.1463 76.249 -14.223 80.8437C13.5669 84.2916 35.2772 90.1209 52.1039 98.6417C61.0388 103.178 67.8096 109.256 71.6806 116.24C78.4731 128.524 78.0271 144.762 70.4348 161.969C69.9615 163.03 69.4574 164.081 68.9533 165.131C67.6803 167.761 66.4786 170.253 65.8976 172.785C64.6293 178.253 66.283 183.284 67.9993 188.632C68.6941 190.781 69.4148 193.021 69.9406 195.258C73.6445 211.675 66.1 229.342 58.7843 246.45C56.4086 252.017 53.9463 257.766 51.9347 263.347C49.857 269.086 48.5967 276.819 47.266 284.987C43.2938 309.269 38.3523 339.485 8.40388 348.01L8.3679 347.981ZM-105.775 87.5794C-108.619 88.3889 -111.437 89.2895 -114.182 90.2486C-159.681 106.217 -194.249 143.073 -216.87 199.816L-218.421 203.708C-224.842 219.971 -231.491 236.791 -246.199 250.601C-251.311 255.408 -257.225 259.636 -262.93 263.724C-267.647 267.098 -272.522 270.596 -276.807 274.32C-281.512 278.42 -285.235 282.852 -287.538 287.116C-290.505 292.555 -291.093 297.396 -289.283 301.515C-284.61 311.997 -266.033 313.532 -258.257 313.704C-253.964 313.804 -249.369 313.698 -244.252 313.385C-230.827 312.581 -217.355 310.58 -204.335 308.649C-188.208 306.247 -172.983 303.984 -157.884 303.807C-152.171 303.739 -147.005 303.984 -142.131 304.568C-121.361 306.997 -104.982 315.113 -87.6367 323.703C-82.4116 326.298 -76.9964 328.977 -71.5307 331.443C-55.4213 338.709 -35.8436 346.289 -12.7086 347.394C-5.12691 347.76 1.71781 347.094 7.61015 345.416C34.9455 337.635 39.7061 308.535 43.5173 285.147C44.8733 276.874 46.1641 269.052 48.2924 263.102C50.3396 257.452 52.8171 251.659 55.2133 246.067C62.3763 229.297 69.7989 211.981 66.2255 196.217C65.7205 194.053 65.0153 191.868 64.3309 189.755C62.5838 184.396 60.7848 178.854 62.1742 172.839C62.821 170.052 64.1449 167.309 65.4128 164.66C65.8965 163.635 66.4057 162.603 66.8638 161.585C74.1967 145.024 74.6399 129.457 68.1469 117.738C64.4978 111.146 58.0718 105.403 49.5891 101.093C33.1168 92.7472 11.8275 87.0348 -15.5314 83.6417C-51.7927 79.1346 -80.4843 80.3999 -105.821 87.6122L-105.775 87.5794Z" fill="#BB9F73"/>
<path d="M9.07208 364.66C1.20709 366.899 -7.94051 367.551 -18.1758 366.619C-45.5933 364.091 -67.0458 352.745 -87.8098 341.776C-109.684 330.216 -132.277 318.268 -161.727 316.87C-183.287 315.849 -206.18 320.749 -228.29 325.485C-250.086 330.151 -272.642 334.974 -294.318 334.322C-313.4 333.739 -326.91 327.725 -330.461 318.265C-334.033 308.732 -327.548 296.296 -313.17 285.026C-308.075 281.032 -302.441 277.377 -296.966 273.847C-290.16 269.444 -283.123 264.878 -277.279 259.724C-260.968 245.32 -254.36 226.993 -247.99 209.285L-246.486 205.13C-230.102 160.141 -196.646 101.673 -130.317 78.7107C-127.418 77.7079 -124.421 76.7562 -121.423 75.903C-92.0129 67.5312 -58.5975 66.3212 -16.2642 72.117C6.44184 75.2176 35.397 80.4241 58.2239 93.1922C80.6191 105.709 88.9944 132.115 78.1684 155.961C77.6391 157.118 77.0789 158.263 76.5187 159.408C75.047 162.411 73.6617 165.23 72.9897 168.123C71.575 174.245 73.5897 179.863 75.7235 185.802C76.5886 188.258 77.5052 190.797 78.1449 193.336C82.7586 211.782 73.6783 231.739 64.9086 251.037C62.0634 257.289 59.1368 263.742 56.7378 270.006C54.2626 276.488 52.7862 285.506 51.2398 295.057C46.8562 321.979 41.4135 355.494 9.10811 364.69L9.07208 364.66ZM-120.65 78.6209C-123.545 79.445 -126.444 80.3493 -129.241 81.3229C-193.833 103.673 -226.586 161.111 -242.705 205.375L-244.209 209.53C-250.721 227.613 -257.446 246.309 -274.488 261.355C-280.599 266.742 -287.773 271.407 -294.717 275.908C-300.07 279.384 -305.612 282.973 -310.548 286.843C-320.783 294.864 -330.372 306.999 -326.639 317C-323.486 325.449 -311.071 330.828 -293.442 331.371C-272.401 332.027 -250.189 327.262 -228.679 322.658C-206.206 317.838 -183 312.869 -160.762 313.934C-130.359 315.376 -107.375 327.527 -85.1721 339.27C-64.7318 350.075 -43.6029 361.256 -17.0115 363.704C-7.4277 364.585 1.0995 363.992 8.29839 361.942C37.8626 353.527 43.1146 321.191 47.3271 295.224C48.8936 285.549 50.3901 276.407 52.9618 269.681C55.3912 263.33 58.3587 256.825 61.1987 250.555C69.8005 231.64 78.6873 212.073 74.2609 194.383C73.642 191.916 72.7665 189.425 71.8914 187.031C69.7524 181.074 67.5511 174.897 69.0918 168.148C69.8193 164.964 71.3471 161.866 72.8445 158.857C73.3843 157.737 73.9496 156.61 74.4638 155.497C84.6281 133.121 76.481 107.419 55.5298 95.6944C33.2322 83.2292 4.71837 78.114 -17.6183 75.0463C-59.228 69.36 -91.9718 70.4971 -120.665 78.6647L-120.65 78.6209Z" fill="#BB9F73"/>
<path d="M95.648 470.816C80.1486 475.228 60.7427 478.661 43.781 479.979C12.5394 482.404 -3.32532 476.193 -27.3048 466.77C-46.6979 459.157 -72.211 458.552 -95.5449 465.115L-95.878 465.21C-100.079 466.406 -104.378 467.846 -108.522 469.243C-112.743 470.661 -117.113 472.142 -121.417 473.367C-130.127 475.846 -137.171 476.885 -143.588 476.621C-158.325 476.024 -168.664 468.792 -178.69 461.786C-180.181 460.732 -181.667 459.696 -183.143 458.696C-210.138 440.429 -246.529 429.629 -285.59 428.325L-288.58 428.229C-296.649 428.002 -304.968 427.767 -311.713 424.895C-318.616 421.95 -322.014 416.923 -325.262 412.03C-328.546 407.108 -331.665 402.475 -338.126 400.113C-344.339 397.84 -351.764 396.857 -359.6 395.795C-362.535 395.407 -365.501 395.009 -368.405 394.535C-374.964 393.483 -379.732 392.297 -383.944 390.735C-416.421 378.604 -441.024 356.481 -451.569 330.14C-458.611 312.504 -458.219 295.395 -450.454 280.643C-442.791 266.117 -428.242 253.891 -414.158 242.073C-404.616 234.052 -394.761 225.765 -387.135 216.85C-376.316 204.167 -369.831 190.075 -363.575 176.443C-355.589 159.065 -348.646 141.037 -358.717 128.226C-362.097 123.943 -367.057 120.721 -372.316 117.328C-374.254 116.065 -376.212 114.828 -378.058 113.5C-394.105 102.174 -402.059 83.2789 -398.316 65.3927C-395.566 52.2854 -387.034 41.2984 -373.603 33.6102C-368.198 30.5137 -362.349 28.0995 -355.714 26.2107C-339.958 21.7258 -322.83 21.1884 -306.276 20.6765C-302.516 20.553 -298.783 20.4368 -295.091 20.2732C-262.543 18.8369 -227.929 12.7898 -189.244 1.77807C-185.248 0.640444 -181.262 -0.533676 -177.286 -1.74427C-172.977 -3.04967 -168.556 -4.44625 -164.032 -5.872C-155.44 -8.57401 -146.541 -11.3635 -137.472 -13.9451C-110.675 -21.573 -76.3945 -29.1816 -48.883 -20.2908C-40.5854 -17.6046 -33.2081 -14.0648 -26.0876 -10.6491C-16.4959 -6.04376 -6.58059 -1.27421 5.53247 1.2922C19.7705 4.31858 35.0644 5.70346 49.8761 7.04814C73.8714 9.22958 98.6927 11.4914 119.512 20.8081C146.743 32.9932 168.613 50.7664 182.782 72.2304L183.762 73.7263C185.876 76.9698 188.052 80.3337 191.271 82.8879C192.454 83.8329 193.775 84.6795 195.168 85.5844C197.471 87.0586 199.841 88.5729 201.551 90.5906C205.547 95.2899 205.49 102.386 201.34 109.601C197.731 115.893 191.893 121.361 186.229 126.661C179.317 133.124 171.972 135.827 164.15 138.704C159.74 140.334 155.176 142.008 150.584 144.459C137.657 151.392 128.049 158.209 121.963 164.753C103.697 184.446 104.44 207.977 106.519 220.242C110.248 242.292 117.94 253.748 138.221 267.399C159.088 281.454 161.889 308.126 144.7 329.465C143.474 330.997 142.131 332.504 140.813 334.003C138.049 337.136 135.454 340.084 133.649 343.279C127.67 353.894 131.816 364.664 135.801 375.065L136.645 377.251C141.242 389.411 144.374 402.165 145.906 415.138C147.158 425.568 147.226 437.676 138.462 448.236C130.954 457.275 116.527 464.872 95.5711 470.837L95.648 470.816ZM-96.6825 462.481L-96.3494 462.386C-71.9703 455.505 -45.3082 456.159 -25.0728 464.104C-1.62229 473.322 13.8983 479.395 44.0273 477.05C50.2571 476.558 72.3501 474.489 94.8179 468.094C114.442 462.508 128.429 455.214 135.257 446.999C143.322 437.289 143.215 425.823 142.021 415.889C140.51 403.087 137.425 390.497 132.869 378.483L132.031 376.316C128.05 365.933 123.542 354.182 130.092 342.556C132.06 339.058 134.931 335.815 137.669 332.689C138.967 331.215 140.244 329.767 141.454 328.279C157.397 308.498 154.728 282.774 135.342 269.737C114.68 255.82 106.426 243.557 102.64 221.11C100.492 208.41 99.7713 183.986 118.912 163.373C125.396 156.381 135.163 149.44 148.734 142.145C153.633 139.509 158.397 137.758 162.987 136.077C170.281 133.389 177.175 130.855 183.366 125.07C188.811 119.971 194.434 114.722 197.778 108.86C201.387 102.567 201.5 96.4421 198.126 92.4725C196.638 90.7467 194.536 89.3929 192.33 87.9698C190.937 87.0649 189.488 86.1563 188.192 85.1055C184.679 82.2995 182.405 78.7861 180.187 75.3747L179.213 73.8971C165.297 52.8344 143.792 35.3714 117.07 23.4162C96.8256 14.3695 73.451 12.2283 48.717 9.98106C33.7924 8.62907 18.3548 7.22593 3.84988 4.13749C-8.70976 1.46157 -18.8408 -3.38462 -28.6225 -8.07389C-35.6506 -11.4567 -42.9251 -14.9272 -50.9814 -17.544C-77.3324 -26.0553 -110.639 -18.6253 -136.719 -11.2016C-145.737 -8.63461 -154.585 -5.85968 -163.151 -3.16497C-167.7 -1.73192 -172.152 -0.34629 -176.456 0.977349C-180.457 2.19524 -184.469 3.37664 -188.517 4.52886C-227.611 15.6572 -262.651 21.7664 -295.634 23.2281C-299.352 23.399 -303.091 23.4969 -306.876 23.6277C-323.102 24.1251 -339.897 24.6662 -354.986 28.9615C-361.186 30.7263 -366.666 32.9764 -371.662 35.8577C-387.309 44.8079 -392.719 56.8386 -394.505 65.3531C-398.072 82.4003 -390.48 100.412 -375.163 111.217C-373.328 112.508 -371.426 113.742 -369.524 114.975C-364.301 118.339 -358.909 121.813 -355.298 126.425C-344.484 140.187 -352.027 159.707 -359.942 176.947C-366.305 190.787 -372.872 205.08 -384.002 218.127C-391.832 227.297 -401.845 235.709 -411.521 243.846C-425.937 255.956 -439.55 267.383 -446.882 281.322C-456.272 299.12 -452.589 317.022 -447.855 328.886C-437.563 354.629 -413.526 376.222 -381.886 388.137C-377.947 389.619 -373.394 390.729 -367.123 391.744C-364.249 392.208 -361.314 392.595 -358.43 392.997C-350.712 394.034 -342.708 395.108 -336.098 397.505C-328.714 400.195 -325.208 405.409 -321.836 410.444C-318.619 415.227 -315.588 419.747 -309.475 422.346C-303.424 424.922 -295.5 425.131 -287.872 425.366L-284.856 425.454C-244.985 426.784 -207.901 437.781 -180.381 456.431C-178.875 457.441 -177.384 458.496 -175.867 459.543C-166.258 466.254 -156.33 473.208 -142.798 473.754C-136.945 473.981 -130.435 473.015 -122.288 470.696C-118.086 469.5 -113.788 468.06 -109.644 466.663C-105.423 465.245 -101.053 463.764 -96.7489 462.539L-96.6825 462.481Z" fill="#BB9F73"/>
<path d="M69.6602 451.906C60.5655 454.495 50.6693 456.701 41.8219 458.115C14.0286 462.536 -2.20481 457.948 -25.636 449.867C-45.1029 443.163 -68.7412 441.846 -90.5234 446.272C-94.4493 447.074 -98.4822 448.084 -102.387 449.057C-113.066 451.722 -124.104 454.49 -135.047 453.503C-148.32 452.312 -158.195 445.835 -167.736 439.559C-169.402 438.475 -171.047 437.366 -172.728 436.326C-186.308 427.729 -201.779 421.149 -218.694 416.794C-235.285 412.505 -253.311 410.281 -272.278 410.198L-275.406 410.201C-282.992 410.211 -290.829 410.214 -297.36 408.089C-304.076 405.9 -307.896 401.919 -311.571 398.055C-315.319 394.133 -318.87 390.411 -325.288 388.59C-331.192 386.918 -337.99 386.191 -345.183 385.438C-348.323 385.11 -351.551 384.766 -354.722 384.328C-358.437 383.828 -361.619 383.254 -364.432 382.616C-366.3 382.181 -368.102 381.688 -369.73 381.126C-385.576 375.856 -398.973 368.193 -408.463 358.984C-417.912 349.822 -424.214 338.286 -428.321 322.693C-431.169 311.909 -433.892 295.725 -424.859 279.784C-417.799 267.323 -405.107 256.749 -392.818 246.507C-384.287 239.405 -375.471 232.045 -368.585 224.129C-358.787 212.822 -352.682 200.021 -347.311 188.731C-340.412 174.245 -333.735 157.812 -341.843 146.257C-344.544 142.411 -348.559 139.492 -352.822 136.387C-354.39 135.256 -355.964 134.106 -357.466 132.917C-370.081 122.941 -376.127 107.25 -373.226 91.9498C-370.965 80.0463 -363.717 69.7998 -352.204 62.2827C-344.006 56.9321 -334.481 52.7418 -323.132 49.5112C-311.782 46.2806 -300.403 44.4217 -289.136 42.5555C-286.732 42.1473 -284.349 41.7646 -281.97 41.3636C-262.297 37.992 -240.682 32.8842 -213.961 25.2781C-198.846 20.9755 -183.614 16.3045 -169.387 11.8996C-166.256 10.9297 -163.08 9.92691 -159.827 8.90227C-151.722 6.33882 -143.361 3.70245 -134.778 1.25946C-110.748 -5.58091 -79.9272 -12.5005 -54.7342 -5.13858C-47.1819 -2.93035 -40.3861 0.0256248 -33.8368 2.89401C-25.1404 6.68934 -16.1615 10.6014 -5.36297 12.7335C7.40648 15.2708 20.9615 16.5789 34.0651 17.8576C55.4289 19.9402 77.5007 22.0776 96.719 29.5627C110.113 34.7815 125.528 41.3577 138.295 50.6002C151.808 60.4193 159.446 74.1192 165.136 86.2245C166.892 89.9641 169.191 93.0762 171.953 95.4844C172.91 96.3163 173.985 97.0753 175.126 97.8744C176.992 99.1771 178.926 100.52 180.317 102.293C183.531 106.387 183.368 112.526 179.866 118.71C176.884 123.995 172.069 128.679 167.428 133.194L167.101 133.504C161.289 139.162 154.908 141.846 148.721 144.435C145.059 145.971 141.249 147.568 137.456 149.811C126.667 156.175 118.979 162.15 113.958 168.055C107.839 175.26 103.781 183.77 101.922 193.39C100.456 200.985 100.381 208.993 101.687 217.179C104.827 236.577 111.413 247.263 127.781 259.523C144.751 272.243 146.49 295.964 131.872 314.658C130.794 316.03 129.65 317.361 128.511 318.711C126.12 321.501 123.878 324.131 122.303 326.965C117.043 336.41 120.21 345.979 123.284 355.22L123.942 357.241C127.639 368.573 129.924 379.912 130.778 390.889C131.477 400.057 131.329 411.891 123.749 422.331C113.04 437.054 88.4284 446.524 69.6498 451.87L69.6602 451.906ZM-322.452 51.8023C-333.365 54.9089 -342.476 58.9023 -350.3 64.0085C-363.866 72.8788 -368.468 84.0487 -369.954 91.8664C-372.714 106.495 -366.942 121.515 -354.887 131.079C-353.421 132.239 -351.879 133.377 -350.316 134.49C-346.094 137.548 -341.729 140.723 -338.868 144.838C-330.234 157.17 -337.104 174.191 -344.247 189.18C-349.685 200.627 -355.876 213.61 -365.924 225.206C-372.974 233.326 -381.903 240.778 -390.54 247.989C-403.141 258.497 -415.052 268.415 -421.857 280.409C-428.438 292.023 -429.479 305.196 -425.077 321.829C-421.033 337.104 -414.891 348.371 -405.705 357.292C-396.477 366.26 -383.414 373.722 -367.937 378.861C-366.382 379.365 -364.693 379.85 -362.911 380.27C-360.211 380.902 -357.153 381.431 -353.551 381.924C-350.441 382.34 -347.214 382.684 -344.099 383.02C-336.732 383.802 -329.795 384.529 -323.614 386.299C-316.472 388.328 -312.56 392.44 -308.74 396.421C-305.106 400.237 -301.647 403.828 -295.568 405.824C-289.58 407.788 -282.051 407.774 -274.768 407.772L-271.609 407.779C-252.309 407.866 -233.97 410.12 -217.076 414.5C-199.858 418.946 -184.11 425.624 -170.288 434.389C-168.602 435.447 -166.931 436.549 -165.26 437.651C-156.028 443.719 -146.456 450.007 -134.01 451.117C-123.779 452.031 -113.592 449.486 -102.81 446.792C-98.8543 445.804 -94.7958 444.786 -90.7366 443.966C-68.2471 439.398 -43.8291 440.73 -23.7717 447.661C1.2257 456.281 15.8556 459.906 41.8188 455.769C50.4818 454.388 60.173 452.24 69.1139 449.695C83.9473 445.473 110.416 436.203 121.043 421.583C128.169 411.785 128.309 400.407 127.626 391.589C126.778 380.729 124.508 369.543 120.874 358.332L120.215 356.311C117.033 346.686 113.756 336.734 119.455 326.494C121.178 323.401 123.629 320.534 126 317.769C127.123 316.463 128.247 315.157 129.279 313.819C143.167 296.062 141.504 273.582 125.439 261.511C108.608 248.89 101.856 237.915 98.6225 217.992C97.2597 209.605 97.3593 201.393 98.8707 193.568C100.816 183.569 105.036 174.657 111.472 167.107C116.739 160.895 124.743 154.672 135.906 148.063C139.96 145.667 143.893 144.015 147.704 142.418C153.788 139.858 159.529 137.454 164.819 132.3L165.146 131.99C169.634 127.617 174.276 123.101 177.054 118.169C180.153 112.712 180.35 107.371 177.604 103.854C176.393 102.325 174.696 101.132 172.866 99.8587C171.725 99.0596 170.553 98.2495 169.488 97.33C166.509 94.7467 164.066 91.4192 162.191 87.4571C156.615 75.5561 149.131 62.108 135.973 52.5626C123.448 43.4879 108.223 36.9956 94.9883 31.8498C76.2065 24.5362 54.3605 22.4134 33.2532 20.3565C20.0623 19.0631 6.42011 17.7405 -6.54944 15.1812C-17.6765 12.9652 -26.8147 8.98011 -35.6652 5.13004C-42.1476 2.3018 -48.8458 -0.603092 -56.2184 -2.76386C-80.4462 -9.84843 -110.508 -3.08555 -133.975 3.59438C-142.481 6.01549 -150.816 8.64457 -158.901 11.1825C-162.154 12.2071 -165.356 13.2172 -168.486 14.1871C-182.739 18.5993 -198.022 23.2849 -213.163 27.5947C-240.063 35.2519 -261.832 40.4035 -281.669 43.7824C-284.073 44.1906 -286.452 44.5916 -288.861 44.9816C-299.994 46.8296 -311.497 48.7431 -322.334 51.8279L-322.452 51.8023Z" fill="#BB9F73"/>
<path d="M43.6043 435.188C42.3233 435.552 41.068 435.909 39.8536 436.216C15.9799 442.44 0.251812 440.113 -23.9711 432.949C-43.6298 427.127 -65.46 425.157 -85.4547 427.398C-88.9974 427.795 -92.5805 428.342 -96.0612 428.859C-105.996 430.346 -116.274 431.892 -126.398 430.376C-138.196 428.627 -147.524 422.902 -156.519 417.377C-158.426 416.224 -160.307 415.064 -162.204 413.947C-175.833 405.956 -190.938 400.08 -207.127 396.524C-222.854 393.035 -240.261 391.522 -258.867 392.026L-262.216 392.131C-269.298 392.353 -276.647 392.611 -282.919 391.202C-289.458 389.73 -293.7 386.797 -297.777 383.954C-301.988 381.032 -305.962 378.258 -312.311 376.97C-317.777 375.863 -323.861 375.407 -330.31 374.935C-333.788 374.683 -337.384 374.405 -340.899 374.025C-344.414 373.645 -347.477 373.196 -350.233 372.659C-352.05 372.309 -353.78 371.874 -355.377 371.422C-371.631 366.761 -384.447 359.583 -392.469 350.666C-401.783 340.322 -403.714 327.995 -404.994 315.226C-406.179 303.475 -406.715 290.988 -399.212 278.914C-392.776 268.543 -381.944 259.603 -371.465 250.98C-363.927 244.772 -356.123 238.331 -349.982 231.397C-341.849 222.219 -336.586 212.202 -331.024 200.996C-324.877 188.637 -318.828 174.571 -324.941 164.282C-326.958 160.893 -330.04 158.24 -333.301 155.441C-334.505 154.423 -335.683 153.398 -336.815 152.34C-345.022 144.718 -349.317 133.813 -348.593 122.445C-347.814 110.294 -341.468 99.1204 -330.721 90.9538C-311.308 76.2584 -289.678 69.2535 -268.735 62.4637C-253.899 57.6686 -238.613 52.2133 -222.426 46.4224C-202.818 39.4209 -182.553 32.1933 -161.409 25.5239L-155.846 23.7627C-148.151 21.3159 -140.199 18.7962 -132.027 16.4699C-110.763 10.4171 -83.3969 4.20474 -60.5276 10.0196C-53.6899 11.7607 -47.4449 14.1439 -41.4464 16.4394C-33.676 19.4138 -25.6592 22.4757 -16.2264 24.1881C-5.07437 26.1998 6.64407 27.3799 17.9931 28.5271C36.9252 30.4342 56.5397 32.4034 73.9883 38.3414C90.759 44.0386 108.084 49.9329 122.037 59.3507C136.992 69.4692 142.983 85.748 147.439 100.235C148.259 102.92 150.012 105.577 152.626 108.145C153.362 108.882 154.211 109.528 155.075 110.229C156.536 111.371 158.007 112.549 159.073 114.06C161.501 117.53 161.232 122.713 158.357 127.89C155.972 132.158 152.272 135.991 148.674 139.697L147.923 140.463C143.216 145.333 138.142 147.842 133.268 150.275C130.335 151.741 127.298 153.236 124.254 155.286C115.77 160.994 109.778 166.308 105.908 171.492C101.211 177.759 98.1445 185.178 96.8093 193.525C95.7501 200.117 95.7641 207.074 96.8558 214.217C99.4848 231.236 104.647 240.711 117.318 251.756C130.611 263.333 131.318 283.621 119.024 299.977C118.121 301.181 117.156 302.363 116.19 303.545C114.173 305.992 112.289 308.323 110.923 310.822C106.407 319.088 108.596 327.457 110.701 335.534L111.174 337.391C113.889 347.997 115.322 357.606 115.59 366.818C115.825 375.329 115.274 386.43 108.929 396.636C97.8316 414.565 67.8861 428.354 43.5738 435.275L43.6043 435.188ZM-131.533 18.3014C-139.655 20.6131 -147.58 23.1255 -155.25 25.565L-160.813 27.3262C-181.911 33.9627 -202.145 41.2013 -221.702 48.1882C-237.915 53.9864 -253.226 59.449 -268.114 64.2587C-288.754 70.9427 -310.107 77.8491 -329.065 92.1981C-351.414 109.129 -349.979 136.742 -334.697 150.928C-333.57 151.968 -332.397 152.975 -331.224 153.982C-327.999 156.752 -324.665 159.609 -322.529 163.221C-316.07 174.141 -322.271 188.645 -328.617 201.376C-334.25 212.72 -339.59 222.858 -347.907 232.265C-354.17 239.353 -362.067 245.86 -369.697 252.133C-380.488 261.022 -390.67 269.422 -396.897 279.457C-404.114 291.076 -403.612 302.764 -402.421 314.73C-401.152 327.266 -399.263 339.348 -390.232 349.378C-382.447 358.047 -369.939 365.017 -354.075 369.572C-352.54 370.003 -350.903 370.405 -349.142 370.752C-346.473 371.274 -343.497 371.708 -340.065 372.092C-336.606 372.468 -333.041 372.735 -329.588 372.994C-323.052 373.48 -316.886 373.934 -311.215 375.08C-304.368 376.464 -300.018 379.485 -295.808 382.408C-291.7 385.261 -287.833 387.947 -281.741 389.308C-275.853 390.63 -268.72 390.394 -261.833 390.169L-258.458 390.056C-239.581 389.533 -221.917 391.072 -205.954 394.613C-189.524 398.238 -174.152 404.176 -160.348 412.295C-158.426 413.404 -156.539 414.583 -154.627 415.754C-145.833 421.158 -136.704 426.763 -125.431 428.425C-115.773 429.856 -106.213 428.417 -96.0629 426.908C-92.5566 426.383 -88.917 425.84 -85.3231 425.428C-64.9029 423.126 -42.6469 425.132 -22.6237 431.066C1.02945 438.078 16.3573 440.36 39.4316 434.344C40.6152 434.027 41.8501 433.695 43.1055 433.338C66.8029 426.592 95.9549 413.226 106.64 395.987C112.714 386.192 113.246 375.412 113.017 367.116C112.78 358.014 111.347 348.503 108.663 338.007L108.19 336.15C106.002 327.781 103.735 319.138 108.582 310.285C110.034 307.604 112.093 305.105 114.084 302.665C115.029 301.509 115.974 300.352 116.862 299.192C128.635 283.536 127.967 264.165 115.266 253.109C102.451 241.948 96.9585 231.896 94.3085 214.706C93.2009 207.409 93.1966 200.292 94.2706 193.558C95.656 184.901 98.8399 177.211 103.741 170.689C107.789 165.257 114.001 159.742 122.787 153.83C125.995 151.674 129.149 150.106 132.18 148.593C137.034 146.186 141.642 143.888 145.986 139.398L146.737 138.632C150.202 135.043 153.825 131.329 156.037 127.328C158.621 122.688 158.903 118.131 156.769 115.11C155.841 113.797 154.514 112.735 153.09 111.622C152.2 110.929 151.305 110.217 150.497 109.422C147.698 106.689 145.831 103.829 144.918 100.914C140.535 86.6816 134.647 70.6691 120.134 60.8389C106.423 51.5889 89.2212 45.7384 72.6045 40.096C55.4332 34.2565 36.0188 32.3092 17.2304 30.4203C5.82491 29.2695 -5.94993 28.0858 -17.22 26.0485C-26.8889 24.285 -35.029 21.1793 -42.9174 18.1793C-48.8799 15.913 -55.0377 13.5444 -61.7265 11.8398C-83.8771 6.21479 -110.644 12.2959 -131.498 18.232L-131.533 18.3014Z" fill="#BB9F73"/>
<path d="M28.8378 417.365C13.569 421.711 -0.772596 421.337 -22.3375 416.018C-42.6806 411.003 -62.7538 408.395 -80.3095 408.502C-83.3509 408.52 -86.3971 408.618 -89.4177 408.709C-98.6947 409.003 -108.3 409.312 -117.749 407.249C-127.994 405.018 -136.623 400.1 -144.953 395.352C-147.204 394.06 -149.455 392.769 -151.742 391.546C-165.39 384.171 -180.174 379.033 -195.642 376.258C-210.684 373.519 -227.022 372.747 -245.559 373.883C-246.81 373.963 -248.036 374.036 -249.287 374.116C-255.835 374.56 -262.603 375.008 -268.591 374.306C-274.984 373.543 -279.658 371.62 -284.194 369.795C-288.641 367.985 -293.249 366.102 -299.493 365.375C-304.337 364.801 -309.487 364.611 -314.95 364.391C-318.956 364.23 -323.1 364.069 -327.179 363.751C-330.519 363.499 -333.469 363.155 -336.168 362.721C-337.908 362.447 -339.581 362.115 -341.157 361.735C-352.655 358.994 -368.118 353.417 -376.603 342.384C-384.254 332.434 -383.045 320.436 -382.015 309.849L-381.822 307.803C-381.723 306.788 -381.644 305.8 -381.551 304.767C-380.796 296.034 -379.992 286.99 -373.756 278.057C-367.994 269.791 -359.039 262.529 -350.38 255.489C-343.788 250.142 -336.996 244.62 -331.575 238.66C-324.381 230.755 -319.58 222.132 -314.928 213.275C-309.16 202.306 -304.333 190.953 -308.209 182.296C-309.522 179.337 -311.695 176.958 -313.961 174.448C-314.769 173.554 -315.577 172.66 -316.34 171.733C-327.14 158.894 -327.492 135.863 -309.362 119.581C-293.952 105.709 -277.849 94.9532 -255.552 83.578C-222.955 66.9437 -190.596 51.028 -153.597 39.1551L-152.828 38.9363C-145.323 36.5041 -137.53 34.0099 -129.486 31.7201C-111.015 26.4622 -87.1542 20.9716 -66.4804 25.2028C-60.3008 26.4806 -54.5809 28.2836 -49.0459 30.0209C-42.2581 32.1706 -35.2341 34.3715 -27.2235 35.6604C-17.9146 37.132 -8.192 38.1111 1.18683 39.0501C17.9795 40.7379 35.3724 42.4916 51.1547 47.1489L55.144 48.3206C72.8515 53.5144 91.1649 58.8908 105.671 68.1117C121.708 78.3361 131.116 96.403 129.634 114.158L130.017 115.016C130.891 117.015 131.785 119.087 133.201 120.755C133.737 121.371 134.344 121.948 134.951 122.524C135.975 123.495 137.035 124.494 137.753 125.75C139.44 128.661 139.08 132.747 136.797 136.986C135.013 140.254 132.346 143.242 129.761 146.127L128.714 147.312C125.128 151.35 121.412 153.67 117.82 155.935C115.588 157.339 113.285 158.783 111.015 160.633C104.883 165.652 100.549 170.277 97.7956 174.807C94.5267 180.155 92.4459 186.466 91.6397 193.558C91.0026 199.103 91.1104 205.027 91.973 211.171C94.0494 225.665 97.9259 234.224 106.797 243.886C116.342 254.263 116.052 271.245 106.12 285.194C105.39 286.23 104.599 287.244 103.813 288.276C102.255 290.297 100.662 292.387 99.5005 294.532C95.7043 301.627 96.9397 308.788 98.1128 315.731L98.3955 317.405C100.024 327.117 100.642 335.125 100.386 342.592C100.106 350.56 99.1321 360.953 94.0992 370.806C84.6295 389.395 58.992 406.06 37.7823 414.345C34.6682 415.567 31.738 416.559 28.8174 417.39L28.8378 417.365ZM-129.045 33.0736C-137.039 35.3489 -144.805 37.8358 -152.29 40.2424L-153.059 40.4612C-189.848 52.294 -222.084 68.155 -254.584 84.7419C-276.66 96.015 -292.599 106.665 -307.882 120.402C-323.271 134.248 -326.28 156.855 -314.553 170.811C-313.796 171.719 -312.987 172.613 -312.184 173.489C-309.955 175.97 -307.623 178.52 -306.237 181.636C-302.184 190.717 -307.093 202.368 -313.003 213.614C-317.711 222.566 -322.569 231.284 -329.911 239.349C-335.439 245.419 -342.297 251 -348.961 256.387C-357.891 263.642 -366.355 270.488 -371.954 278.55C-377.976 287.166 -378.745 296.041 -379.495 304.596C-379.594 305.61 -379.667 306.617 -379.766 307.631L-379.959 309.678C-381.039 320.575 -382.174 331.862 -374.76 341.465C-366.532 352.177 -351.414 357.615 -340.182 360.294C-338.668 360.652 -337.051 360.981 -335.368 361.251C-332.731 361.663 -329.862 362.01 -326.579 362.259C-322.557 362.573 -318.438 362.742 -314.462 362.892C-308.948 363.097 -303.737 363.309 -298.811 363.879C-292.305 364.65 -287.574 366.577 -283.003 368.431C-278.396 370.314 -274.041 372.091 -267.935 372.818C-262.173 373.505 -255.517 373.05 -249.102 372.624C-247.851 372.544 -246.6 372.463 -245.349 372.383C-226.622 371.233 -210.084 372.027 -194.867 374.795C-179.194 377.61 -164.251 382.822 -150.413 390.28C-148.126 391.503 -145.875 392.795 -143.593 394.097C-135.361 398.794 -126.861 403.651 -116.888 405.801C-107.71 407.783 -98.7051 407.507 -89.1254 407.206C-86.0792 407.108 -83.033 407.01 -79.9609 407.003C-62.2102 406.9 -41.9678 409.518 -21.4193 414.574C-0.301038 419.783 13.6868 420.179 28.4689 415.971C31.2869 415.169 34.1403 414.199 37.1827 413.017C57.9673 404.892 83.0982 388.589 92.3388 370.459C97.2443 360.84 98.2088 350.607 98.4942 342.756C98.771 335.362 98.1433 327.416 96.5351 317.777L96.2575 316.121C95.0324 308.996 93.7708 301.645 97.7862 294.152C98.999 291.894 100.658 289.746 102.251 287.655C103.017 286.649 103.788 285.66 104.518 284.624C114.118 271.164 114.384 254.78 105.2 244.794C96.1693 234.961 92.2204 226.245 90.1073 211.525C89.2496 205.301 89.1466 199.296 89.7834 193.652C90.6196 186.375 92.7614 179.888 96.1169 174.358C98.9881 169.656 103.469 164.871 109.755 159.709C112.138 157.769 114.507 156.266 116.81 154.822C120.429 152.55 123.837 150.416 127.214 146.615L128.287 145.422C130.811 142.614 133.391 139.71 135.083 136.606C137.172 132.758 137.533 129.066 136.022 126.479C135.372 125.362 134.425 124.469 133.426 123.491C132.783 122.885 132.165 122.272 131.594 121.626C130.059 119.835 129.144 117.69 128.224 115.625L127.748 114.537L127.763 114.395C129.256 96.9719 120.06 79.2589 104.356 69.2352C90.0511 60.1346 71.8558 54.7838 54.2715 49.6337L50.2823 48.4621C34.6848 43.8705 17.4304 42.1169 0.724967 40.4436C-8.68467 39.4937 -18.4329 38.5219 -27.8034 37.0284C-35.9577 35.7212 -43.0485 33.4802 -49.9184 31.3341C-55.3969 29.6004 -61.086 27.8084 -67.1731 26.5635C-87.3235 22.4199 -110.79 27.8376 -128.979 33.0152L-129.045 33.0736Z" fill="#BB9F73"/>
<path d="M20.2089 399.016C8.60357 402.32 -4.01848 402.344 -20.7141 399.051L-25.7028 398.065C-42.1932 394.812 -59.2634 391.468 -75.0722 389.539C-77.3401 389.258 -79.5976 389.013 -81.8552 388.768C-90.7725 387.797 -99.9772 386.789 -109.029 384.08C-117.505 381.544 -125.162 377.511 -132.561 373.603C-135.397 372.103 -138.362 370.541 -141.265 369.1C-155.136 362.302 -169.153 358.009 -184.116 355.939C-198.248 353.967 -213.978 353.869 -232.185 355.68C-233.666 355.826 -235.174 355.979 -236.676 356.15C-242.562 356.78 -248.668 357.414 -254.253 357.347C-260.644 357.274 -265.884 356.379 -270.949 355.514C-275.722 354.703 -280.669 353.863 -286.619 353.684C-290.363 353.566 -294.179 353.588 -298.221 353.594C-303.201 353.612 -308.345 353.637 -313.398 353.399C-316.568 353.256 -319.374 353.029 -322.011 352.715C-323.674 352.518 -325.295 352.27 -326.845 351.981C-343.207 348.889 -355.179 342.536 -360.584 334.057C-366.829 324.279 -362.812 312.802 -359.262 302.701L-358.455 300.381C-357.927 298.831 -357.435 297.251 -356.948 295.654C-355.077 289.58 -353.15 283.312 -348.109 277.184C-343.099 271.045 -336.092 265.501 -329.31 260.139C-323.612 255.638 -317.74 250.97 -312.972 245.925C-306.667 239.279 -302.256 231.911 -298.611 225.549C-293.916 217.33 -289.374 207.893 -291.247 200.341C-291.861 197.795 -293.099 195.682 -294.379 193.424C-294.812 192.68 -295.251 191.917 -295.638 191.14C-302.308 178.703 -299.007 160.627 -287.792 148.166C-271.362 129.902 -258.605 116.924 -242.056 104.622C-208.779 79.8666 -178.13 63.3925 -145.656 52.7484C-140.512 51.0674 -133.714 48.8759 -126.822 46.9142C-103.945 40.402 -86.6216 38.3105 -72.2793 40.3409C-66.5989 41.1298 -61.2606 42.3709 -56.0711 43.5755C-50.4042 44.9006 -44.5373 46.2477 -38.0977 47.0767C-31.0886 47.9606 -23.8544 48.6621 -16.8768 49.338C-1.70055 50.7959 14.0144 52.2975 28.4185 55.9077L32.6227 56.9589C52.5605 61.9124 73.1861 67.0446 89.3762 76.8313C107.386 87.7564 116.392 108.304 111.84 128.018L112.058 128.784C112.504 130.353 112.992 131.969 113.822 133.33C114.137 133.851 114.493 134.322 114.853 134.811C115.446 135.628 116.07 136.457 116.463 137.449C117.389 139.729 116.928 142.877 115.247 146.117C114.044 148.411 112.359 150.567 110.705 152.635C110.296 153.146 109.893 153.675 109.484 154.185C107.095 157.271 104.779 159.351 102.524 161.353C100.867 162.83 99.3028 164.242 97.7293 166.011C93.9743 170.235 91.26 174.32 89.6629 178.147C87.8165 182.557 86.7622 187.61 86.4702 193.589C86.2502 198.168 86.4723 203.034 87.0798 208.087C88.5529 220.17 91.036 227.725 96.2346 235.967C102.047 245.198 100.853 258.71 93.2107 270.39C92.629 271.266 92.0422 272.123 91.4297 272.988C90.2509 274.684 89.0056 276.438 88.0732 278.222C84.996 284.146 85.2784 290.1 85.5396 295.882L85.6012 297.364C85.8651 303.934 86.0027 311.033 85.1665 318.311C84.2353 326.326 82.9292 335.65 79.2177 344.989C72.1354 362.82 55.0238 381.416 35.6083 392.405C30.3872 395.37 25.3223 397.521 20.1729 398.987L20.2089 399.016ZM-126.532 47.8372C-133.398 49.7916 -140.145 51.9685 -145.288 53.6496C-177.589 64.2244 -208.064 80.6292 -241.208 105.267C-257.665 117.505 -270.38 130.432 -286.75 148.619C-297.714 160.791 -300.934 178.469 -294.419 190.655C-294.006 191.425 -293.573 192.169 -293.165 192.921C-291.901 195.124 -290.616 197.401 -289.955 200.013C-288.03 207.846 -292.638 217.44 -297.425 225.822C-301.08 232.246 -305.532 239.666 -311.945 246.421C-316.774 251.543 -322.722 256.233 -328.441 260.76C-335.151 266.081 -342.092 271.567 -347.02 277.604C-351.913 283.572 -353.809 289.751 -355.65 295.738C-356.137 297.335 -356.624 298.933 -357.172 300.509L-357.98 302.829C-361.463 312.774 -365.425 324.057 -359.37 333.554C-354.11 341.817 -342.369 348.039 -326.331 351.066C-324.811 351.343 -323.241 351.606 -321.609 351.792C-319.003 352.096 -316.222 352.329 -313.109 352.469C-308.112 352.703 -302.968 352.678 -298.019 352.65C-293.952 352.636 -290.136 352.614 -286.366 352.724C-280.303 352.911 -275.325 353.762 -270.496 354.576C-265.256 355.471 -260.309 356.31 -254.031 356.377C-248.558 356.436 -242.509 355.799 -236.674 355.183C-235.167 355.03 -233.665 354.859 -232.183 354.713C-213.838 352.903 -197.974 352.982 -183.724 354.979C-168.618 357.068 -154.447 361.415 -140.478 368.265C-137.544 369.717 -134.584 371.261 -131.743 372.779C-124.38 376.658 -116.78 380.686 -108.427 383.179C-99.524 385.851 -90.776 386.812 -81.5201 387.805C-79.2625 388.05 -77.005 388.295 -74.7114 388.569C-58.8514 390.483 -41.7452 393.856 -25.2292 397.102L-20.2405 398.087C-3.81176 401.318 8.56412 401.306 19.8877 398.082C24.9089 396.653 29.8254 394.563 34.9288 391.671C50.6281 382.805 70.009 364.885 77.9455 344.898C81.6265 335.646 82.9226 326.384 83.8437 318.431C84.6903 311.19 84.5375 304.134 84.2787 297.582L84.2171 296.101C83.9556 290.22 83.6677 284.15 86.857 278.036C87.825 276.183 89.0652 274.41 90.2849 272.663C90.8717 271.806 91.4893 270.959 92.0454 270.091C99.5194 258.696 100.694 245.504 95.0312 236.507C89.7758 228.163 87.2719 220.534 85.7677 208.342C85.1499 203.253 84.943 198.342 85.1525 193.728C85.4442 187.65 86.5033 182.517 88.4058 178.012C90.0538 174.072 92.8499 169.885 96.6609 165.566C98.2753 163.746 99.9523 162.243 101.563 160.798C103.772 158.829 106.047 156.801 108.35 153.799C108.753 153.27 109.161 152.759 109.59 152.223C111.199 150.187 112.869 148.075 114.015 145.876C115.594 142.863 116.01 139.944 115.167 137.857C114.799 136.956 114.248 136.186 113.635 135.395C113.269 134.887 112.908 134.399 112.563 133.866C111.711 132.432 111.213 130.779 110.751 129.156L110.486 128.226L110.486 128.127C115.034 108.69 106.157 88.4019 88.3892 77.6447C72.3584 67.931 51.8251 62.8316 31.949 57.9L27.7448 56.8488C13.4331 53.2715 -2.22543 51.7735 -17.3452 50.3193C-24.3485 49.6507 -31.5826 48.9492 -38.6225 48.0544C-45.1494 47.2107 -51.0471 45.8527 -56.7448 44.5167C-61.9035 43.323 -67.211 42.0928 -72.8094 41.3003C-86.9207 39.3027 -104.023 41.3906 -126.645 47.8299L-126.532 47.8372Z" fill="#BB9F73"/>
<path d="M13.8431 380.932C4.51785 383.586 -6.25654 383.971 -19.1364 382.116C-37.6815 379.428 -55.4597 374.57 -69.7572 370.654C-79.7269 367.931 -90.0304 365.105 -100.282 361.003C-106.281 358.609 -112.086 355.727 -117.722 352.953C-121.977 350.851 -126.39 348.676 -130.823 346.724C-144.687 340.633 -158.393 337.041 -172.682 335.686C-186.063 334.407 -200.765 335.003 -218.928 337.551C-221.06 337.842 -223.208 338.177 -225.361 338.494C-230.221 339.227 -235.27 339.974 -240.038 340.444C-247.231 341.151 -253.493 341.336 -260.114 341.525C-264.483 341.644 -269.011 341.79 -273.857 342.084C-275.083 342.157 -276.308 342.23 -277.529 342.321C-284.795 342.772 -292.302 343.253 -299.667 343.16C-302.611 343.131 -305.33 343.017 -307.936 342.813C-309.521 342.692 -311.091 342.528 -312.62 342.312C-322.103 341.008 -338.878 337.146 -344.584 325.854C-349.728 315.664 -342.742 304.112 -335.128 293.11C-334.245 291.834 -333.393 290.546 -332.506 289.189C-329.751 284.954 -326.868 280.584 -322.523 276.389C-318.506 272.504 -313.651 268.835 -308.96 265.272C-303.927 261.453 -298.735 257.51 -294.39 253.217C-289.095 247.982 -285.161 242.248 -282.34 237.856C-277.096 229.718 -274.563 223.535 -274.304 218.413C-274.209 216.217 -274.462 214.258 -274.746 212.189C-274.815 211.656 -274.883 211.124 -274.952 210.591C-276.271 200.022 -272.855 186.725 -266.202 176.727C-264.615 174.323 -263.049 171.945 -261.483 169.566C-251.274 154.06 -241.652 139.41 -228.458 125.637C-201.47 97.4662 -170.946 77.5373 -137.699 66.3971C-132.868 64.7854 -128.421 63.3815 -124.091 62.1491C-106.081 57.0224 -91.0202 54.8649 -78.0623 55.5344C-72.358 55.8235 -67.073 56.4882 -61.475 57.1822C-57.4574 57.6753 -53.2909 58.2049 -48.9506 58.5667C-46.2264 58.7969 -43.5074 59.0089 -40.7575 59.2318C-25.1973 60.4818 -9.1293 61.7646 5.75991 64.7437C28.2246 69.2341 53.6866 74.3307 73.1593 85.6281C97.6171 99.8448 95.957 129.719 94.1069 141.9C93.9064 143.239 94.1622 144.527 94.4333 145.771L94.48 145.935C94.543 146.351 94.652 146.734 94.7611 147.117C94.9428 147.755 95.1297 148.412 95.1989 149.142C95.4218 151.287 94.5428 153.647 93.7534 155.252C93.1119 156.598 92.2855 157.878 91.5103 159.144C91.0921 159.815 90.6943 160.461 90.3016 161.125C89.5521 162.383 88.8739 163.503 88.2569 164.547C86.8035 166.932 85.5388 169.008 84.4448 171.488C82.964 174.848 81.9963 178.259 81.5669 181.615C81.017 185.716 81.1654 190.031 81.3834 193.716C81.5955 197.185 81.8804 200.91 82.2694 205.098C83.0682 213.547 83.8314 220.607 85.7245 228.133C87.7063 236.068 85.7112 246.377 80.3892 255.701C79.9814 256.409 79.5479 257.124 79.1144 257.839C78.2832 259.199 77.4367 260.604 76.7595 262.019C74.427 266.765 73.7411 271.555 73.0956 276.195L72.8851 277.596C72.1192 282.981 71.2975 288.559 70.0552 294.118C69.5705 296.307 69.0864 298.693 68.5875 301.221C67.4937 306.718 66.2434 312.931 64.4347 319.322C58.4061 340.758 47.0853 359.46 33.4198 370.607C27.3747 375.542 20.9704 378.923 13.8739 380.943L13.8431 380.932ZM-123.961 62.6051C-128.265 63.8302 -132.718 65.2159 -137.523 66.8204C-170.617 77.9168 -201.043 97.7982 -227.949 125.867C-241.103 139.589 -250.725 154.238 -260.913 169.72C-262.479 172.098 -264.04 174.495 -265.658 176.887C-272.224 186.802 -275.645 199.982 -274.321 210.471C-274.253 211.003 -274.184 211.536 -274.121 212.051C-273.858 214.046 -273.573 216.115 -273.684 218.355C-273.947 223.557 -276.521 229.791 -281.801 237.999C-284.642 242.416 -288.597 248.176 -293.933 253.461C-298.298 257.78 -303.51 261.748 -308.569 265.574C-313.24 269.112 -318.069 272.774 -322.04 276.626C-326.344 280.77 -329.181 285.107 -331.941 289.324C-332.788 290.63 -333.681 291.969 -334.558 293.264C-342.096 304.145 -349.026 315.603 -343.965 325.599C-338.335 336.716 -321.766 340.538 -312.402 341.816C-310.903 342.021 -309.359 342.192 -307.774 342.313C-305.167 342.518 -302.479 342.62 -299.561 342.657C-292.226 342.738 -284.72 342.258 -277.479 341.814C-276.254 341.741 -275.028 341.668 -273.808 341.577C-268.936 341.275 -264.428 341.155 -260.033 341.028C-253.413 340.84 -247.177 340.662 -240.009 339.963C-235.241 339.493 -230.222 338.734 -225.358 338.02C-223.205 337.703 -221.051 337.386 -218.924 337.076C-200.679 334.525 -185.921 333.933 -172.489 335.197C-158.118 336.549 -144.376 340.17 -130.45 346.283C-125.991 348.228 -121.578 350.403 -117.319 352.523C-111.683 355.296 -105.882 358.161 -99.9091 360.562C-89.7192 364.642 -79.4157 367.467 -69.4768 370.179C-55.2101 374.085 -37.4267 378.961 -18.9432 381.627C-6.2018 383.482 4.49053 383.101 13.6877 380.483C20.6816 378.492 26.9631 375.166 32.9213 370.315C46.4947 359.234 57.7134 340.659 63.7371 319.304C65.5254 312.938 66.7705 306.707 67.8694 301.228C68.3684 298.7 68.8525 296.314 69.3372 294.125C70.5847 288.584 71.3807 283.013 72.1467 277.629L72.3316 276.235C72.9975 271.569 73.673 266.743 76.0411 261.928C76.7388 260.487 77.6109 259.075 78.4369 257.696C78.8704 256.981 79.2782 256.274 79.6861 255.566C84.9776 246.33 86.9526 236.145 84.9968 228.301C83.0933 220.738 82.3301 213.679 81.5261 205.211C81.1371 201.023 80.8523 197.298 80.6401 193.829C80.4169 190.126 80.2889 185.785 80.8336 181.666C81.2834 178.284 82.2664 174.83 83.7624 171.426C84.8769 168.92 86.1416 166.845 87.6154 164.433C88.258 163.383 88.9414 162.281 89.6654 161.03C90.058 160.366 90.4762 159.695 90.8996 159.042C91.68 157.794 92.4808 156.521 93.1275 155.194C93.876 153.64 94.7246 151.367 94.5225 149.295C94.4636 148.602 94.2767 147.945 94.1002 147.325C93.9859 146.923 93.8769 146.54 93.7831 146.113L93.7363 145.949C93.5013 144.734 93.2196 143.355 93.4301 141.955C95.2701 129.836 96.9257 100.14 72.6735 86.0622C53.2677 74.8049 27.8673 69.7302 5.45904 65.2434C-9.37374 62.268 -25.4418 60.9852 -40.9712 59.7462C-43.721 59.5232 -46.44 59.3113 -49.1643 59.081C-53.5097 58.701 -57.6966 58.1969 -61.7143 57.7038C-67.2866 57.0026 -72.5665 56.3561 -78.24 56.078C-91.1157 55.4049 -106.095 57.5587 -124.002 62.6562L-123.961 62.6051Z" fill="#BB9F73"/>
<path d="M-3.31429 236.796C-4.64647 237.175 -6.13792 237.481 -7.70655 237.711C-11.6231 238.254 -15.0768 237.699 -17.1951 236.192C-20.8045 233.63 -21.2316 228.822 -21.5797 224.583C-21.7299 222.693 -21.885 220.884 -22.3004 219.424C-23.1779 216.341 -24.2375 212.522 -27.6299 210.431C-30.7497 208.519 -35.4435 208.277 -39.5986 208.08L-68.2945 206.605C-71.3262 206.463 -74.7324 206.269 -77.547 205.137C-81.8664 203.389 -84.3628 199.387 -84.0459 194.663C-83.4893 186.597 -76.1757 179.21 -68.088 171.722L-50.8541 155.793C-38.7532 144.599 -25.5167 136.907 -11.5032 132.918C-5.40595 131.182 0.816988 130.18 7.03229 129.929C18.9962 129.442 28.044 132.526 31.1974 138.155C35.5738 145.941 29.1765 154.309 23.5759 161.681C21.7635 164.07 20.0224 166.321 18.6555 168.524C12.2904 178.756 9.03549 189.602 9.22528 199.9C9.26953 202.294 9.5343 204.683 9.78938 207.233C10.4473 213.534 11.1112 220.049 8.63049 226.415C6.56146 231.697 2.67531 235.071 -3.29388 236.77L-3.31429 236.796ZM-10.9788 134.76C-24.4543 138.596 -37.2095 146.033 -48.9425 156.866L-66.1763 172.795C-73.9368 179.973 -80.9337 187.013 -81.431 194.411C-81.7143 198.475 -79.6303 201.905 -76.0299 203.365C-73.6211 204.335 -70.5894 204.478 -67.6654 204.632L-38.9694 206.106C-34.7271 206.318 -29.4127 206.6 -25.7891 208.822C-21.8366 211.227 -20.6835 215.375 -19.7385 218.695C-19.2867 220.282 -19.1469 222.135 -18.976 224.098C-18.6281 228.239 -18.2492 232.489 -15.2259 234.645C-13.596 235.798 -10.8507 236.2 -7.70823 235.759C-0.3058 234.717 3.93592 231.813 6.13201 226.199C8.47039 220.209 7.82766 213.865 7.19082 207.736C6.9309 205.266 6.67582 202.716 6.62118 200.287C6.39956 189.682 9.75588 178.512 16.3097 167.969C17.7326 165.671 19.489 163.377 21.3474 160.955C26.9176 153.67 32.6408 146.145 28.7494 139.188C25.9367 134.171 17.6851 131.452 6.68015 131.903C0.767427 132.146 -5.19412 133.094 -10.984 134.742L-10.9788 134.76Z" fill="#BB9F73"/>
<path d="M-11.4692 198.515C-12.2122 198.727 -12.9198 198.77 -13.6073 198.69C-15.3674 198.442 -16.31 197.27 -17.0734 196.048C-18.4609 193.801 -19.6334 191.433 -20.5241 188.985C-20.6124 188.675 -20.7571 188.361 -20.871 188.058C-21.8447 185.318 -22.8753 182.476 -25.7529 180.929C-27.6798 179.9 -30.2403 179.564 -32.7135 179.243C-35.3612 178.892 -38.0909 178.545 -40.1518 177.337C-42.9169 175.699 -43.7321 172.835 -44.1392 170.821C-44.9647 166.461 -44.157 162.781 -41.6847 159.888C-38.3594 156.003 -32.5144 153.965 -27.7749 152.616C-27.0064 152.397 -26.2634 152.185 -25.5153 151.992C-17.9674 150.001 -9.40799 148.354 -3.40257 151.16C-2.41107 151.627 -0.165294 152.901 -0.609521 154.94C-0.79649 155.742 -1.35806 156.494 -1.93 157.209L-2.23118 157.61C-6.71357 163.559 -5.69075 170.071 -4.7046 176.357C-3.74995 182.435 -2.76379 188.721 -6.5794 194.678C-7.51798 196.148 -9.30683 197.939 -11.4844 198.559L-11.4692 198.515ZM-27.5991 153.039C-32.2105 154.351 -37.9325 156.335 -41.1097 160.059C-43.4798 162.824 -44.2675 166.381 -43.4475 170.624C-42.8469 173.707 -41.6397 175.71 -39.6661 176.903C-37.7337 178.049 -35.0604 178.392 -32.4743 178.721C-29.9446 179.046 -27.3225 179.404 -25.298 180.484C-22.2612 182.104 -21.2354 185.027 -20.2153 187.832C-20.1218 188.16 -19.9823 188.456 -19.8684 188.759C-18.9829 191.189 -17.8156 193.538 -16.4333 195.767C-15.7215 196.906 -14.8612 197.982 -13.3577 198.205C-12.783 198.278 -12.183 198.245 -11.5682 198.07C-9.59554 197.508 -7.92441 195.79 -7.098 194.51C-3.35371 188.692 -4.34472 182.486 -5.27861 176.481C-6.29072 170.104 -7.30871 163.512 -2.70376 157.409L-2.40254 157.008C-1.87664 156.326 -1.35077 155.644 -1.19426 154.929C-0.81063 153.163 -2.86113 151.992 -3.75501 151.576C-9.56518 148.872 -17.9349 150.505 -25.3599 152.441C-26.1028 152.652 -26.851 152.846 -27.6195 153.064L-27.5991 153.039Z" fill="#BB9F73"/>
</g>
<defs>
<clipPath id="clip0_121_14099">
<rect width="205" height="482" fill="white"/>
</clipPath>
</defs>
</svg>
