<svg width="272" height="75" viewBox="0 0 272 75" fill="none" xmlns="http://www.w3.org/2000/svg">
<path d="M71.6104 48.5454C71.6104 46.864 72.8808 45.5188 74.6697 45.5188C75.7483 45.5188 76.6972 46.0776 77.1898 46.9364L76.5157 47.3296C76.1839 46.688 75.4735 46.269 74.6697 46.269C73.3008 46.269 72.383 47.2623 72.383 48.5454C72.383 49.8285 73.3008 50.8115 74.6697 50.8115C75.4735 50.8115 76.1787 50.3976 76.5157 49.7612L77.1898 50.1441C76.7076 51.0029 75.7535 51.5668 74.6697 51.5668C72.8808 51.5668 71.6104 50.2165 71.6104 48.5402V48.5454Z" fill="#182946"/>
<path d="M82.4062 47.2933V51.4581H81.6803V50.739C81.3484 51.246 80.8143 51.5616 80.1039 51.5616C78.9424 51.5616 77.9883 50.6045 77.9883 49.368C77.9883 48.1314 78.9424 47.1743 80.1039 47.1743C80.8143 47.1743 81.3484 47.4899 81.6803 47.9969V47.283H82.4062V47.2933ZM81.6803 49.3783C81.6803 48.5298 81.0373 47.8883 80.1921 47.8883C79.3469 47.8883 78.7142 48.5298 78.7142 49.3783C78.7142 50.2268 79.3572 50.8683 80.1921 50.8683C81.0269 50.8683 81.6803 50.2268 81.6803 49.3783Z" fill="#182946"/>
<path d="M87.4563 48.9019V51.4577H86.7303V48.9433C86.7303 48.2604 86.3362 47.8776 85.6932 47.8776C85.0503 47.8776 84.4799 48.2708 84.4799 49.2537V51.4629H83.7539V47.2981H84.4799V47.8982C84.791 47.4067 85.2473 47.1895 85.8333 47.1895C86.8081 47.1895 87.4511 47.8413 87.4511 48.9071L87.4563 48.9019Z" fill="#182946"/>
<path d="M92.8965 47.2931V51.4579H92.1705V50.7387C91.8387 51.2458 91.3046 51.5614 90.5942 51.5614C89.4326 51.5614 88.4785 50.6042 88.4785 49.3677C88.4785 48.1312 89.4326 47.1741 90.5942 47.1741C91.3046 47.1741 91.8387 47.4897 92.1705 47.9967V47.2827H92.8965V47.2931ZM92.1705 49.3781C92.1705 48.5296 91.5275 47.888 90.6823 47.888C89.8371 47.888 89.2045 48.5296 89.2045 49.3781C89.2045 50.2265 89.8475 50.8681 90.6823 50.8681C91.5172 50.8681 92.1705 50.2265 92.1705 49.3781Z" fill="#182946"/>
<path d="M98.4346 45.6273V51.4581H97.7086V50.7389C97.3767 51.2459 96.8426 51.5615 96.1322 51.5615C94.9707 51.5615 94.0166 50.6044 94.0166 49.3679C94.0166 48.1314 94.9707 47.1743 96.1322 47.1743C96.8426 47.1743 97.3767 47.4899 97.7086 47.9969V45.6118H98.4346V45.6273ZM97.7086 49.3783C97.7086 48.5298 97.0656 47.8882 96.2204 47.8882C95.3752 47.8882 94.7426 48.5298 94.7426 49.3783C94.7426 50.2267 95.3855 50.8683 96.2204 50.8683C97.0552 50.8683 97.7086 50.2267 97.7086 49.3783Z" fill="#182946"/>
<path d="M99.6582 46.0516C99.6582 45.7825 99.876 45.5601 100.151 45.5601C100.426 45.5601 100.633 45.7825 100.633 46.0516C100.633 46.3206 100.415 46.5327 100.151 46.5327C99.8864 46.5327 99.6582 46.3154 99.6582 46.0516ZM99.7826 47.2932H100.509V51.4581H99.7826V47.2932Z" fill="#182946"/>
<path d="M106.053 47.2933V51.4581H105.327V50.739C104.995 51.246 104.461 51.5616 103.75 51.5616C102.589 51.5616 101.635 50.6045 101.635 49.368C101.635 48.1314 102.589 47.1743 103.75 47.1743C104.461 47.1743 104.995 47.4899 105.327 47.9969V47.283H106.053V47.2933ZM105.327 49.3783C105.327 48.5298 104.684 47.8883 103.839 47.8883C102.993 47.8883 102.361 48.5298 102.361 49.3783C102.361 50.2268 103.004 50.8683 103.839 50.8683C104.673 50.8683 105.327 50.2268 105.327 49.3783Z" fill="#182946"/>
<path d="M111.102 48.9019V51.4577H110.376V48.9433C110.376 48.2604 109.982 47.8776 109.339 47.8776C108.696 47.8776 108.125 48.2708 108.125 49.2537V51.4629H107.399V47.2981H108.125V47.8982C108.436 47.4067 108.893 47.1895 109.479 47.1895C110.454 47.1895 111.097 47.8413 111.097 48.9071L111.102 48.9019Z" fill="#182946"/>
<path d="M115.551 45.6274V51.4582H114.773V45.6274H115.551Z" fill="#182946"/>
<path d="M120.68 48.9019V51.4577H119.954V48.9433C119.954 48.2604 119.56 47.8776 118.917 47.8776C118.274 47.8776 117.704 48.2708 117.704 49.2537V51.4629H116.978V47.2981H117.704V47.8982C118.015 47.4067 118.471 47.1895 119.057 47.1895C120.032 47.1895 120.675 47.8413 120.675 48.9071L120.68 48.9019Z" fill="#182946"/>
<path d="M125.59 47.2932L123.92 51.458H123.07L121.4 47.2932H122.183L123.495 50.682L124.807 47.2932H125.59Z" fill="#182946"/>
<path d="M128.308 50.884C128.884 50.884 129.304 50.615 129.511 50.2735L130.128 50.6254C129.76 51.1945 129.128 51.567 128.293 51.567C126.95 51.567 126.053 50.6254 126.053 49.3733C126.053 48.1213 126.939 47.1797 128.241 47.1797C129.543 47.1797 130.32 48.2144 130.32 49.3785C130.32 49.4871 130.31 49.5958 130.294 49.7044H126.794C126.934 50.4546 127.531 50.8789 128.303 50.8789L128.308 50.884ZM126.799 49.0784H129.589C129.465 48.2558 128.874 47.873 128.246 47.873C127.458 47.873 126.919 48.3541 126.799 49.0784Z" fill="#182946"/>
<path d="M134.204 50.3198C134.204 51.0958 133.535 51.5718 132.643 51.5718C131.808 51.5718 131.222 51.1734 130.983 50.5992L131.611 50.2422C131.746 50.6405 132.129 50.8941 132.648 50.8941C133.089 50.8941 133.472 50.7337 133.472 50.3249C133.472 49.4351 131.134 49.9421 131.134 48.4314C131.134 47.6967 131.766 47.1897 132.612 47.1897C133.296 47.1897 133.846 47.5156 134.115 48.0537L133.503 48.3952C133.343 48.0227 132.98 47.8623 132.612 47.8623C132.243 47.8623 131.87 48.0434 131.87 48.421C131.87 49.3109 134.209 48.7884 134.209 50.3198H134.204Z" fill="#182946"/>
<path d="M136.303 47.9968V50.2526C136.303 50.8838 136.672 50.8424 137.413 50.8113V51.4632C136.158 51.6288 135.577 51.2976 135.577 50.2526V47.9968H134.753V47.2984H135.577V46.3464L136.303 46.1292V47.2932H137.413V47.9917H136.303V47.9968Z" fill="#182946"/>
<path d="M144.631 48.8711V51.4632H143.905V48.897C143.905 48.24 143.537 47.8778 142.987 47.8778C142.401 47.8778 141.961 48.2451 141.961 49.1453V51.4632H141.235V48.897C141.235 48.24 140.892 47.8778 140.348 47.8778C139.803 47.8778 139.28 48.2451 139.28 49.1453V51.4632H138.554V47.2983H139.28V47.8571C139.58 47.3915 140.016 47.1897 140.524 47.1897C141.095 47.1897 141.509 47.4484 141.753 47.8985C142.043 47.4225 142.521 47.1897 143.065 47.1897C143.993 47.1897 144.636 47.8312 144.636 48.8711H144.631Z" fill="#182946"/>
<path d="M147.909 50.8838C148.485 50.8838 148.905 50.6148 149.112 50.2733L149.729 50.6251C149.361 51.1942 148.728 51.5667 147.893 51.5667C146.55 51.5667 145.653 50.6251 145.653 49.3731C145.653 48.1211 146.54 47.1794 147.842 47.1794C149.143 47.1794 149.921 48.2142 149.921 49.3783C149.921 49.4869 149.916 49.5955 149.895 49.7042H146.395C146.535 50.4544 147.131 50.8786 147.909 50.8786V50.8838ZM146.395 49.0782H149.185C149.06 48.2556 148.469 47.8727 147.842 47.8727C147.059 47.8727 146.514 48.3539 146.395 49.0782Z" fill="#182946"/>
<path d="M154.706 48.9022V51.458H153.98V48.9436C153.98 48.2606 153.586 47.8778 152.943 47.8778C152.3 47.8778 151.73 48.271 151.73 49.254V51.4632H151.004V47.2983H151.73V47.8985C152.041 47.407 152.497 47.1897 153.083 47.1897C154.058 47.1897 154.701 47.8416 154.701 48.9074L154.706 48.9022Z" fill="#182946"/>
<path d="M157.123 47.9971V50.2528C157.123 50.884 157.491 50.8426 158.232 50.8116V51.4635C156.978 51.629 156.397 51.2979 156.397 50.2528V47.9971H155.572V47.2986H156.397V46.3467L157.123 46.1294V47.2935H158.232V47.9919H157.123V47.9971Z" fill="#182946"/>
<path d="M74.0731 59.7358H72.6938V61.9709H71.916V56.1401H74.2546C75.2554 56.1401 76.0747 56.9472 76.0747 57.9457C76.0747 58.7115 75.5665 59.3892 74.8613 59.6375L76.2406 61.9709H75.3799L74.068 59.7358H74.0731ZM72.6938 59.0374H74.2546C74.8302 59.0374 75.2969 58.5459 75.2969 57.9457C75.2969 57.3456 74.8302 56.8645 74.2546 56.8645H72.6938V59.0374Z" fill="#182946"/>
<path d="M79.0047 61.3967C79.5803 61.3967 80.0003 61.1277 80.2077 60.7862L80.8248 61.138C80.4566 61.7072 79.824 62.0797 78.9891 62.0797C77.6461 62.0797 76.749 61.138 76.749 59.886C76.749 58.634 77.6357 57.6924 78.9373 57.6924C80.2388 57.6924 81.0166 58.7271 81.0166 59.8912C81.0166 59.9998 81.0062 60.1085 80.9907 60.2171H77.4905C77.6305 60.9673 78.2269 61.3916 78.9995 61.3916L79.0047 61.3967ZM77.4957 59.5911H80.2855C80.161 58.7685 79.5699 58.3857 78.9425 58.3857C78.1543 58.3857 77.615 58.8668 77.4957 59.5911Z" fill="#182946"/>
<path d="M86.2796 57.8064V61.7953C86.2796 63.0939 85.2373 63.7458 84.1484 63.7458C83.215 63.7458 82.5098 63.3888 82.1676 62.7266L82.8002 62.3696C82.992 62.7628 83.3447 63.068 84.1639 63.068C85.0299 63.068 85.5588 62.5765 85.5588 61.7953V61.2055C85.227 61.7125 84.6929 62.0385 83.9876 62.0385C82.8002 62.0385 81.8564 61.0813 81.8564 59.8655C81.8564 58.6497 82.8002 57.6978 83.9876 57.6978C84.6877 57.6978 85.2218 58.0134 85.5588 58.5204V57.8064H86.2744H86.2796ZM85.564 59.8655C85.564 59.0326 84.921 58.391 84.0758 58.391C83.2306 58.391 82.5876 59.0326 82.5876 59.8655C82.5876 60.6985 83.2306 61.3504 84.0758 61.3504C84.921 61.3504 85.564 60.7088 85.564 59.8655Z" fill="#182946"/>
<path d="M91.2372 57.8064V61.9713H90.5113V61.3711C90.2001 61.8626 89.7438 62.0799 89.1579 62.0799C88.1778 62.0799 87.54 61.428 87.54 60.3622V57.8064H88.266V60.3208C88.266 61.0038 88.6601 61.3866 89.3031 61.3866C89.9461 61.3866 90.5165 60.9934 90.5165 60.0104V57.8013H91.2424L91.2372 57.8064Z" fill="#182946"/>
<path d="M92.5908 55.887H93.3168V61.9712H92.5908V55.887Z" fill="#182946"/>
<path d="M98.8603 57.806V61.9708H98.1344V61.2517C97.8025 61.7587 97.2684 62.0743 96.558 62.0743C95.3965 62.0743 94.4424 61.1172 94.4424 59.8806C94.4424 58.6441 95.3965 57.687 96.558 57.687C97.2684 57.687 97.8025 58.0026 98.1344 58.5096V57.7957H98.8603V57.806ZM98.1344 59.891C98.1344 59.0425 97.4914 58.401 96.6462 58.401C95.801 58.401 95.1683 59.0425 95.1683 59.891C95.1683 60.7395 95.8113 61.381 96.6462 61.381C97.481 61.381 98.1344 60.7395 98.1344 59.891Z" fill="#182946"/>
<path d="M101.37 58.5044V60.7601C101.37 61.3913 101.738 61.3499 102.479 61.3189V61.9708C101.225 62.1363 100.644 61.8052 100.644 60.7601V58.5044H99.8193V57.806H100.644V56.854L101.37 56.6367V57.8008H102.479V58.4992H101.37V58.5044Z" fill="#182946"/>
<path d="M103.148 59.886C103.148 58.6547 104.128 57.6924 105.347 57.6924C106.566 57.6924 107.551 58.6495 107.551 59.886C107.551 61.1225 106.566 62.0797 105.347 62.0797C104.128 62.0797 103.148 61.1225 103.148 59.886ZM106.825 59.886C106.825 59.0427 106.182 58.4012 105.347 58.4012C104.512 58.4012 103.88 59.0427 103.88 59.886C103.88 60.7293 104.523 61.3709 105.347 61.3709C106.172 61.3709 106.825 60.7293 106.825 59.886Z" fill="#182946"/>
<path d="M110.688 57.7288V58.4893C110.06 58.4634 109.386 58.779 109.386 59.762V61.9712H108.66V57.8064H109.386V58.5048C109.656 57.9202 110.164 57.7288 110.688 57.7288Z" fill="#182946"/>
<path d="M115.427 57.8062L113.726 62.2296C113.373 63.1609 112.725 63.6938 111.875 63.6369V62.9643C112.435 63.0057 112.782 62.6642 113 62.1158L113.078 61.9554L111.258 57.8062H112.036L113.456 61.0707L114.659 57.8062H115.437H115.427Z" fill="#182946"/>
<path d="M71.6104 69.5662C71.6104 67.8847 72.9378 66.5396 74.6334 66.5396C76.3291 66.5396 77.6669 67.8795 77.6669 69.5662C77.6669 71.2528 76.3291 72.5928 74.6334 72.5928C72.9378 72.5928 71.6104 71.2424 71.6104 69.5662ZM76.8891 69.5662C76.8891 68.2831 75.9142 67.2897 74.6334 67.2897C73.3526 67.2897 72.3778 68.2831 72.3778 69.5662C72.3778 70.8492 73.3526 71.8322 74.6334 71.8322C75.9142 71.8322 76.8891 70.8389 76.8891 69.5662Z" fill="#182946"/>
<path d="M80.799 68.2417V69.0022C80.1715 68.9764 79.4974 69.292 79.4974 70.275V72.4841H78.7715V68.3193H79.4974V69.0178C79.7671 68.4331 80.2753 68.2417 80.799 68.2417Z" fill="#182946"/>
<path d="M85.72 68.314V72.3029C85.72 73.6015 84.6778 74.2534 83.5888 74.2534C82.6555 74.2534 81.9502 73.8964 81.608 73.2341L82.2406 72.8772C82.4325 73.2704 82.7851 73.5756 83.6044 73.5756C84.4703 73.5756 84.9993 73.0841 84.9993 72.3029V71.7131C84.6674 72.2201 84.1333 72.546 83.4281 72.546C82.2406 72.546 81.2969 71.5889 81.2969 70.3731C81.2969 69.1573 82.2406 68.2053 83.4281 68.2053C84.1281 68.2053 84.6622 68.5209 84.9993 69.0279V68.314H85.7148H85.72ZM85.0044 70.3731C85.0044 69.5401 84.3614 68.8986 83.5162 68.8986C82.671 68.8986 82.028 69.5401 82.028 70.3731C82.028 71.2061 82.671 71.8579 83.5162 71.8579C84.3614 71.8579 85.0044 71.2164 85.0044 70.3731Z" fill="#182946"/>
<path d="M91.2529 68.3138V72.4786H90.527V71.7595C90.1951 72.2665 89.661 72.5821 88.9506 72.5821C87.7891 72.5821 86.835 71.625 86.835 70.3885C86.835 69.152 87.7891 68.1948 88.9506 68.1948C89.661 68.1948 90.1951 68.5104 90.527 69.0174V68.3035H91.2529V68.3138ZM90.527 70.3988C90.527 69.5503 89.884 68.9088 89.0388 68.9088C88.1935 68.9088 87.5609 69.5503 87.5609 70.3988C87.5609 71.2473 88.2039 71.8888 89.0388 71.8888C89.8736 71.8888 90.527 71.2473 90.527 70.3988Z" fill="#182946"/>
<path d="M96.303 69.9227V72.4785H95.577V69.9641C95.577 69.2812 95.1829 68.8983 94.5399 68.8983C93.8969 68.8983 93.3265 69.2915 93.3265 70.2745V72.4837H92.6006V68.3189H93.3265V68.919C93.6377 68.4275 94.094 68.2102 94.6799 68.2102C95.6548 68.2102 96.2978 68.8621 96.2978 69.9279L96.303 69.9227Z" fill="#182946"/>
<path d="M97.4385 67.0721C97.4385 66.803 97.6563 66.5806 97.9311 66.5806C98.2059 66.5806 98.4133 66.803 98.4133 67.0721C98.4133 67.3411 98.1955 67.5532 97.9311 67.5532C97.6666 67.5532 97.4385 67.3359 97.4385 67.0721ZM97.5629 68.3137H98.2889V72.4786H97.5629V68.3137Z" fill="#182946"/>
<path d="M102.713 71.7909V72.4841H99.498V72.003L101.629 69.0126H99.5862V68.3193H102.635V68.8005L100.499 71.7909H102.718H102.713Z" fill="#182946"/>
<path d="M107.758 68.3138V72.4786H107.032V71.7595C106.7 72.2665 106.166 72.5821 105.455 72.5821C104.294 72.5821 103.34 71.625 103.34 70.3885C103.34 69.152 104.294 68.1948 105.455 68.1948C106.166 68.1948 106.7 68.5104 107.032 69.0174V68.3035H107.758V68.3138ZM107.032 70.3988C107.032 69.5503 106.389 68.9088 105.544 68.9088C104.698 68.9088 104.066 69.5503 104.066 70.3988C104.066 71.2473 104.709 71.8888 105.544 71.8888C106.378 71.8888 107.032 71.2473 107.032 70.3988Z" fill="#182946"/>
<path d="M110.268 69.0176V71.2733C110.268 71.9045 110.636 71.8631 111.378 71.8321V72.484C110.123 72.6495 109.542 72.3184 109.542 71.2733V69.0176H108.718V68.3192H109.542V67.3672L110.268 67.1499V68.314H111.378V69.0124H110.268V69.0176Z" fill="#182946"/>
<path d="M112.363 67.0721C112.363 66.803 112.581 66.5806 112.856 66.5806C113.131 66.5806 113.338 66.803 113.338 67.0721C113.338 67.3411 113.12 67.5532 112.856 67.5532C112.591 67.5532 112.363 67.3359 112.363 67.0721ZM112.488 68.3137H113.214V72.4786H112.488V68.3137Z" fill="#182946"/>
<path d="M114.344 70.399C114.344 69.1676 115.324 68.2053 116.542 68.2053C117.761 68.2053 118.746 69.1625 118.746 70.399C118.746 71.6355 117.761 72.5926 116.542 72.5926C115.324 72.5926 114.344 71.6355 114.344 70.399ZM118.02 70.399C118.02 69.5557 117.377 68.9141 116.542 68.9141C115.708 68.9141 115.075 69.5557 115.075 70.399C115.075 71.2423 115.718 71.8838 116.542 71.8838C117.367 71.8838 118.02 71.2423 118.02 70.399Z" fill="#182946"/>
<path d="M123.552 69.9229V72.4787H122.826V69.9643C122.826 69.2814 122.432 68.8985 121.789 68.8985C121.146 68.8985 120.576 69.2918 120.576 70.2747V72.4839H119.85V68.3191H120.576V68.9192C120.887 68.4277 121.343 68.2104 121.929 68.2104C122.904 68.2104 123.547 68.8623 123.547 69.9281L123.552 69.9229Z" fill="#182946"/>
<path d="M184.092 48.5456C184.092 46.8642 185.419 45.519 187.115 45.519C188.811 45.519 190.148 46.859 190.148 48.5456C190.148 50.2323 188.811 51.5722 187.115 51.5722C185.419 51.5722 184.092 50.2219 184.092 48.5456ZM189.371 48.5456C189.371 47.2626 188.396 46.2692 187.115 46.2692C185.834 46.2692 184.859 47.2626 184.859 48.5456C184.859 49.8287 185.834 50.8117 187.115 50.8117C188.396 50.8117 189.371 49.8184 189.371 48.5456Z" fill="#182946"/>
<path d="M193.281 47.2212V47.9817C192.654 47.9559 191.98 48.2714 191.98 49.2544V51.4636H191.254V47.2988H191.98V47.9972C192.25 47.4126 192.758 47.2212 193.281 47.2212Z" fill="#182946"/>
<path d="M198.201 47.2932V51.2821C198.201 52.5807 197.159 53.2326 196.07 53.2326C195.137 53.2326 194.432 52.8756 194.089 52.2134L194.722 51.8564C194.914 52.2496 195.267 52.5548 196.086 52.5548C196.952 52.5548 197.481 52.0634 197.481 51.2821V50.6923C197.149 51.1993 196.615 51.5253 195.91 51.5253C194.722 51.5253 193.778 50.5682 193.778 49.3523C193.778 48.1365 194.722 47.1846 195.91 47.1846C196.61 47.1846 197.144 47.5002 197.481 48.0072V47.2932H198.196H198.201ZM197.486 49.3523C197.486 48.5194 196.843 47.8778 195.998 47.8778C195.152 47.8778 194.509 48.5194 194.509 49.3523C194.509 50.1853 195.152 50.8372 195.998 50.8372C196.843 50.8372 197.486 50.1957 197.486 49.3523Z" fill="#182946"/>
<path d="M203.734 47.2933V51.4581H203.008V50.739C202.677 51.246 202.142 51.5616 201.432 51.5616C200.271 51.5616 199.316 50.6045 199.316 49.368C199.316 48.1314 200.271 47.1743 201.432 47.1743C202.142 47.1743 202.677 47.4899 203.008 47.9969V47.283H203.734V47.2933ZM203.008 49.3783C203.008 48.5298 202.365 47.8883 201.52 47.8883C200.675 47.8883 200.042 48.5298 200.042 49.3783C200.042 50.2268 200.685 50.8683 201.52 50.8683C202.355 50.8683 203.008 50.2268 203.008 49.3783Z" fill="#182946"/>
<path d="M208.784 48.9019V51.4577H208.058V48.9433C208.058 48.2604 207.664 47.8776 207.021 47.8776C206.378 47.8776 205.808 48.2708 205.808 49.2537V51.4629H205.082V47.2981H205.808V47.8982C206.119 47.4067 206.575 47.1895 207.161 47.1895C208.136 47.1895 208.779 47.8413 208.779 48.9071L208.784 48.9019Z" fill="#182946"/>
<path d="M209.921 46.0516C209.921 45.7825 210.139 45.5601 210.414 45.5601C210.688 45.5601 210.896 45.7825 210.896 46.0516C210.896 46.3206 210.678 46.5327 210.414 46.5327C210.149 46.5327 209.921 46.3154 209.921 46.0516ZM210.045 47.2932H210.771V51.4581H210.045V47.2932Z" fill="#182946"/>
<path d="M215.085 50.3195C215.085 51.0956 214.416 51.5716 213.525 51.5716C212.69 51.5716 212.104 51.1732 211.865 50.5989L212.493 50.2419C212.628 50.6403 213.011 50.8938 213.53 50.8938C213.971 50.8938 214.354 50.7334 214.354 50.3247C214.354 49.4348 212.016 49.9418 212.016 48.4311C212.016 47.6965 212.648 47.1895 213.493 47.1895C214.178 47.1895 214.728 47.5154 214.997 48.0535L214.385 48.3949C214.225 48.0224 213.862 47.862 213.493 47.862C213.125 47.862 212.752 48.0431 212.752 48.4208C212.752 49.3107 215.091 48.7881 215.091 50.3195H215.085Z" fill="#182946"/>
<path d="M222.277 48.8711V51.4632H221.552V48.897C221.552 48.24 221.183 47.8778 220.634 47.8778C220.048 47.8778 219.607 48.2451 219.607 49.1453V51.4632H218.881V48.897C218.881 48.24 218.539 47.8778 217.994 47.8778C217.45 47.8778 216.926 48.2451 216.926 49.1453V51.4632H216.2V47.2983H216.926V47.8571C217.227 47.3915 217.662 47.1897 218.171 47.1897C218.741 47.1897 219.156 47.4484 219.4 47.8985C219.69 47.4225 220.167 47.1897 220.712 47.1897C221.64 47.1897 222.283 47.8312 222.283 48.8711H222.277Z" fill="#182946"/>
<path d="M225.554 50.8838C226.13 50.8838 226.55 50.6148 226.757 50.2733L227.375 50.6251C227.006 51.1942 226.374 51.5667 225.539 51.5667C224.196 51.5667 223.299 50.6251 223.299 49.3731C223.299 48.1211 224.186 47.1794 225.487 47.1794C226.789 47.1794 227.566 48.2142 227.566 49.3783C227.566 49.4869 227.556 49.5955 227.54 49.7042H224.04C224.18 50.4544 224.777 50.8786 225.549 50.8786L225.554 50.8838ZM224.046 49.0782H226.835C226.711 48.2556 226.12 47.8727 225.492 47.8727C224.704 47.8727 224.165 48.3539 224.046 49.0782Z" fill="#182946"/>
<path d="M230.756 49.3785C230.756 48.1471 231.689 47.1848 232.954 47.1848C233.779 47.1848 234.484 47.6194 234.8 48.2765L234.189 48.6283C233.981 48.1885 233.514 47.8936 232.954 47.8936C232.12 47.8936 231.487 48.5351 231.487 49.3785C231.487 50.2218 232.12 50.853 232.954 50.853C233.525 50.853 233.981 50.5632 234.215 50.1286L234.832 50.4856C234.479 51.1375 233.769 51.5669 232.954 51.5669C231.694 51.5669 230.756 50.6098 230.756 49.3733V49.3785Z" fill="#182946"/>
<path d="M239.924 47.2933V51.4581H239.198V50.739C238.866 51.246 238.332 51.5616 237.621 51.5616C236.46 51.5616 235.506 50.6045 235.506 49.368C235.506 48.1314 236.46 47.1743 237.621 47.1743C238.332 47.1743 238.866 47.4899 239.198 47.9969V47.283H239.924V47.2933ZM239.198 49.3783C239.198 48.5298 238.555 47.8883 237.71 47.8883C236.864 47.8883 236.232 48.5298 236.232 49.3783C236.232 50.2268 236.875 50.8683 237.71 50.8683C238.545 50.8683 239.198 50.2268 239.198 49.3783Z" fill="#182946"/>
<path d="M244.974 48.9019V51.4577H244.248V48.9433C244.248 48.2604 243.854 47.8776 243.211 47.8776C242.568 47.8776 241.997 48.2708 241.997 49.2537V51.4629H241.271V47.2981H241.997V47.8982C242.309 47.4067 242.765 47.1895 243.351 47.1895C244.326 47.1895 244.969 47.8413 244.969 48.9071L244.974 48.9019Z" fill="#182946"/>
<path d="M250.413 47.2931V51.4579H249.687V50.7387C249.355 51.2458 248.821 51.5614 248.111 51.5614C246.949 51.5614 245.995 50.6042 245.995 49.3677C245.995 48.1312 246.949 47.1741 248.111 47.1741C248.821 47.1741 249.355 47.4897 249.687 47.9967V47.2827H250.413V47.2931ZM249.687 49.3781C249.687 48.5296 249.044 47.888 248.199 47.888C247.354 47.888 246.721 48.5296 246.721 49.3781C246.721 50.2265 247.364 50.8681 248.199 50.8681C249.034 50.8681 249.687 50.2265 249.687 49.3781Z" fill="#182946"/>
<path d="M255.951 45.6273V51.4581H255.225V50.7389C254.893 51.2459 254.359 51.5615 253.649 51.5615C252.487 51.5615 251.533 50.6044 251.533 49.3679C251.533 48.1314 252.487 47.1743 253.649 47.1743C254.359 47.1743 254.893 47.4899 255.225 47.9969V45.6118H255.951V45.6273ZM255.225 49.3783C255.225 48.5298 254.582 47.8882 253.737 47.8882C252.892 47.8882 252.259 48.5298 252.259 49.3783C252.259 50.2267 252.902 50.8683 253.737 50.8683C254.572 50.8683 255.225 50.2267 255.225 49.3783Z" fill="#182946"/>
<path d="M257.175 46.0516C257.175 45.7825 257.393 45.5601 257.667 45.5601C257.942 45.5601 258.15 45.7825 258.15 46.0516C258.15 46.3206 257.932 46.5327 257.667 46.5327C257.403 46.5327 257.175 46.3154 257.175 46.0516ZM257.299 47.2932H258.025V51.4581H257.299V47.2932Z" fill="#182946"/>
<path d="M261.412 50.884C261.987 50.884 262.408 50.615 262.615 50.2735L263.232 50.6254C262.864 51.1945 262.231 51.567 261.396 51.567C260.053 51.567 259.156 50.6254 259.156 49.3733C259.156 48.1213 260.043 47.1797 261.344 47.1797C262.646 47.1797 263.424 48.2144 263.424 49.3785C263.424 49.4871 263.419 49.5958 263.398 49.7044H259.898C260.038 50.4546 260.634 50.8789 261.412 50.8789V50.884ZM259.898 49.0784H262.688C262.563 48.2558 261.972 47.873 261.344 47.873C260.561 47.873 260.017 48.3541 259.898 49.0784Z" fill="#182946"/>
<path d="M268.205 48.9019V51.4577H267.479V48.9433C267.479 48.2604 267.085 47.8776 266.442 47.8776C265.799 47.8776 265.229 48.2708 265.229 49.2537V51.4629H264.503V47.2981H265.229V47.8982C265.54 47.4067 265.996 47.1895 266.582 47.1895C267.557 47.1895 268.2 47.8413 268.2 48.9071L268.205 48.9019Z" fill="#182946"/>
<path d="M188.51 56.1405V61.9713H187.784V61.2521C187.452 61.7591 186.918 62.0747 186.207 62.0747C185.046 62.0747 184.092 61.1176 184.092 59.8811C184.092 58.6446 185.046 57.6874 186.207 57.6874C186.918 57.6874 187.452 58.003 187.784 58.5101V56.125H188.51V56.1405ZM187.784 59.8914C187.784 59.043 187.141 58.4014 186.296 58.4014C185.45 58.4014 184.818 59.043 184.818 59.8914C184.818 60.7399 185.461 61.3815 186.296 61.3815C187.13 61.3815 187.784 60.7399 187.784 59.8914Z" fill="#182946"/>
<path d="M191.881 61.3967C192.456 61.3967 192.876 61.1277 193.084 60.7862L193.701 61.138C193.333 61.7072 192.7 62.0797 191.865 62.0797C190.522 62.0797 189.625 61.138 189.625 59.886C189.625 58.634 190.512 57.6924 191.813 57.6924C193.115 57.6924 193.893 58.7271 193.893 59.8912C193.893 59.9998 193.882 60.1085 193.867 60.2171H190.367C190.507 60.9673 191.103 61.3916 191.875 61.3916L191.881 61.3967ZM190.372 59.5911H193.161C193.037 58.7685 192.446 58.3857 191.818 58.3857C191.03 58.3857 190.491 58.8668 190.372 59.5911Z" fill="#182946"/>
<path d="M199.342 57.7285V58.489C198.715 58.4632 198.04 58.7788 198.04 59.7618V61.9709H197.314V57.8061H198.04V58.5046C198.31 57.9199 198.818 57.7285 199.342 57.7285Z" fill="#182946"/>
<path d="M202.095 61.3969C202.671 61.3969 203.091 61.1279 203.298 60.7864L203.916 61.1382C203.547 61.7074 202.915 62.0799 202.08 62.0799C200.737 62.0799 199.84 61.1382 199.84 59.8862C199.84 58.6342 200.727 57.6926 202.028 57.6926C203.33 57.6926 204.107 58.7273 204.107 59.8914C204.107 60 204.102 60.1087 204.082 60.2173H200.581C200.721 60.9675 201.318 61.3918 202.095 61.3918V61.3969ZM200.581 59.5913H203.371C203.247 58.7687 202.656 58.3859 202.028 58.3859C201.245 58.3859 200.701 58.867 200.581 59.5913ZM202.178 57.2321H201.478L202.147 56.1301H203.024L202.178 57.2321Z" fill="#182946"/>
<path d="M209.371 57.8064V61.7953C209.371 63.0939 208.329 63.7458 207.24 63.7458C206.307 63.7458 205.602 63.3888 205.259 62.7266L205.892 62.3696C206.084 62.7628 206.436 63.068 207.256 63.068C208.122 63.068 208.651 62.5765 208.651 61.7953V61.2055C208.319 61.7125 207.785 62.0385 207.079 62.0385C205.892 62.0385 204.948 61.0813 204.948 59.8655C204.948 58.6497 205.892 57.6978 207.079 57.6978C207.779 57.6978 208.314 58.0134 208.651 58.5204V57.8064H209.366H209.371ZM208.656 59.8655C208.656 59.0326 208.013 58.391 207.168 58.391C206.322 58.391 205.679 59.0326 205.679 59.8655C205.679 60.6985 206.322 61.3504 207.168 61.3504C208.013 61.3504 208.656 60.7088 208.656 59.8655Z" fill="#182946"/>
<path d="M210.719 55.8867H211.445V61.971H210.719V55.8867Z" fill="#182946"/>
<path d="M214.826 61.3967C215.402 61.3967 215.822 61.1277 216.029 60.7862L216.646 61.138C216.278 61.7072 215.645 62.0797 214.81 62.0797C213.467 62.0797 212.57 61.138 212.57 59.886C212.57 58.634 213.457 57.6924 214.759 57.6924C216.06 57.6924 216.838 58.7271 216.838 59.8912C216.838 59.9998 216.833 60.1085 216.812 60.2171H213.312C213.452 60.9673 214.048 61.3916 214.826 61.3916V61.3967ZM213.312 59.5911H216.102C215.977 58.7685 215.386 58.3857 214.759 58.3857C213.976 58.3857 213.431 58.8668 213.312 59.5911Z" fill="#182946"/>
<path d="M224.004 59.3792V61.9712H223.278V59.4051C223.278 58.748 222.91 58.3859 222.36 58.3859C221.774 58.3859 221.334 58.7532 221.334 59.6534V61.9712H220.608V59.4051C220.608 58.748 220.265 58.3859 219.721 58.3859C219.176 58.3859 218.653 58.7532 218.653 59.6534V61.9712H217.927V57.8064H218.653V58.3652C218.953 57.8995 219.389 57.6978 219.897 57.6978C220.468 57.6978 220.882 57.9564 221.126 58.4065C221.417 57.9306 221.894 57.6978 222.438 57.6978C223.366 57.6978 224.009 58.3393 224.009 59.3792H224.004Z" fill="#182946"/>
<path d="M227.281 61.3967C227.857 61.3967 228.277 61.1277 228.484 60.7862L229.101 61.138C228.733 61.7072 228.1 62.0797 227.265 62.0797C225.922 62.0797 225.025 61.138 225.025 59.886C225.025 58.634 225.912 57.6924 227.214 57.6924C228.515 57.6924 229.293 58.7271 229.293 59.8912C229.293 59.9998 229.283 60.1085 229.267 60.2171H225.767C225.907 60.9673 226.503 61.3916 227.276 61.3916L227.281 61.3967ZM225.772 59.5911H228.562C228.437 58.7685 227.846 58.3857 227.219 58.3857C226.431 58.3857 225.891 58.8668 225.772 59.5911Z" fill="#182946"/>
<path d="M234.079 59.4151V61.9709H233.353V59.4565C233.353 58.7736 232.959 58.3907 232.316 58.3907C231.673 58.3907 231.103 58.7839 231.103 59.7669V61.9761H230.377V57.8113H231.103V58.4114C231.414 57.9199 231.87 57.7026 232.456 57.7026C233.431 57.7026 234.074 58.3545 234.074 59.4203L234.079 59.4151Z" fill="#182946"/>
<path d="M236.501 58.5044V60.7601C236.501 61.3913 236.869 61.3499 237.61 61.3189V61.9708C236.355 62.1363 235.775 61.8052 235.775 60.7601V58.5044H234.95V57.806H235.775V56.854L236.501 56.6367V57.8008H237.61V58.4992H236.501V58.5044Z" fill="#182946"/>
<path d="M242.692 57.806V61.9708H241.966V61.2517C241.635 61.7587 241.1 62.0743 240.39 62.0743C239.229 62.0743 238.274 61.1172 238.274 59.8806C238.274 58.6441 239.229 57.687 240.39 57.687C241.1 57.687 241.635 58.0026 241.966 58.5096V57.7957H242.692V57.806ZM241.966 59.891C241.966 59.0425 241.323 58.401 240.478 58.401C239.633 58.401 239 59.0425 239 59.891C239 60.7395 239.643 61.381 240.478 61.381C241.313 61.381 241.966 60.7395 241.966 59.891Z" fill="#182946"/>
<path d="M245.207 58.5044V60.7601C245.207 61.3913 245.575 61.3499 246.316 61.3189V61.9708C245.061 62.1363 244.481 61.8052 244.481 60.7601V58.5044H243.656V57.806H244.481V56.854L245.207 56.6367V57.8008H246.316V58.4992H245.207V58.5044Z" fill="#182946"/>
<path d="M247.302 56.5647C247.302 56.2957 247.52 56.0732 247.794 56.0732C248.069 56.0732 248.277 56.2957 248.277 56.5647C248.277 56.8338 248.059 57.0459 247.794 57.0459C247.53 57.0459 247.302 56.8286 247.302 56.5647ZM247.426 57.8064H248.152V61.9712H247.426V57.8064Z" fill="#182946"/>
<path d="M249.278 59.886C249.278 58.6547 250.258 57.6924 251.477 57.6924C252.695 57.6924 253.681 58.6495 253.681 59.886C253.681 61.1225 252.695 62.0797 251.477 62.0797C250.258 62.0797 249.278 61.1225 249.278 59.886ZM252.955 59.886C252.955 59.0427 252.312 58.4012 251.477 58.4012C250.642 58.4012 250.009 59.0427 250.009 59.886C250.009 60.7293 250.652 61.3709 251.477 61.3709C252.301 61.3709 252.955 60.7293 252.955 59.886Z" fill="#182946"/>
<path d="M258.488 59.4151V61.9709H257.762V59.4565C257.762 58.7736 257.367 58.3907 256.724 58.3907C256.082 58.3907 255.511 58.7839 255.511 59.7669V61.9761H254.785V57.8113H255.511V58.4114C255.822 57.9199 256.279 57.7026 256.864 57.7026C257.839 57.7026 258.482 58.3545 258.482 59.4203L258.488 59.4151Z" fill="#182946"/>
<path d="M188.51 66.6479V72.4786H187.784V71.7594C187.452 72.2665 186.918 72.5821 186.207 72.5821C185.046 72.5821 184.092 71.6249 184.092 70.3884C184.092 69.1519 185.046 68.1948 186.207 68.1948C186.918 68.1948 187.452 68.5104 187.784 69.0174V66.6323H188.51V66.6479ZM187.784 70.3988C187.784 69.5503 187.141 68.9087 186.296 68.9087C185.45 68.9087 184.818 69.5503 184.818 70.3988C184.818 71.2473 185.461 71.8888 186.296 71.8888C187.13 71.8888 187.784 71.2473 187.784 70.3988Z" fill="#182946"/>
<path d="M191.881 71.9045C192.456 71.9045 192.876 71.6355 193.084 71.2941L193.701 71.6459C193.333 72.215 192.7 72.5875 191.865 72.5875C190.522 72.5875 189.625 71.6459 189.625 70.3938C189.625 69.1418 190.512 68.2002 191.813 68.2002C193.115 68.2002 193.893 69.2349 193.893 70.399C193.893 70.5077 193.882 70.6163 193.867 70.7249H190.367C190.507 71.4751 191.103 71.8994 191.875 71.8994L191.881 71.9045ZM190.372 70.0989H193.161C193.037 69.2763 192.446 68.8935 191.818 68.8935C191.03 68.8935 190.491 69.3746 190.372 70.0989Z" fill="#182946"/>
<path d="M197.777 71.3403C197.777 72.1163 197.108 72.5923 196.216 72.5923C195.381 72.5923 194.795 72.1939 194.557 71.6197L195.184 71.2627C195.319 71.6611 195.703 71.9146 196.221 71.9146C196.662 71.9146 197.046 71.7542 197.046 71.3455C197.046 70.4556 194.707 70.9626 194.707 69.4519C194.707 68.7172 195.34 68.2102 196.185 68.2102C196.869 68.2102 197.419 68.5361 197.689 69.0742L197.077 69.4157C196.916 69.0432 196.553 68.8828 196.185 68.8828C195.817 68.8828 195.443 69.0639 195.443 69.4415C195.443 70.3314 197.782 69.8089 197.782 71.3403H197.777Z" fill="#182946"/>
<path d="M201.096 67.0723C201.096 66.8033 201.313 66.5808 201.588 66.5808C201.863 66.5808 202.071 66.8033 202.071 67.0723C202.071 67.3413 201.853 67.5535 201.588 67.5535C201.324 67.5535 201.096 67.3362 201.096 67.0723ZM201.22 68.314H201.946V72.4788H201.22V68.314Z" fill="#182946"/>
<path d="M207.007 69.9229V72.4787H206.281V69.9643C206.281 69.2814 205.887 68.8985 205.244 68.8985C204.601 68.8985 204.031 69.2918 204.031 70.2747V72.4839H203.305V68.3191H204.031V68.9192C204.342 68.4277 204.798 68.2104 205.384 68.2104C206.359 68.2104 207.002 68.8623 207.002 69.9281L207.007 69.9229Z" fill="#182946"/>
<path d="M211.917 68.314L210.248 72.4788H209.397L207.728 68.314H208.511L209.822 71.7027L211.134 68.314H211.917Z" fill="#182946"/>
<path d="M214.635 71.9045C215.21 71.9045 215.63 71.6355 215.838 71.2941L216.455 71.6459C216.086 72.215 215.454 72.5875 214.619 72.5875C213.276 72.5875 212.379 71.6459 212.379 70.3938C212.379 69.1418 213.266 68.2002 214.567 68.2002C215.869 68.2002 216.646 69.2349 216.646 70.399C216.646 70.5077 216.636 70.6163 216.621 70.7249H213.12C213.26 71.4751 213.857 71.8994 214.629 71.8994L214.635 71.9045ZM213.126 70.0989H215.915C215.791 69.2763 215.2 68.8935 214.572 68.8935C213.784 68.8935 213.245 69.3746 213.126 70.0989Z" fill="#182946"/>
<path d="M220.531 71.3405C220.531 72.1166 219.862 72.5926 218.97 72.5926C218.135 72.5926 217.549 72.1942 217.311 71.6199L217.938 71.2629C218.073 71.6613 218.457 71.9148 218.975 71.9148C219.416 71.9148 219.8 71.7544 219.8 71.3457C219.8 70.4558 217.461 70.9628 217.461 69.4521C217.461 68.7175 218.094 68.2104 218.939 68.2104C219.623 68.2104 220.173 68.5364 220.443 69.0745L219.831 69.4159C219.67 69.0434 219.307 68.883 218.939 68.883C218.571 68.883 218.197 69.0641 218.197 69.4418C218.197 70.3317 220.536 69.8091 220.536 71.3405H220.531Z" fill="#182946"/>
<path d="M222.635 69.0176V71.2733C222.635 71.9045 223.004 71.8631 223.745 71.8321V72.484C222.49 72.6495 221.909 72.3184 221.909 71.2733V69.0176H221.085V68.3192H221.909V67.3672L222.635 67.1499V68.314H223.745V69.0124H222.635V69.0176Z" fill="#182946"/>
<path d="M224.73 67.0723C224.73 66.8033 224.948 66.5808 225.223 66.5808C225.498 66.5808 225.705 66.8033 225.705 67.0723C225.705 67.3413 225.488 67.5535 225.223 67.5535C224.959 67.5535 224.73 67.3362 224.73 67.0723ZM224.855 68.314H225.581V72.4788H224.855V68.314Z" fill="#182946"/>
<path d="M229.895 71.3403C229.895 72.1163 229.226 72.5923 228.334 72.5923C227.499 72.5923 226.913 72.1939 226.675 71.6197L227.302 71.2627C227.437 71.6611 227.821 71.9146 228.339 71.9146C228.78 71.9146 229.164 71.7542 229.164 71.3455C229.164 70.4556 226.825 70.9626 226.825 69.4519C226.825 68.7172 227.458 68.2102 228.303 68.2102C228.987 68.2102 229.537 68.5361 229.807 69.0742L229.195 69.4157C229.034 69.0432 228.671 68.8828 228.303 68.8828C227.935 68.8828 227.562 69.0639 227.562 69.4415C227.562 70.3314 229.9 69.8089 229.9 71.3403H229.895Z" fill="#182946"/>
<path d="M233.711 71.3403C233.711 72.1163 233.042 72.5923 232.151 72.5923C231.316 72.5923 230.73 72.1939 230.491 71.6197L231.119 71.2627C231.253 71.6611 231.637 71.9146 232.156 71.9146C232.596 71.9146 232.98 71.7542 232.98 71.3455C232.98 70.4556 230.642 70.9626 230.642 69.4519C230.642 68.7172 231.274 68.2102 232.119 68.2102C232.804 68.2102 233.354 68.5361 233.623 69.0742L233.011 69.4157C232.851 69.0432 232.488 68.8828 232.119 68.8828C231.751 68.8828 231.378 69.0639 231.378 69.4415C231.378 70.3314 233.717 69.8089 233.717 71.3403H233.711Z" fill="#182946"/>
<path d="M236.723 71.9045C237.299 71.9045 237.719 71.6355 237.926 71.2941L238.543 71.6459C238.175 72.215 237.543 72.5875 236.708 72.5875C235.365 72.5875 234.468 71.6459 234.468 70.3938C234.468 69.1418 235.354 68.2002 236.656 68.2002C237.958 68.2002 238.735 69.2349 238.735 70.399C238.735 70.5077 238.73 70.6163 238.709 70.7249H235.209C235.349 71.4751 235.946 71.8994 236.723 71.8994V71.9045ZM235.209 70.0989H237.999C237.875 69.2763 237.283 68.8935 236.656 68.8935C235.873 68.8935 235.329 69.3746 235.209 70.0989Z" fill="#182946"/>
<path d="M245.902 69.8919V72.4839H245.176V69.9178C245.176 69.2607 244.807 68.8985 244.258 68.8985C243.672 68.8985 243.231 69.2659 243.231 70.1661V72.4839H242.505V69.9178C242.505 69.2607 242.163 68.8985 241.618 68.8985C241.074 68.8985 240.55 69.2659 240.55 70.1661V72.4839H239.824V68.3191H240.55V68.8779C240.851 68.4122 241.286 68.2104 241.795 68.2104C242.365 68.2104 242.78 68.4691 243.024 68.9192C243.314 68.4433 243.791 68.2104 244.336 68.2104C245.264 68.2104 245.907 68.852 245.907 69.8919H245.902Z" fill="#182946"/>
<path d="M249.179 71.9045C249.755 71.9045 250.175 71.6355 250.382 71.2941L251 71.6459C250.631 72.215 249.999 72.5875 249.164 72.5875C247.821 72.5875 246.924 71.6459 246.924 70.3938C246.924 69.1418 247.811 68.2002 249.112 68.2002C250.414 68.2002 251.191 69.2349 251.191 70.399C251.191 70.5077 251.181 70.6163 251.165 70.7249H247.665C247.805 71.4751 248.402 71.8994 249.174 71.8994L249.179 71.9045ZM247.671 70.0989H250.46C250.336 69.2763 249.745 68.8935 249.117 68.8935C248.329 68.8935 247.79 69.3746 247.671 70.0989Z" fill="#182946"/>
<path d="M255.977 69.9229V72.4787H255.251V69.9643C255.251 69.2814 254.857 68.8985 254.214 68.8985C253.571 68.8985 253 69.2918 253 70.2747V72.4839H252.274V68.3191H253V68.9192C253.311 68.4277 253.768 68.2104 254.354 68.2104C255.329 68.2104 255.972 68.8623 255.972 69.9281L255.977 69.9229Z" fill="#182946"/>
<path d="M258.394 69.0176V71.2733C258.394 71.9045 258.762 71.8631 259.504 71.8321V72.484C258.249 72.6495 257.668 72.3184 257.668 71.2733V69.0176H256.844V68.3192H257.668V67.3672L258.394 67.1499V68.314H259.504V69.0124H258.394V69.0176Z" fill="#182946"/>
<path d="M263.382 71.3403C263.382 72.1163 262.713 72.5923 261.821 72.5923C260.987 72.5923 260.401 72.1939 260.162 71.6197L260.79 71.2627C260.924 71.6611 261.308 71.9146 261.827 71.9146C262.267 71.9146 262.651 71.7542 262.651 71.3455C262.651 70.4556 260.312 70.9626 260.312 69.4519C260.312 68.7172 260.945 68.2102 261.79 68.2102C262.475 68.2102 263.024 68.5361 263.294 69.0742L262.682 69.4157C262.521 69.0432 262.158 68.8828 261.79 68.8828C261.422 68.8828 261.049 69.0639 261.049 69.4415C261.049 70.3314 263.387 69.8089 263.387 71.3403H263.382Z" fill="#182946"/>
<path d="M69.9355 23.753C69.9355 16.1788 75.5617 10.3066 83.4124 10.3066C88.1519 10.3066 92.3365 12.7072 94.5559 16.4012L90.1483 18.9519C88.8882 16.6599 86.3733 15.2578 83.4124 15.2578C78.3411 15.2578 75.0069 18.7656 75.0069 23.753C75.0069 28.7404 78.3411 32.212 83.4124 32.212C86.3733 32.212 88.9297 30.8099 90.1483 28.5542L94.5559 31.1048C92.3728 34.7988 88.1882 37.1994 83.4124 37.1994C75.5617 37.1994 69.9355 31.2911 69.9355 23.753Z" fill="#182946"/>
<path d="M104.288 10.8242V36.6823H99.1807V10.8242H104.288Z" fill="#182946"/>
<path d="M118.839 27.7059H114.95V36.6823H109.843V10.8242H120.208C124.984 10.8242 128.837 14.6683 128.837 19.3918C128.837 22.6409 126.799 25.5588 123.838 26.9247L129.578 36.6771H124.061L118.839 27.7008V27.7059ZM114.95 23.2359H120.208C122.132 23.2359 123.724 21.5389 123.724 19.3918C123.724 17.2448 122.132 15.5892 120.208 15.5892H114.95V23.2359Z" fill="#182946"/>
<path d="M132.57 23.753C132.57 16.1788 138.534 10.3066 146.011 10.3066C153.488 10.3066 159.488 16.1788 159.488 23.753C159.488 31.3273 153.488 37.1994 146.011 37.1994C138.534 37.1994 132.57 31.2911 132.57 23.753ZM154.375 23.753C154.375 18.7656 150.709 15.2578 146.006 15.2578C141.303 15.2578 137.636 18.7656 137.636 23.753C137.636 28.7404 141.303 32.212 146.006 32.212C150.709 32.212 154.375 28.7042 154.375 23.753Z" fill="#182946"/>
<path d="M173.597 23.7248C173.597 22.2718 172.416 21.094 170.96 21.094C169.504 21.094 168.323 22.2718 168.323 23.7248C168.323 25.1778 169.504 26.3556 170.96 26.3556C172.416 26.3556 173.597 25.1778 173.597 23.7248Z" fill="#182946"/>
<path d="M43.9617 1.31988L26.3262 18.9155C25.9943 19.2467 25.8076 19.6968 25.8076 20.1676V31.1461C25.8076 31.4979 26.2328 31.6738 26.4817 31.4255L50.3087 7.65245C51.1487 6.81432 51.6206 5.67611 51.6206 4.48617C51.6206 0.497261 46.7878 -1.49978 43.9617 1.31988Z" fill="#182946"/>
<path d="M43.9617 22.0201L26.3262 39.6157C25.9943 39.9469 25.8076 40.397 25.8076 40.8678V51.8463C25.8076 52.1981 26.2328 52.374 26.4817 52.1257L50.3087 28.3526C51.1487 27.5145 51.6206 26.3763 51.6206 25.1864C51.6206 21.1975 46.7878 19.2004 43.9617 22.0201Z" fill="#182946"/>
<path d="M23.2825 71.294L1.04745 49.1092C0.378535 48.4418 0 47.5313 0 46.5845V14.0369C0 12.0657 1.60229 10.467 3.57793 10.467H21.3431C21.7839 10.467 22.1365 10.824 22.1365 11.2586V18.6259C22.1365 19.0657 21.7787 19.4175 21.3431 19.4175H9.7693C9.32854 19.4175 8.97594 19.7745 8.97594 20.2091V44.0235C8.97594 44.2356 9.0589 44.4374 9.20928 44.5823L25.2529 60.5896C25.564 60.9 26.067 60.9 26.3782 60.5896L43.967 43.0405C46.7931 40.2209 51.6259 42.2179 51.6259 46.2068C51.6259 47.3916 51.154 48.535 50.314 49.3731L28.3486 71.2888C26.9537 72.6805 24.6877 72.6805 23.2877 71.2888L23.2825 71.294Z" fill="#182946"/>
<path d="M182.443 23.753C182.443 16.1788 188.407 10.3066 195.884 10.3066C203.361 10.3066 209.361 16.1788 209.361 23.753C209.361 31.3273 203.361 37.1994 195.884 37.1994C188.407 37.1994 182.443 31.2911 182.443 23.753ZM204.248 23.753C204.248 18.7656 200.582 15.2578 195.879 15.2578C191.176 15.2578 187.509 18.7656 187.509 23.753C187.509 28.7404 191.176 32.212 195.879 32.212C200.582 32.212 204.248 28.7042 204.248 23.753Z" fill="#182946"/>
<path d="M213.244 23.7533C213.244 16.179 218.87 10.3069 226.721 10.3069C231.46 10.3069 235.645 12.7075 237.864 16.4015L233.457 18.9521C232.197 16.6602 229.682 15.2581 226.721 15.2581C221.65 15.2581 218.315 18.7658 218.315 23.7533C218.315 28.7407 221.65 32.2122 226.721 32.2122C229.682 32.2122 232.238 30.8102 233.457 28.5544L237.864 31.1051C235.681 34.7991 231.497 37.1997 226.721 37.1997C218.87 37.1997 213.244 31.2913 213.244 23.7533Z" fill="#182946"/>
<path d="M251.487 27.7059H247.598V36.6823H242.49V10.8242H252.856C257.632 10.8242 261.484 14.6683 261.484 19.3918C261.484 22.6409 259.447 25.5588 256.486 26.9247L262.226 36.6771H256.709L251.487 27.7008V27.7059ZM247.598 23.2359H252.856C254.78 23.2359 256.372 21.5389 256.372 19.3918C256.372 17.2448 254.78 15.5892 252.856 15.5892H247.598V23.2359Z" fill="#182946"/>
<path d="M272 10.8242V36.6823H266.893V10.8242H272Z" fill="#182946"/>
</svg>
