<svg width="600" height="87" viewBox="0 0 600 87" fill="none" xmlns="http://www.w3.org/2000/svg">
<path d="M270.112 20.217C271.475 20.217 272.697 20.0514 273.778 19.7284C274.859 19.4055 275.773 18.9418 276.521 18.329C277.27 17.7246 277.835 16.9959 278.234 16.143C278.625 15.2901 278.816 14.3296 278.816 13.2614C278.816 11.0836 278.101 9.46065 276.679 8.40903C275.25 7.35741 273.163 6.82747 270.428 6.82747L264.792 6.82747V20.217H270.12H270.112ZM283.77 35.7263H281.858C281.609 35.7263 281.409 35.6849 281.235 35.6104C281.069 35.5276 280.911 35.3785 280.769 35.1632L270.894 22.726C270.777 22.5686 270.661 22.4279 270.536 22.312C270.411 22.196 270.278 22.1049 270.12 22.0387C269.971 21.9725 269.788 21.9311 269.572 21.8979C269.364 21.8731 269.106 21.8565 268.799 21.8565H264.775V35.718H262.539V5.06372L270.411 5.06372C273.944 5.06372 276.596 5.74272 278.359 7.109C280.121 8.47528 281.002 10.4792 281.002 13.1206C281.002 14.2882 280.803 15.3564 280.395 16.3252C279.988 17.294 279.406 18.1386 278.641 18.8673C277.885 19.596 276.962 20.1922 275.881 20.6559C274.801 21.1196 273.587 21.4259 272.24 21.5833C272.589 21.7986 272.905 22.0884 273.171 22.4527L283.762 35.7098L283.77 35.7263Z" fill="#182946"/>
<path d="M324.828 33.8798L324.778 35.7263H306.34V5.07202L324.778 5.07202V6.91029L308.584 6.91029V19.3062H322.06V21.103L308.584 21.103V33.8798H324.828Z" fill="#182946"/>
<path d="M363.907 8.79905C363.774 9.03919 363.583 9.1634 363.342 9.1634C363.151 9.1634 362.909 9.03091 362.61 8.76593C362.311 8.50095 361.912 8.20286 361.405 7.87992C360.898 7.55698 360.266 7.2506 359.501 6.98563C358.745 6.71237 357.805 6.5716 356.683 6.5716C355.561 6.5716 354.588 6.72894 353.74 7.0436C352.892 7.35825 352.186 7.79712 351.612 8.34363C351.039 8.89842 350.606 9.52773 350.307 10.2481C350.008 10.9768 349.858 11.7303 349.858 12.5253C349.858 13.5603 350.083 14.4215 350.523 15.1005C350.972 15.7795 351.554 16.3508 352.277 16.8311C353 17.3114 353.823 17.7088 354.746 18.0318C355.669 18.363 356.617 18.6777 357.589 18.9923C358.562 19.3153 359.501 19.663 360.432 20.0439C361.355 20.4248 362.17 20.9134 362.901 21.4847C363.624 22.0644 364.206 22.7765 364.647 23.6211C365.087 24.4657 365.312 25.5173 365.312 26.776C365.312 28.0346 365.087 29.2684 364.647 30.4028C364.206 31.5372 363.566 32.5226 362.727 33.3589C361.887 34.1953 360.856 34.8577 359.634 35.338C358.42 35.8182 357.024 36.0667 355.461 36.0667C353.433 36.0667 351.679 35.7106 350.224 34.9902C348.761 34.2698 347.472 33.2927 346.375 32.0506L346.99 31.0984C347.165 30.8831 347.364 30.7754 347.597 30.7754C347.73 30.7754 347.896 30.8665 348.096 31.0321C348.295 31.206 348.545 31.4213 348.836 31.6697C349.127 31.9264 349.476 32.1997 349.883 32.4978C350.29 32.7959 350.764 33.0691 351.296 33.3175C351.828 33.566 352.452 33.7813 353.142 33.9551C353.84 34.129 354.63 34.2118 355.511 34.2118C356.725 34.2118 357.814 34.0297 358.778 33.657C359.734 33.2927 360.54 32.7876 361.205 32.15C361.862 31.5124 362.369 30.7589 362.718 29.8894C363.067 29.0117 363.242 28.076 363.242 27.0823C363.242 25.9976 363.017 25.1033 362.577 24.4078C362.136 23.7039 361.554 23.1243 360.831 22.6523C360.108 22.1803 359.285 21.7911 358.362 21.4682C357.44 21.1535 356.5 20.8389 355.528 20.5408C354.555 20.2344 353.616 19.8949 352.685 19.5223C351.762 19.1496 350.939 18.6694 350.216 18.0815C349.492 17.4936 348.91 16.7649 348.47 15.8954C348.029 15.026 347.805 13.9247 347.805 12.6164C347.805 11.5896 348.004 10.6042 348.395 9.65194C348.786 8.69969 349.359 7.85508 350.116 7.1264C350.872 6.39772 351.803 5.8098 352.909 5.37094C354.015 4.93207 355.286 4.7085 356.7 4.7085C358.296 4.7085 359.726 4.9652 360.997 5.4703C362.261 5.97541 363.425 6.74549 364.464 7.78883L363.94 8.78249L363.907 8.79905Z" fill="#182946"/>
<path d="M414.667 20.383C414.667 18.2466 414.367 16.3256 413.777 14.6198C413.187 12.914 412.339 11.4732 411.25 10.2891C410.161 9.10498 408.856 8.19413 407.334 7.57309C405.813 6.94378 404.134 6.62912 402.289 6.62912C400.443 6.62912 398.789 6.94378 397.268 7.57309C395.746 8.20241 394.433 9.10498 393.344 10.2891C392.246 11.4732 391.399 12.914 390.8 14.6198C390.193 16.3256 389.894 18.2466 389.894 20.383C389.894 22.5194 390.193 24.4653 390.8 26.1545C391.399 27.852 392.246 29.2928 393.344 30.4769C394.441 31.661 395.746 32.5636 397.268 33.1846C398.789 33.8056 400.46 34.112 402.289 34.112C404.117 34.112 405.813 33.7973 407.334 33.1846C408.856 32.5636 410.161 31.661 411.25 30.4769C412.339 29.2928 413.178 27.852 413.777 26.1545C414.367 24.457 414.667 22.5359 414.667 20.383ZM416.969 20.383C416.969 22.7512 416.612 24.9041 415.905 26.8252C415.199 28.7545 414.193 30.4024 412.904 31.7686C411.616 33.1349 410.061 34.1865 408.257 34.9318C406.453 35.677 404.467 36.0496 402.289 36.0496C400.111 36.0496 398.124 35.677 396.328 34.9318C394.533 34.1865 392.986 33.1349 391.698 31.7686C390.409 30.4024 389.412 28.7545 388.697 26.8335C387.982 24.9041 387.633 22.7595 387.633 20.3913C387.633 18.023 387.99 15.895 388.697 13.9656C389.412 12.0363 390.401 10.3885 391.698 9.03045C392.986 7.66418 394.533 6.60428 396.328 5.85075C398.124 5.10551 400.111 4.72461 402.289 4.72461C404.467 4.72461 406.453 5.09723 408.257 5.84247C410.061 6.58771 411.616 7.63934 412.904 9.0139C414.193 10.3885 415.199 12.0363 415.905 13.9656C416.62 15.895 416.969 18.0313 416.969 20.3913" fill="#182946"/>
<path d="M452.723 34.1455C454.203 34.1455 455.525 33.8888 456.688 33.3754C457.861 32.862 458.85 32.1499 459.656 31.239C460.471 30.3282 461.086 29.2517 461.518 28.0179C461.942 26.7841 462.158 25.451 462.158 24.0185V5.06445H464.378V24.0185C464.378 25.7077 464.112 27.2892 463.571 28.7466C463.031 30.2122 462.258 31.4957 461.252 32.5805C460.246 33.6735 459.016 34.5264 457.578 35.1474C456.131 35.7685 454.51 36.0748 452.715 36.0748C450.919 36.0748 449.298 35.7602 447.852 35.1474C446.414 34.5264 445.183 33.6735 444.177 32.5805C443.172 31.4874 442.398 30.2122 441.858 28.7466C441.326 27.281 441.052 25.6994 441.052 24.0185V5.06445H443.296V24.0019C443.296 25.4344 443.512 26.7593 443.936 28.0014C444.36 29.2352 444.984 30.3033 445.782 31.2142C446.588 32.125 447.569 32.8372 448.741 33.3588C449.913 33.8805 451.235 34.1372 452.715 34.1372" fill="#182946"/>
<path d="M498.046 20.2177C499.409 20.2177 500.631 20.0521 501.712 19.7292C502.792 19.4062 503.707 18.9425 504.447 18.3298C505.195 17.7253 505.768 16.9966 506.159 16.1437C506.55 15.2908 506.749 14.3303 506.749 13.2621C506.749 11.0844 506.034 9.46139 504.605 8.40977C503.175 7.34986 501.088 6.8282 498.353 6.8282L492.717 6.8282V20.2177H498.046ZM511.704 35.7271H509.792C509.543 35.7271 509.335 35.6856 509.168 35.6111C509.002 35.5283 508.844 35.3793 508.703 35.164L498.827 22.7267C498.711 22.5694 498.594 22.4286 498.47 22.3127C498.345 22.1968 498.212 22.1057 498.054 22.0394C497.904 21.9732 497.722 21.9318 497.505 21.8987C497.298 21.8738 497.04 21.8573 496.732 21.8573H492.709V35.7188H490.473V5.06445L498.345 5.06445C501.886 5.06445 504.53 5.74345 506.292 7.10973C508.055 8.47601 508.936 10.4799 508.936 13.1214C508.936 14.2889 508.736 15.3571 508.329 16.3259C507.922 17.2947 507.34 18.1393 506.583 18.868C505.818 19.5967 504.896 20.1929 503.815 20.6566C502.734 21.1203 501.521 21.4267 500.174 21.584C500.523 21.7993 500.831 22.0891 501.113 22.4535L511.704 35.7105V35.7271Z" fill="#182946"/>
<path d="M556.336 30.5687C556.478 30.5687 556.602 30.6184 556.702 30.7177L557.575 31.6534C556.935 32.3324 556.245 32.9452 555.497 33.4834C554.748 34.0299 553.925 34.4853 553.036 34.8662C552.146 35.2471 551.166 35.5452 550.101 35.7523C549.037 35.9593 547.865 36.0669 546.593 36.0669C544.465 36.0669 542.512 35.6943 540.733 34.9491C538.954 34.2038 537.433 33.1522 536.152 31.7859C534.88 30.4196 533.891 28.7718 533.185 26.8342C532.478 24.8966 532.129 22.7436 532.129 20.3754C532.129 18.0072 532.495 15.9288 533.218 14.0077C533.941 12.0867 534.955 10.4388 536.26 9.05601C537.566 7.67317 539.137 6.60499 540.957 5.85147C542.786 5.08966 544.798 4.71704 547.001 4.71704C549.204 4.71704 550.966 5.03998 552.587 5.69414C554.208 6.34001 555.688 7.25915 557.026 8.44325L556.353 9.42035C556.236 9.59424 556.054 9.67704 555.812 9.67704C555.638 9.67704 555.355 9.51972 554.965 9.19678C554.574 8.88212 554.034 8.52606 553.335 8.14516C552.637 7.76425 551.772 7.4082 550.733 7.09354C549.694 6.77888 548.456 6.61327 547.001 6.61327C545.147 6.61327 543.443 6.92793 541.905 7.56553C540.359 8.20312 539.037 9.11397 537.923 10.2981C536.817 11.4822 535.945 12.923 535.329 14.6288C534.706 16.3345 534.398 18.2473 534.398 20.3671C534.398 22.4869 534.714 24.466 535.346 26.1717C535.978 27.8775 536.842 29.3183 537.94 30.4942C539.045 31.67 540.342 32.5726 541.847 33.2019C543.351 33.8312 544.972 34.1458 546.71 34.1458C547.815 34.1458 548.796 34.0713 549.653 33.9306C550.517 33.7815 551.307 33.5662 552.03 33.2764C552.753 32.9866 553.427 32.6388 554.05 32.2165C554.674 31.8025 555.289 31.3056 555.896 30.7426C555.97 30.6846 556.045 30.6349 556.112 30.6018C556.187 30.5687 556.261 30.5438 556.336 30.5438" fill="#182946"/>
<path d="M580.924 5.07202V35.7263H599.37L599.412 33.9129V33.8798H583.168V21.103L596.652 21.103V19.3062H583.168V6.91029L599.37 6.91029V5.07202L580.924 5.07202Z" fill="#182946"/>
<path d="M264.784 53.1332V66.0259H278.807V67.8641H264.784V81.9492H262.539V51.2949H280.985V53.1332H264.784Z" fill="#182946"/>
<path d="M306.73 51.2949H304.494V81.9492H306.73V51.2949Z" fill="#182946"/>
<path d="M356.974 51.2944V81.9487H355.926C355.735 81.9487 355.577 81.9156 355.461 81.8494C355.336 81.7831 355.22 81.6672 355.103 81.5099L335.119 54.9047C335.161 55.3353 335.186 55.7493 335.186 56.1385V81.9405H333.224V51.2861H334.329C334.529 51.2861 334.687 51.311 334.795 51.3607C334.903 51.4103 335.019 51.5263 335.152 51.7002L355.095 78.2391C355.053 77.8002 355.029 77.3945 355.029 77.0053V51.2944L356.965 51.2944H356.974Z" fill="#182946"/>
<path d="M400.053 70.812L393.785 55.3192C393.568 54.8141 393.361 54.2096 393.153 53.4975C393.061 53.8453 392.97 54.1765 392.87 54.4829C392.77 54.7976 392.662 55.0791 392.546 55.3358L386.286 70.8037H400.053V70.812ZM406.861 81.9492H405.14C404.932 81.9492 404.766 81.8913 404.641 81.7836C404.517 81.676 404.408 81.5352 404.342 81.3613L400.734 72.4598H385.621L382.013 81.3613C381.955 81.5186 381.856 81.6594 381.706 81.7753C381.565 81.8913 381.39 81.9492 381.182 81.9492H379.486L392.08 51.2949H394.275L406.869 81.9492H406.861Z" fill="#182946"/>
<path d="M453.122 51.2944V81.9487H452.074C451.883 81.9487 451.733 81.9156 451.609 81.8494C451.484 81.7831 451.368 81.6672 451.251 81.5099L431.267 54.9047C431.308 55.3353 431.333 55.7493 431.333 56.1385V81.9405H429.38V51.2861H430.494C430.693 51.2861 430.851 51.311 430.959 51.3607C431.067 51.4103 431.192 51.518 431.317 51.7002L451.26 78.2391C451.218 77.8085 451.193 77.3945 451.193 77.0053V51.2944L453.13 51.2944H453.122Z" fill="#182946"/>
<path d="M501.81 76.7901C501.951 76.7901 502.076 76.8398 502.176 76.9392L503.048 77.8666C502.408 78.5456 501.718 79.1583 500.97 79.6966C500.222 80.2431 499.399 80.6985 498.51 81.0877C497.62 81.4686 496.639 81.7667 495.575 81.9737C494.511 82.1807 493.339 82.2883 492.067 82.2883C489.939 82.2883 487.985 81.9157 486.206 81.1705C484.427 80.4252 482.906 79.3736 481.626 78.0073C480.346 76.6411 479.365 74.9933 478.658 73.0556C477.952 71.118 477.603 68.9651 477.603 66.5969C477.603 64.2286 477.96 62.1502 478.683 60.2292C479.406 58.3081 480.421 56.6603 481.726 55.2774C483.031 53.8946 484.602 52.8347 486.423 52.0729C488.251 51.3111 490.263 50.9385 492.466 50.9385C494.669 50.9385 496.431 51.2614 498.052 51.9156C499.673 52.5615 501.153 53.4806 502.491 54.6647L501.818 55.6418C501.702 55.8157 501.519 55.9068 501.278 55.9068C501.103 55.9068 500.821 55.7494 500.43 55.4265C500.039 55.1118 499.499 54.7558 498.801 54.3749C498.102 53.994 497.238 53.6379 496.199 53.3233C495.159 53.0086 493.921 52.843 492.474 52.843C490.621 52.843 488.916 53.1576 487.379 53.7952C485.832 54.4328 484.511 55.3437 483.397 56.5278C482.291 57.7119 481.418 59.1527 480.795 60.8585C480.171 62.5643 479.855 64.4771 479.855 66.5969C479.855 68.7167 480.171 70.6957 480.803 72.4015C481.435 74.1072 482.299 75.548 483.397 76.7239C484.502 77.8997 485.799 78.8023 487.304 79.4316C488.808 80.0609 490.429 80.3756 492.167 80.3756C493.272 80.3756 494.253 80.301 495.118 80.1603C495.974 80.0195 496.772 79.8042 497.495 79.5144C498.219 79.2246 498.892 78.8685 499.515 78.4545C500.139 78.0405 500.754 77.5436 501.361 76.9806C501.436 76.9226 501.511 76.8729 501.577 76.8398C501.652 76.8067 501.727 76.7818 501.802 76.7818" fill="#182946"/>
<path d="M544.896 80.1027L544.846 81.9492H526.408V51.2949H544.846V53.1332H528.644V65.529H542.136V67.3176L528.644 67.3259V80.1027H544.896Z" fill="#182946"/>
<path d="M57.351 8.43465C54.5828 12.7571 51.8727 16.9718 49.0713 21.3356C47.7495 18.0897 46.727 15.0425 45.2972 12.194C41.4068 4.43518 35.2801 1.18924 26.909 2.2657C14.9051 3.80587 12.6689 15.589 17.3491 22.5115C19.7682 26.0886 23.2845 29.2269 26.9505 31.5951C32.8361 35.4042 39.3119 38.3106 45.4219 41.7884C50.3265 44.5789 54.9569 47.7503 57.9828 52.7269C64.1343 62.8456 60.9255 76.053 50.5926 81.9156C37.8738 89.1362 24.8308 88.01 11.8293 82.636C7.20732 80.7232 3.19217 77.8581 0 73.7345C2.75158 69.5114 5.48654 65.3298 7.97211 61.5125C10.5242 66.0253 12.7354 70.7535 15.6948 74.96C18.9036 79.5308 23.218 83.0997 28.8875 84.4163C36.4855 86.1717 43.8923 82.9672 46.6938 76.939C49.6199 70.6293 47.5085 63.1437 40.8498 58.4487C36.4439 55.3435 31.4977 53.0002 26.8425 50.2345C21.7051 47.179 16.2851 44.463 11.5799 40.8444C-0.764791 31.3384 1.62934 13.7176 12.9765 5.58617C24.4982 -2.66946 46.6107 -1.47707 57.351 8.41809" fill="#BB9F73"/>
<path d="M146.633 64.8413C143.973 71.6395 139.808 76.4588 134.463 80.2347C119.508 90.7923 95.6747 88.6311 82.798 75.5976C76.7711 69.4949 73.662 61.9514 72.2821 53.6212C70.4283 42.4012 71.3261 31.4461 76.2972 21.1121C82.108 9.0474 91.9921 2.40646 105.235 0.609599C115.576 -0.789802 125.593 0.00512626 134.879 5.26323C139.609 7.9461 143.366 11.6558 146.458 16.3094C143.79 20.5987 141.113 24.9128 138.761 28.7053C135.302 22.851 132.31 16.682 128.303 11.2417C121.087 1.43765 108.435 -0.980254 99.4737 5.1887C94.5441 8.5837 91.6928 13.5354 90.0801 19.0916C85.4581 35.0067 85.9901 50.723 93.9124 65.4871C103.239 82.8596 125.693 85.9316 139.792 72.1529C142.019 69.9834 144.048 67.6152 146.641 64.833" fill="#BB9F73"/>
<path d="M196.934 39.1552C194.341 44.0241 189.902 46.177 184.44 46.2847C182.154 46.3261 179.868 46.2847 177.083 46.2847V40.6125C177.083 29.0116 177.125 17.4189 177.041 5.818C177.025 3.77272 177.499 2.84531 179.735 3.0192C182.486 3.23449 185.271 3.102 188.031 3.25105C192.686 3.50775 196.128 6.04157 197.84 10.0742C201.989 19.812 201.997 29.6575 196.934 39.1469M216.686 18.9591C214.2 8.84865 206.868 3.56571 197.358 2.54721C184.157 1.13125 170.79 1.23889 157.498 0.692383C157.398 0.973919 157.298 1.25546 157.198 1.53699C161.762 5.17212 161.837 10.3143 161.87 15.2826C161.995 34.0958 161.978 52.9008 161.87 71.714C161.845 76.6823 161.613 81.7582 157.099 85.5424H181.979C178.92 82.6939 177.632 80.4499 177.515 76.7402C177.258 68.4846 177.191 60.229 177.083 51.9651C177.033 48.1643 177.083 48.1395 180.965 48.1643C188.33 48.214 195.579 47.7337 202.604 45.1254C213.884 40.9189 219.521 30.5766 216.678 18.9674" fill="#BB9F73"/>
</svg>
