<svg width="739" height="108" viewBox="0 0 739 108" fill="none" xmlns="http://www.w3.org/2000/svg">
<path d="M332.829 24.9119C334.508 24.9119 336.014 24.7078 337.346 24.3099C338.677 23.912 339.804 23.3406 340.726 22.5856C341.648 21.8408 342.344 20.9429 342.836 19.892C343.317 18.8411 343.553 17.6575 343.553 16.3413C343.553 13.6579 342.672 11.6581 340.921 10.3623C339.159 9.06649 336.588 8.4135 333.218 8.4135L326.273 8.4135V24.9119H332.839H332.829ZM349.658 44.0223H347.302C346.995 44.0223 346.749 43.9713 346.534 43.8795C346.329 43.7774 346.134 43.5938 345.96 43.3285L333.791 28.0034C333.648 27.8096 333.505 27.6361 333.351 27.4933C333.197 27.3505 333.033 27.2382 332.839 27.1566C332.654 27.075 332.429 27.024 332.163 26.9831C331.907 26.9525 331.589 26.9321 331.21 26.9321H326.252V44.0121H323.497V6.24023L333.197 6.24023C337.551 6.24023 340.818 7.07689 342.99 8.7604C345.161 10.4439 346.247 12.9131 346.247 16.1679C346.247 17.6065 346.001 18.9227 345.499 20.1165C344.997 21.3102 344.28 22.3509 343.338 23.2488C342.406 24.1467 341.269 24.8813 339.937 25.4527C338.606 26.024 337.11 26.4016 335.451 26.5954C335.881 26.8607 336.27 27.2178 336.598 27.6667L349.648 44.0019L349.658 44.0223Z" fill="#182946"/>
<path d="M400.249 41.7466L400.187 44.0219L377.468 44.0219V6.25L400.187 6.25V8.51509L380.234 8.51509V23.7891L396.838 23.7891V26.0032L380.234 26.0032V41.7466L400.249 41.7466Z" fill="#182946"/>
<path d="M448.402 10.8426C448.238 11.1385 448.002 11.2915 447.705 11.2915C447.469 11.2915 447.172 11.1283 446.804 10.8018C446.435 10.4753 445.943 10.108 445.318 9.71003C444.694 9.31211 443.915 8.9346 442.973 8.6081C442.041 8.2714 440.883 8.09794 439.5 8.09794C438.117 8.09794 436.919 8.29181 435.874 8.67953C434.829 9.06724 433.959 9.60801 433.252 10.2814C432.545 10.965 432.013 11.7405 431.644 12.6281C431.275 13.526 431.091 14.4545 431.091 15.434C431.091 16.7094 431.367 17.7705 431.91 18.6071C432.463 19.4438 433.18 20.1478 434.071 20.7396C434.963 21.3314 435.977 21.8211 437.114 22.219C438.251 22.6272 439.418 23.0149 440.617 23.4026C441.815 23.8005 442.973 24.229 444.12 24.6984C445.257 25.1677 446.261 25.7697 447.162 26.4737C448.053 27.1879 448.77 28.0654 449.313 29.1061C449.856 30.1468 450.133 31.4426 450.133 32.9935C450.133 34.5444 449.856 36.0646 449.313 37.4625C448.77 38.8603 447.982 40.0745 446.947 41.105C445.912 42.1355 444.642 42.9517 443.137 43.5435C441.641 44.1353 439.92 44.4414 437.995 44.4414C435.495 44.4414 433.334 44.0027 431.541 43.115C429.739 42.2273 428.151 41.0233 426.799 39.4929L427.557 38.3195C427.772 38.0542 428.018 37.9216 428.305 37.9216C428.468 37.9216 428.673 38.0338 428.919 38.2379C429.165 38.4522 429.472 38.7174 429.831 39.0235C430.189 39.3398 430.62 39.6765 431.121 40.0438C431.623 40.4112 432.207 40.7479 432.863 41.054C433.518 41.36 434.287 41.6253 435.137 41.8396C435.997 42.0539 436.97 42.1559 438.056 42.1559C439.551 42.1559 440.893 41.9314 442.082 41.4723C443.259 41.0233 444.253 40.401 445.073 39.6153C445.882 38.8297 446.507 37.9012 446.937 36.8299C447.367 35.7483 447.582 34.5954 447.582 33.371C447.582 32.0344 447.306 30.9325 446.763 30.0754C446.22 29.2082 445.503 28.4939 444.612 27.9124C443.72 27.3308 442.706 26.8512 441.569 26.4533C440.432 26.0656 439.275 25.6779 438.076 25.3106C436.878 24.9331 435.721 24.5147 434.573 24.0556C433.436 23.5964 432.422 23.0047 431.531 22.2803C430.64 21.5558 429.923 20.658 429.38 19.5866C428.837 18.5153 428.561 17.1583 428.561 15.5462C428.561 14.281 428.806 13.0669 429.288 11.8935C429.769 10.7201 430.476 9.67943 431.408 8.78156C432.34 7.88368 433.488 7.15926 434.85 6.6185C436.212 6.07773 437.779 5.80225 439.521 5.80225C441.487 5.80225 443.249 6.11855 444.816 6.74094C446.373 7.36333 447.807 8.31221 449.088 9.5978L448.443 10.8222L448.402 10.8426Z" fill="#182946"/>
<path d="M510.947 25.1168C510.947 22.4844 510.578 20.1173 509.851 18.0155C509.124 15.9136 508.079 14.1383 506.737 12.6792C505.395 11.2202 503.787 10.0979 501.912 9.33262C500.038 8.55719 497.969 8.16947 495.695 8.16947C493.421 8.16947 491.383 8.55719 489.508 9.33262C487.634 10.1081 486.015 11.2202 484.673 12.6792C483.321 14.1383 482.276 15.9136 481.539 18.0155C480.791 20.1173 480.422 22.4844 480.422 25.1168C480.422 27.7492 480.791 30.1469 481.539 32.2284C482.276 34.32 483.321 36.0954 484.673 37.5544C486.025 39.0134 487.634 40.1256 489.508 40.8908C491.383 41.656 493.441 42.0336 495.695 42.0336C497.948 42.0336 500.038 41.6458 501.912 40.8908C503.787 40.1256 505.395 39.0134 506.737 37.5544C508.079 36.0954 509.113 34.32 509.851 32.2284C510.578 30.1367 510.947 27.7696 510.947 25.1168ZM513.784 25.1168C513.784 28.0349 513.344 30.6877 512.473 33.0548C511.602 35.4321 510.363 37.4626 508.775 39.1461C507.188 40.8296 505.272 42.1254 503.049 43.0437C500.827 43.9619 498.379 44.4211 495.695 44.4211C493.011 44.4211 490.563 43.9619 488.351 43.0437C486.138 42.1254 484.233 40.8296 482.645 39.1461C481.057 37.4626 479.828 35.4321 478.947 33.065C478.066 30.6877 477.636 28.0451 477.636 25.127C477.636 22.2089 478.077 19.5867 478.947 17.2094C479.828 14.8321 481.047 12.8017 482.645 11.1284C484.233 9.44485 486.138 8.13886 488.351 7.21038C490.563 6.2921 493.011 5.82275 495.695 5.82275C498.379 5.82275 500.827 6.28189 503.049 7.20017C505.272 8.11845 507.188 9.41424 508.775 11.108C510.363 12.8017 511.602 14.8321 512.473 17.2094C513.354 19.5867 513.784 22.2191 513.784 25.127" fill="#182946"/>
<path d="M557.84 42.0747C559.663 42.0747 561.292 41.7584 562.726 41.1258C564.17 40.4933 565.389 39.6158 566.383 38.4934C567.386 37.3711 568.144 36.0447 568.677 34.5244C569.199 33.0042 569.466 31.3615 569.466 29.5963V6.24146H572.201V29.5963C572.201 31.6778 571.873 33.6266 571.207 35.4223C570.541 37.2283 569.589 38.8097 568.349 40.1463C567.11 41.4931 565.594 42.5441 563.822 43.3093C562.039 44.0745 560.042 44.452 557.83 44.452C555.617 44.452 553.62 44.0643 551.837 43.3093C550.065 42.5441 548.549 41.4931 547.31 40.1463C546.07 38.7995 545.118 37.2283 544.452 35.4223C543.796 33.6164 543.458 31.6676 543.458 29.5963V6.24146L546.224 6.24146V29.5759C546.224 31.3411 546.49 32.9736 547.013 34.504C547.535 36.0243 548.303 37.3405 549.287 38.4628C550.28 39.5852 551.489 40.4626 552.933 41.1054C554.378 41.7482 556.006 42.0645 557.83 42.0645" fill="#182946"/>
<path d="M613.685 24.9131C615.365 24.9131 616.871 24.7091 618.203 24.3111C619.534 23.9132 620.661 23.3418 621.573 22.5868C622.495 21.842 623.201 20.9441 623.683 19.8932C624.164 18.8423 624.41 17.6587 624.41 16.3425C624.41 13.6591 623.529 11.6593 621.767 10.3635C620.005 9.05751 617.434 8.41472 614.064 8.41472L607.12 8.41472V24.9131H613.685ZM630.515 44.0235H628.159C627.852 44.0235 627.596 43.9725 627.391 43.8807C627.186 43.7787 626.991 43.595 626.817 43.3297L614.648 28.0047C614.505 27.8108 614.362 27.6374 614.208 27.4945C614.054 27.3517 613.89 27.2394 613.696 27.1578C613.511 27.0762 613.286 27.0252 613.02 26.9844C612.764 26.9538 612.446 26.9333 612.067 26.9333H607.109V44.0133H604.354V6.24146L614.054 6.24146C618.418 6.24146 621.675 7.07811 623.847 8.76162C626.018 10.4451 627.104 12.9143 627.104 16.1691C627.104 17.6077 626.858 18.9239 626.356 20.1177C625.854 21.3114 625.137 22.3522 624.205 23.25C623.263 24.1479 622.126 24.8825 620.794 25.4539C619.463 26.0253 617.967 26.4028 616.308 26.5966C616.738 26.8619 617.117 27.219 617.465 27.668L630.515 44.0031V44.0235Z" fill="#182946"/>
<path d="M685.511 37.6673C685.685 37.6673 685.838 37.7285 685.961 37.851L687.037 39.0039C686.248 39.8406 685.398 40.5956 684.476 41.2588C683.554 41.9322 682.54 42.4934 681.444 42.9627C680.348 43.432 679.139 43.7994 677.828 44.0544C676.517 44.3095 675.073 44.4422 673.506 44.4422C670.883 44.4422 668.476 43.983 666.284 43.0647C664.092 42.1465 662.218 40.8507 660.64 39.1671C659.073 37.4836 657.854 35.4532 656.984 33.0657C656.113 30.6782 655.683 28.0254 655.683 25.1073C655.683 22.1892 656.133 19.6282 657.024 17.2611C657.916 14.894 659.165 12.8636 660.773 11.1597C662.382 9.45574 664.318 8.13954 666.561 7.21106C668.814 6.27237 671.293 5.81323 674.008 5.81323C676.722 5.81323 678.893 6.21115 680.891 7.0172C682.888 7.81304 684.712 8.94558 686.361 10.4046L685.531 11.6086C685.388 11.8229 685.162 11.9249 684.865 11.9249C684.65 11.9249 684.302 11.731 683.82 11.3331C683.339 10.9454 682.673 10.5067 681.813 10.0373C680.952 9.56797 679.887 9.12924 678.607 8.74152C677.326 8.35381 675.8 8.14974 674.008 8.14974C671.723 8.14974 669.623 8.53746 667.729 9.3231C665.823 10.1087 664.195 11.2311 662.822 12.6901C661.46 14.1492 660.384 15.9245 659.626 18.0263C658.858 20.1282 658.479 22.4851 658.479 25.0971C658.479 27.7091 658.868 30.1476 659.647 32.2494C660.425 34.3513 661.49 36.1266 662.843 37.5755C664.205 39.0243 665.803 40.1364 667.657 40.9119C669.511 41.6873 671.508 42.075 673.649 42.075C675.011 42.075 676.22 41.9832 677.275 41.8098C678.34 41.6261 679.313 41.3608 680.205 41.0037C681.096 40.6466 681.925 40.2181 682.694 39.6977C683.462 39.1876 684.22 38.5754 684.968 37.8816C685.06 37.8101 685.152 37.7489 685.234 37.7081C685.326 37.6673 685.418 37.6367 685.511 37.6367" fill="#182946"/>
<path d="M715.807 6.25V44.0219L738.537 44.0219L738.588 41.7874V41.7466L718.573 41.7466V26.0032L735.187 26.0032V23.7891L718.573 23.7891V8.51509L738.537 8.51509V6.25L715.807 6.25Z" fill="#182946"/>
<path d="M326.263 65.4711V81.3574H343.543V83.6224H326.263V100.978H323.497V63.2061L346.227 63.2061V65.4711H326.263Z" fill="#182946"/>
<path d="M377.949 63.2061H375.194V100.978H377.949V63.2061Z" fill="#182946"/>
<path d="M439.858 63.2055V100.977H438.568C438.332 100.977 438.137 100.937 437.994 100.855C437.84 100.773 437.697 100.63 437.554 100.437L412.929 67.6541C412.98 68.1846 413.011 68.6948 413.011 69.1743V100.967H410.594V63.1953H411.956C412.202 63.1953 412.397 63.2259 412.53 63.2871C412.663 63.3484 412.806 63.4912 412.97 63.7055L437.543 96.4064C437.492 95.8656 437.461 95.3657 437.461 94.8861V63.2055H439.848H439.858Z" fill="#182946"/>
<path d="M492.94 87.2547L485.216 68.1648C484.95 67.5424 484.694 66.7975 484.438 65.9201C484.325 66.3486 484.212 66.7567 484.09 67.1342C483.967 67.522 483.833 67.8689 483.69 68.1852L475.977 87.2445H492.94V87.2547ZM501.329 100.978H499.208C498.952 100.978 498.747 100.906 498.594 100.774C498.44 100.641 498.307 100.468 498.225 100.253L493.78 89.2852H475.158L470.712 100.253C470.64 100.447 470.517 100.621 470.333 100.764C470.159 100.906 469.944 100.978 469.688 100.978H467.598L483.116 63.2061H485.821L501.339 100.978H501.329Z" fill="#182946"/>
<path d="M558.331 63.2055V100.977H557.04C556.805 100.977 556.62 100.937 556.467 100.855C556.313 100.773 556.17 100.63 556.026 100.437L531.402 67.6541C531.453 68.1846 531.484 68.6948 531.484 69.1743V100.967H529.077V63.1953H530.449C530.695 63.1953 530.89 63.2259 531.023 63.2871C531.156 63.3484 531.31 63.481 531.463 63.7055L556.036 96.4064C555.985 95.8758 555.955 95.3657 555.955 94.8861V63.2055H558.341H558.331Z" fill="#182946"/>
<path d="M618.324 94.6209C618.498 94.6209 618.651 94.6821 618.774 94.8046L619.85 95.9473C619.061 96.784 618.211 97.539 617.289 98.2022C616.367 98.8756 615.353 99.4368 614.257 99.9163C613.161 100.386 611.952 100.753 610.641 101.008C609.33 101.263 607.886 101.396 606.319 101.396C603.696 101.396 601.289 100.937 599.097 100.018C596.905 99.1001 595.031 97.8043 593.453 96.1208C591.876 94.4373 590.667 92.4068 589.796 90.0193C588.926 87.6318 588.496 84.979 588.496 82.0609C588.496 79.1428 588.936 76.5818 589.827 74.2147C590.718 71.8476 591.968 69.8172 593.576 68.1133C595.184 66.4094 597.12 65.1033 599.364 64.1647C601.617 63.226 604.096 62.7668 606.81 62.7668C609.525 62.7668 611.696 63.1648 613.694 63.9708C615.691 64.7667 617.514 65.8992 619.163 67.3582L618.334 68.5622C618.19 68.7765 617.965 68.8887 617.668 68.8887C617.453 68.8887 617.105 68.6948 616.623 68.2969C616.142 67.9092 615.476 67.4705 614.616 67.0011C613.755 66.5318 612.69 66.0931 611.409 65.7053C610.129 65.3176 608.603 65.1136 606.821 65.1136C604.536 65.1136 602.436 65.5013 600.542 66.2869C598.636 67.0725 597.008 68.1949 595.635 69.6539C594.273 71.113 593.197 72.8883 592.429 74.9901C591.661 77.092 591.272 79.4489 591.272 82.0609C591.272 84.6729 591.661 87.1114 592.439 89.2133C593.218 91.3151 594.283 93.0904 595.635 94.5393C596.997 95.9881 598.595 97.1003 600.449 97.8757C602.303 98.6511 604.301 99.0388 606.442 99.0388C607.804 99.0388 609.013 98.947 610.078 98.7736C611.133 98.6001 612.116 98.3348 613.007 97.9777C613.898 97.6206 614.728 97.1819 615.496 96.6717C616.265 96.1616 617.023 95.5494 617.77 94.8556C617.863 94.7842 617.955 94.7229 618.037 94.6821C618.129 94.6413 618.221 94.6107 618.313 94.6107" fill="#182946"/>
<path d="M671.414 98.7026L671.353 100.978H648.634V63.2061L671.353 63.2061V65.4711H651.389V80.7452H668.014V82.949L651.389 82.9593V98.7026H671.414Z" fill="#182946"/>
<path d="M70.6672 10.3934C67.2562 15.7194 63.917 20.9128 60.465 26.2898C58.8364 22.2902 57.5765 18.5355 55.8147 15.0256C51.0209 5.46532 43.4717 1.46571 33.1569 2.79212C18.3659 4.68989 15.6105 19.2089 21.3774 27.7387C24.3581 32.1464 28.6909 36.0134 33.2081 38.9315C40.4602 43.6249 48.4396 47.2062 55.9683 51.4915C62.0117 54.9299 67.7171 58.8377 71.4456 64.9698C79.0255 77.438 75.0717 93.7119 62.3395 100.936C46.6676 109.833 30.5961 108.445 14.5759 101.823C8.88077 99.4664 3.93335 95.9362 0 90.855C3.39047 85.6515 6.76044 80.4989 9.82313 75.7953C12.9678 81.356 15.6924 87.1819 19.339 92.3651C23.2928 97.9972 28.609 102.395 35.5948 104.017C44.957 106.18 54.0836 102.231 57.5355 94.8036C61.1411 87.0289 58.5393 77.8053 50.3346 72.0201C44.9058 68.194 38.8111 65.3065 33.075 61.8987C26.7447 58.1337 20.0662 54.7871 14.2686 50.3283C-0.942366 38.6152 2.00765 16.903 15.9895 6.88356C30.1864 -3.28893 57.4331 -1.81968 70.6672 10.373" fill="#BB9F73"/>
<path d="M180.679 79.8966C177.401 88.2733 172.27 94.2115 165.683 98.8642C147.256 111.873 117.889 109.21 102.022 93.1504C94.596 85.6307 90.7651 76.3357 89.0648 66.0714C86.7806 52.2462 87.8868 38.7475 94.0122 26.014C101.172 11.1481 113.351 2.96521 129.668 0.75114C142.411 -0.973184 154.754 0.00631651 166.195 6.48529C172.024 9.79109 176.654 14.3621 180.464 20.0962C177.176 25.3814 173.878 30.6972 170.979 35.3703C166.718 28.1567 163.03 20.5554 158.093 13.8519C149.202 1.77145 133.612 -1.20786 122.57 6.39345C116.496 10.5767 112.982 16.6782 110.995 23.5245C105.3 43.1348 105.956 62.5003 115.717 80.6924C127.21 102.099 154.877 105.884 172.249 88.9059C174.994 86.2327 177.493 83.3146 180.689 79.8864" fill="#BB9F73"/>
<path d="M242.66 48.2464C239.464 54.2458 233.994 56.8986 227.264 57.0313C224.447 57.0823 221.631 57.0313 218.199 57.0313V50.0422C218.199 35.7476 218.25 21.4633 218.148 7.16875C218.127 4.64858 218.711 3.50584 221.467 3.7201C224.857 3.98538 228.289 3.82213 231.689 4.00579C237.425 4.32208 241.666 7.44423 243.776 12.4131C248.887 24.412 248.898 36.5435 242.66 48.2362M266.997 23.3611C263.935 10.9031 254.9 4.39351 243.182 3.13853C226.916 1.3938 210.445 1.52643 194.066 0.853027C193.943 1.19993 193.821 1.54684 193.698 1.89375C199.321 6.37291 199.413 12.709 199.454 18.8309C199.608 42.0123 199.587 65.1835 199.454 88.365C199.424 94.4868 199.137 100.741 193.575 105.404H224.232C220.463 101.894 218.875 99.1292 218.732 94.5583C218.414 84.3858 218.332 74.2133 218.199 64.0306C218.138 59.3474 218.199 59.3168 222.983 59.3474C232.058 59.4086 240.99 58.8168 249.645 55.6028C263.545 50.4197 270.49 37.676 266.987 23.3713" fill="#BB9F73"/>
</svg>
