<svg width="32" height="32" viewBox="0 0 32 32" fill="none" xmlns="http://www.w3.org/2000/svg">
<path d="M16 0C7.16 0 0 7.16 0 16C0 24.84 7.16 32 16 32C24.84 32 32 24.84 32 16C32 7.16 24.84 0 16 0ZM10.4933 25.24H6.57333V12.6267H10.4933V25.24ZM8.53333 10.9067C7.28 10.9067 6.25333 9.89333 6.25333 8.64C6.25333 7.38667 7.26667 6.36 8.53333 6.36C9.78667 6.36 10.8133 7.37333 10.8133 8.62667C10.8133 9.88 9.8 10.9067 8.53333 10.9067ZM25.1733 25.24H21.2533V19.1067C21.2533 17.64 21.2267 15.76 19.2133 15.76C17.2 15.76 16.8533 17.3467 16.8533 19V25.24H12.9333V12.6267H16.6933V14.3467H16.7467C17.52 13.04 18.9333 12.2533 20.4533 12.3067C24.4267 12.3067 25.16 14.92 25.16 18.32V25.24H25.1733Z" fill="#BB9F73"/>
</svg>
