<svg width="215" height="32" viewBox="0 0 215 32" fill="none" xmlns="http://www.w3.org/2000/svg">
<path d="M96.8863 7.25166C97.3753 7.25166 97.8136 7.19226 98.2012 7.07642C98.5889 6.96059 98.9168 6.79427 99.1852 6.57448C99.4535 6.35766 99.6563 6.0963 99.7994 5.79038C99.9396 5.48446 100.008 5.13993 100.008 4.75679C100.008 3.97566 99.7517 3.39352 99.2418 3.01632C98.729 2.63912 97.9806 2.44904 96.9996 2.44904L94.978 2.44904V7.25166H96.8893H96.8863ZM101.785 12.8146H101.099C101.01 12.8146 100.938 12.7998 100.876 12.773C100.816 12.7433 100.76 12.6899 100.709 12.6127L97.1666 8.15159C97.1248 8.09516 97.0831 8.04467 97.0384 8.00309C96.9936 7.96151 96.9459 7.92884 96.8893 7.90508C96.8356 7.88132 96.77 7.86647 96.6925 7.85459C96.6179 7.84568 96.5255 7.83974 96.4152 7.83974H94.972V12.8117H94.1699V1.81641L96.9936 1.81641C98.2609 1.81641 99.212 2.05995 99.8442 2.55002C100.476 3.04008 100.792 3.75884 100.792 4.7063C100.792 5.12508 100.721 5.50822 100.575 5.85572C100.429 6.20322 100.22 6.50617 99.9455 6.76754C99.6742 7.0289 99.3432 7.24275 98.9556 7.40907C98.568 7.5754 98.1326 7.68529 97.6496 7.74172C97.7748 7.81894 97.8881 7.9229 97.9836 8.05358L101.782 12.8087L101.785 12.8146Z" fill="white"/>
<path d="M116.512 12.1513L116.494 12.8136L109.881 12.8136V1.81836L116.494 1.81836V2.47772L110.686 2.47772V6.92393L115.519 6.92393V7.56844L110.686 7.56844V12.1513L116.512 12.1513Z" fill="white"/>
<path d="M130.53 3.15619C130.482 3.24232 130.413 3.28687 130.327 3.28687C130.258 3.28687 130.172 3.23935 130.065 3.14431C129.957 3.04926 129.814 2.94234 129.632 2.82651C129.45 2.71067 129.224 2.60078 128.949 2.50574C128.678 2.40773 128.341 2.35723 127.939 2.35723C127.536 2.35723 127.187 2.41367 126.883 2.52653C126.579 2.63939 126.325 2.79681 126.12 2.99283C125.914 3.19183 125.759 3.41755 125.652 3.67595C125.544 3.93732 125.491 4.2076 125.491 4.49272C125.491 4.86398 125.571 5.17287 125.729 5.41642C125.89 5.65997 126.099 5.8649 126.358 6.03717C126.618 6.20943 126.913 6.352 127.244 6.46783C127.575 6.58663 127.915 6.6995 128.264 6.81236C128.612 6.92819 128.949 7.05294 129.283 7.18956C129.614 7.32618 129.906 7.50142 130.169 7.70636C130.428 7.91426 130.637 8.16969 130.795 8.47263C130.953 8.77558 131.034 9.15279 131.034 9.60424C131.034 10.0557 130.953 10.4982 130.795 10.9051C130.637 11.312 130.407 11.6655 130.106 11.9655C129.805 12.2654 129.435 12.503 128.997 12.6753C128.562 12.8476 128.061 12.9367 127.5 12.9367C126.773 12.9367 126.144 12.809 125.622 12.5506C125.097 12.2922 124.635 11.9417 124.241 11.4962L124.462 11.1546C124.524 11.0774 124.596 11.0388 124.68 11.0388C124.727 11.0388 124.787 11.0715 124.858 11.1309C124.93 11.1932 125.019 11.2705 125.124 11.3596C125.228 11.4516 125.353 11.5496 125.5 11.6566C125.646 11.7635 125.816 11.8615 126.006 11.9506C126.197 12.0397 126.421 12.1169 126.668 12.1793C126.919 12.2417 127.202 12.2714 127.518 12.2714C127.953 12.2714 128.344 12.206 128.69 12.0724C129.033 11.9417 129.322 11.7605 129.561 11.5318C129.796 11.3031 129.978 11.0328 130.103 10.721C130.229 10.4062 130.291 10.0705 130.291 9.71413C130.291 9.32505 130.211 9.00428 130.053 8.7548C129.895 8.50234 129.686 8.29443 129.426 8.12513C129.167 7.95584 128.872 7.81625 128.541 7.70042C128.21 7.58755 127.873 7.47469 127.524 7.36777C127.175 7.25787 126.838 7.1361 126.504 7.00244C126.173 6.86879 125.878 6.69653 125.619 6.48565C125.359 6.27477 125.151 6.01341 124.993 5.70155C124.835 5.38969 124.754 4.99467 124.754 4.5254C124.754 4.15711 124.826 3.80366 124.966 3.4621C125.106 3.12055 125.312 2.8176 125.583 2.55623C125.854 2.29486 126.188 2.08399 126.585 1.92657C126.981 1.76916 127.438 1.68896 127.945 1.68896C128.517 1.68896 129.03 1.78104 129.486 1.96221C129.939 2.14339 130.357 2.41961 130.729 2.79384L130.542 3.15025L130.53 3.15619Z" fill="white"/>
<path d="M148.736 7.31076C148.736 6.54448 148.628 5.85542 148.417 5.24358C148.205 4.63175 147.901 4.11495 147.51 3.69023C147.12 3.26551 146.651 2.9388 146.106 2.71605C145.56 2.49032 144.958 2.37746 144.296 2.37746C143.634 2.37746 143.041 2.49032 142.495 2.71605C141.949 2.94177 141.478 3.26551 141.088 3.69023C140.694 4.11495 140.39 4.63175 140.175 5.24358C139.957 5.85542 139.85 6.54448 139.85 7.31076C139.85 8.07705 139.957 8.77502 140.175 9.38091C140.39 9.98978 140.694 10.5066 141.088 10.9313C141.481 11.356 141.949 11.6798 142.495 11.9025C143.041 12.1253 143.64 12.2352 144.296 12.2352C144.952 12.2352 145.56 12.1223 146.106 11.9025C146.651 11.6798 147.12 11.356 147.51 10.9313C147.901 10.5066 148.202 9.98978 148.417 9.38091C148.628 8.77205 148.736 8.08299 148.736 7.31076ZM149.562 7.31076C149.562 8.16021 149.433 8.93243 149.18 9.62149C148.926 10.3135 148.566 10.9046 148.104 11.3946C147.641 11.8847 147.084 12.2619 146.437 12.5292C145.79 12.7965 145.077 12.9302 144.296 12.9302C143.515 12.9302 142.802 12.7965 142.158 12.5292C141.514 12.2619 140.959 11.8847 140.497 11.3946C140.035 10.9046 139.677 10.3135 139.421 9.62446C139.164 8.93243 139.039 8.16318 139.039 7.31373C139.039 6.46429 139.167 5.70098 139.421 5.00895C139.677 4.31692 140.032 3.72587 140.497 3.23878C140.959 2.74871 141.514 2.36854 142.158 2.09827C142.802 1.83096 143.515 1.69434 144.296 1.69434C145.077 1.69434 145.79 1.82799 146.437 2.0953C147.084 2.3626 147.641 2.73981 148.104 3.23284C148.566 3.72587 148.926 4.31692 149.18 5.00895C149.436 5.70098 149.562 6.46726 149.562 7.31373" fill="white"/>
<path d="M162.386 12.2473C162.916 12.2473 163.39 12.1553 163.808 11.9711C164.228 11.787 164.583 11.5315 164.872 11.2048C165.165 10.8781 165.385 10.492 165.54 10.0495C165.692 9.60694 165.77 9.12875 165.77 8.61493V1.81641L166.566 1.81641V8.61493C166.566 9.22082 166.471 9.78811 166.277 10.3108C166.083 10.8365 165.806 11.2969 165.445 11.686C165.084 12.078 164.643 12.384 164.127 12.6067C163.608 12.8295 163.027 12.9394 162.383 12.9394C161.739 12.9394 161.157 12.8265 160.638 12.6067C160.122 12.384 159.681 12.078 159.32 11.686C158.96 11.2939 158.682 10.8365 158.488 10.3108C158.298 9.78514 158.199 9.21785 158.199 8.61493V1.81641L159.004 1.81641V8.60899C159.004 9.12281 159.082 9.59802 159.234 10.0435C159.386 10.4861 159.61 10.8692 159.896 11.1959C160.185 11.5226 160.537 11.7781 160.957 11.9652C161.378 12.1523 161.852 12.2444 162.383 12.2444" fill="white"/>
<path d="M178.642 7.25166C179.131 7.25166 179.569 7.19226 179.957 7.07642C180.345 6.96059 180.673 6.79427 180.938 6.57448C181.206 6.35766 181.412 6.0963 181.552 5.79038C181.692 5.48446 181.764 5.13993 181.764 4.75679C181.764 3.97566 181.508 3.39352 180.995 3.01632C180.482 2.63615 179.733 2.44904 178.752 2.44904L176.731 2.44904V7.25166H178.642ZM183.541 12.8146H182.855C182.766 12.8146 182.691 12.7998 182.632 12.773C182.572 12.7433 182.515 12.6899 182.465 12.6127L178.922 8.15159C178.881 8.09516 178.839 8.04467 178.794 8.00309C178.749 7.96151 178.702 7.92884 178.645 7.90508C178.591 7.88132 178.526 7.86647 178.448 7.85459C178.374 7.84568 178.281 7.83974 178.171 7.83974H176.728V12.8117H175.926V1.81641L178.749 1.81641C180.02 1.81641 180.968 2.05995 181.6 2.55002C182.232 3.04008 182.548 3.75884 182.548 4.7063C182.548 5.12508 182.477 5.50822 182.331 5.85572C182.184 6.20322 181.976 6.50617 181.704 6.76754C181.43 7.0289 181.099 7.24275 180.711 7.40907C180.324 7.5754 179.888 7.68529 179.405 7.74172C179.531 7.81894 179.641 7.9229 179.742 8.05358L183.541 12.8087V12.8146Z" fill="white"/>
<path d="M199.55 10.9638C199.601 10.9638 199.645 10.9816 199.681 11.0172L199.994 11.3528C199.765 11.5964 199.517 11.8162 199.249 12.0092C198.98 12.2053 198.685 12.3686 198.366 12.5052C198.047 12.6419 197.695 12.7488 197.314 12.823C196.932 12.8973 196.512 12.9359 196.055 12.9359C195.292 12.9359 194.591 12.8022 193.953 12.5349C193.315 12.2676 192.77 11.8904 192.31 11.4004C191.854 10.9103 191.499 10.3193 191.246 9.62425C190.992 8.92925 190.867 8.15703 190.867 7.30759C190.867 6.45814 190.998 5.71265 191.258 5.0236C191.517 4.33454 191.881 3.74349 192.349 3.24748C192.817 2.75148 193.381 2.36834 194.034 2.09806C194.69 1.82482 195.411 1.69116 196.202 1.69116C196.992 1.69116 197.624 1.807 198.205 2.04163C198.787 2.2733 199.317 2.60298 199.797 3.0277L199.556 3.37817C199.514 3.44054 199.449 3.47024 199.362 3.47024C199.3 3.47024 199.198 3.41381 199.058 3.29798C198.918 3.18511 198.724 3.0574 198.474 2.92078C198.223 2.78415 197.913 2.65644 197.54 2.54358C197.168 2.43071 196.723 2.37131 196.202 2.37131C195.537 2.37131 194.925 2.48417 194.374 2.71287C193.819 2.94157 193.345 3.26828 192.945 3.693C192.549 4.11772 192.236 4.63451 192.015 5.24635C191.792 5.85819 191.681 6.54428 191.681 7.30462C191.681 8.06496 191.795 8.77481 192.021 9.38665C192.248 9.99848 192.558 10.5153 192.951 10.937C193.348 11.3588 193.813 11.6825 194.353 11.9082C194.893 12.134 195.474 12.2468 196.097 12.2468C196.494 12.2468 196.846 12.2201 197.153 12.1696C197.463 12.1162 197.746 12.0389 198.005 11.935C198.265 11.831 198.506 11.7063 198.73 11.5548C198.954 11.4063 199.174 11.2281 199.392 11.0261C199.419 11.0053 199.446 10.9875 199.469 10.9756C199.496 10.9638 199.523 10.9548 199.55 10.9548" fill="white"/>
<path d="M208.369 1.81836V12.8136L214.986 12.8136L215.001 12.1632V12.1513L209.174 12.1513V7.56844L214.011 7.56844V6.92393L209.174 6.92393V2.47772L214.986 2.47772V1.81836L208.369 1.81836Z" fill="white"/>
<path d="M94.975 19.058V23.6825H100.005V24.3418H94.975V29.3939H94.1699V18.3987H100.786V19.058H94.975Z" fill="white"/>
<path d="M110.02 18.3987H109.218V29.3939H110.02V18.3987Z" fill="white"/>
<path d="M128.042 18.3985V29.3937H127.667C127.598 29.3937 127.541 29.3818 127.5 29.3581C127.455 29.3343 127.413 29.2927 127.371 29.2363L120.203 19.6934C120.218 19.8479 120.227 19.9964 120.227 20.136V29.3908H119.523V18.3955H119.92C119.992 18.3955 120.048 18.4044 120.087 18.4222C120.126 18.4401 120.167 18.4816 120.215 18.544L127.368 28.0631C127.353 27.9057 127.345 27.7602 127.345 27.6206V18.3985H128.039H128.042Z" fill="white"/>
<path d="M143.494 25.3992L141.246 19.8421C141.168 19.661 141.094 19.4441 141.019 19.1887C140.986 19.3135 140.954 19.4323 140.918 19.5422C140.882 19.655 140.843 19.756 140.801 19.8481L138.556 25.3962H143.494V25.3992ZM145.936 29.3939H145.319C145.244 29.3939 145.185 29.3731 145.14 29.3345C145.095 29.2959 145.056 29.2454 145.033 29.1831L143.738 25.9902H138.318L137.024 29.1831C137.003 29.2395 136.967 29.29 136.913 29.3316C136.863 29.3731 136.8 29.3939 136.725 29.3939H136.117L140.634 18.3987H141.422L145.939 29.3939H145.936Z" fill="white"/>
<path d="M162.529 18.3985V29.3937H162.153C162.084 29.3937 162.031 29.3818 161.986 29.3581C161.941 29.3343 161.899 29.2927 161.858 29.2363L154.69 19.6934C154.704 19.8479 154.713 19.9964 154.713 20.136V29.3908H154.013V18.3955H154.412C154.484 18.3955 154.54 18.4044 154.579 18.4222C154.618 18.4401 154.663 18.4787 154.707 18.544L161.861 28.0631C161.846 27.9087 161.837 27.7602 161.837 27.6206V18.3985H162.531H162.529Z" fill="white"/>
<path d="M179.992 27.5431C180.043 27.5431 180.088 27.5609 180.124 27.5966L180.437 27.9292C180.207 28.1728 179.96 28.3925 179.691 28.5856C179.423 28.7816 179.128 28.945 178.809 29.0846C178.49 29.2212 178.138 29.3281 177.756 29.4024C177.374 29.4766 176.954 29.5152 176.498 29.5152C175.734 29.5152 175.034 29.3816 174.396 29.1143C173.758 28.847 173.212 28.4698 172.753 27.9797C172.294 27.4896 171.942 26.8986 171.688 26.2036C171.435 25.5086 171.31 24.7364 171.31 23.8869C171.31 23.0375 171.438 22.292 171.697 21.6029C171.957 20.9139 172.32 20.3228 172.789 19.8268C173.257 19.3308 173.82 18.9507 174.473 18.6774C175.129 18.4042 175.851 18.2705 176.641 18.2705C177.431 18.2705 178.063 18.3863 178.645 18.621C179.226 18.8526 179.757 19.1823 180.237 19.607L179.995 19.9575C179.954 20.0199 179.888 20.0526 179.802 20.0526C179.739 20.0526 179.638 19.9961 179.497 19.8803C179.357 19.7674 179.163 19.6397 178.913 19.5031C178.663 19.3665 178.352 19.2388 177.98 19.1259C177.607 19.013 177.163 18.9536 176.644 18.9536C175.979 18.9536 175.368 19.0665 174.816 19.2952C174.261 19.5239 173.787 19.8506 173.388 20.2753C172.991 20.7 172.678 21.2168 172.455 21.8287C172.231 22.4405 172.118 23.1266 172.118 23.8869C172.118 24.6473 172.231 25.3571 172.458 25.969C172.684 26.5808 172.994 27.0976 173.388 27.5193C173.784 27.9411 174.25 28.2648 174.789 28.4906C175.329 28.7163 175.91 28.8292 176.534 28.8292C176.93 28.8292 177.282 28.8024 177.592 28.7519C177.899 28.7014 178.185 28.6242 178.445 28.5203C178.704 28.4163 178.946 28.2886 179.169 28.1401C179.393 27.9916 179.614 27.8134 179.831 27.6114C179.858 27.5906 179.885 27.5728 179.909 27.5609C179.936 27.549 179.963 27.5401 179.989 27.5401" fill="white"/>
<path d="M195.447 28.7318L195.429 29.3942H188.815V18.3989H195.429V19.0583H189.618V23.5045H194.457V24.146L189.618 24.149V28.7318H195.447Z" fill="white"/>
<path d="M20.5709 3.02547C19.578 4.57586 18.606 6.08763 17.6011 7.65286C17.127 6.48859 16.7603 5.3956 16.2474 4.37389C14.852 1.59092 12.6545 0.426651 9.65186 0.812762C5.34624 1.3652 4.54415 5.59162 6.22287 8.07461C7.09055 9.35769 8.35182 10.4834 9.66676 11.3328C11.7778 12.699 14.1006 13.7415 16.2922 14.989C18.0514 15.9899 19.7122 17.1274 20.7976 18.9124C23.004 22.5419 21.8531 27.2792 18.1468 29.382C13.5848 31.9719 8.90642 31.568 4.243 29.6404C2.58516 28.9543 1.14498 27.9266 0 26.4475C0.986952 24.9328 1.96794 23.4329 2.85948 22.0637C3.77487 23.6824 4.56801 25.3783 5.6295 26.8871C6.78045 28.5266 8.32796 29.8067 10.3615 30.279C13.0868 30.9086 15.7435 29.7592 16.7484 27.597C17.7979 25.3338 17.0406 22.6488 14.6522 20.9648C13.0719 19.851 11.2978 19.0105 9.628 18.0185C7.78529 16.9225 5.84121 15.9483 4.15355 14.6504C-0.274319 11.2407 0.584419 4.92039 4.65448 2.00377C8.78715 -0.957407 16.7186 -0.529716 20.5709 3.01953" fill="#BB9F73"/>
<path d="M52.5948 23.2576C51.6406 25.696 50.1468 27.4246 48.2295 28.779C42.8654 32.5658 34.3168 31.7906 29.6981 27.1157C27.5363 24.9268 26.4212 22.221 25.9262 19.2331C25.2613 15.2087 25.5833 11.2792 27.3664 7.57258C29.4506 3.24517 32.9959 0.863162 37.7458 0.218654C41.455 -0.28329 45.048 0.00183871 48.3786 1.88784C50.0752 2.85015 51.423 4.18075 52.5322 5.84993C51.575 7.38844 50.6149 8.93585 49.7711 10.2961C48.5307 8.1963 47.4573 5.98359 46.0201 4.03224C43.4319 0.515663 38.8937 -0.351602 35.6794 1.86111C33.9113 3.07884 32.8885 4.85495 32.3101 6.84788C30.6522 12.5564 30.8431 18.1936 33.6847 23.4893C37.0302 29.7205 45.0838 30.8224 50.1408 25.8802C50.9399 25.102 51.6675 24.2526 52.5978 23.2546" fill="#BB9F73"/>
<path d="M70.6381 14.0441C69.7078 15.7905 68.1155 16.5627 66.1565 16.6013C65.3365 16.6162 64.5166 16.6013 63.5177 16.6013V14.5668C63.5177 10.4057 63.5326 6.24761 63.5028 2.08653C63.4968 1.35292 63.6668 1.02027 64.4689 1.08264C65.4558 1.15986 66.4547 1.11234 67.4446 1.1658C69.1144 1.25788 70.3488 2.16672 70.9631 3.61315C72.4509 7.10597 72.4539 10.6374 70.6381 14.0411M77.7226 6.80005C76.8311 3.17358 74.2012 1.27867 70.7901 0.913347C66.0551 0.405463 61.2605 0.444072 56.4927 0.248047C56.457 0.34903 56.4212 0.450014 56.3854 0.550997C58.0224 1.85486 58.0492 3.69928 58.0611 5.48133C58.1059 12.2294 58.0999 18.9744 58.0611 25.7224C58.0522 27.5045 57.9687 29.3252 56.3496 30.6825H65.2739C64.1767 29.6608 63.7145 28.8559 63.6727 27.5253C63.5803 24.5641 63.5564 21.6029 63.5177 18.6388C63.4998 17.2755 63.5177 17.2666 64.9102 17.2755C67.552 17.2934 70.152 17.1211 72.6716 16.1855C76.7178 14.6767 78.7394 10.9671 77.7197 6.80302" fill="#BB9F73"/>
</svg>
